<?xml version="1.0" standalone="no"?>
<!DOCTYPE svg PUBLIC "-//W3C//DTD SVG 1.1//EN" "http://www.w3.org/Graphics/SVG/1.1/DTD/svg11.dtd" >
<svg xmlns="http://www.w3.org/2000/svg">
<metadata></metadata>
<defs>
<font id="marmeladregular" horiz-adv-x="1085" >
<font-face units-per-em="2048" ascent="1638" descent="-410" />
<missing-glyph horiz-adv-x="614" />
<glyph unicode="fi" horiz-adv-x="1198" d="M49 973q0 22 11 34.5t23 16t30 4.5h116q5 122 32 211.5t59.5 135.5t80.5 85q56 46 138.5 71t162.5 25q104 0 178 -39t74 -83q0 -33 -21 -52.5t-61 -19.5q-19 0 -38.5 11t-29 20.5t-25 28.5t-54 36t-74.5 17t-69.5 -13t-67 -43t-54 -90.5t-20.5 -144.5v-156h453 q131 0 131 -137v-752q0 -87 -29 -113t-102 -26q-47 0 -64.5 23.5t-17.5 72.5v834h-371v-791q0 -87 -29 -113t-102 -26q-46 0 -64 23.5t-18 72.5v834h-112q-35 0 -50.5 10t-15.5 33z" />
<glyph unicode="fl" horiz-adv-x="1198" d="M1024 1356v-1217q0 -87 -29 -113t-102 -26q-47 0 -64.5 23.5t-17.5 72.5v1315q-64 64 -160 64q-36 0 -69.5 -13t-67 -43t-54 -90.5t-20.5 -144.5v-156h209q36 0 54 -13t18 -32q0 -21 -20 -37t-52 -16h-209v-791q0 -87 -29 -113t-102 -26q-46 0 -64 23.5t-18 72.5v834 h-112q-35 0 -50.5 10t-15.5 33q0 22 11 34.5t23 16t30 4.5h116q5 122 32 211.5t59.5 135.5t80.5 85q56 46 138.5 71t162.5 25q88 0 157 -19.5t115.5 -65.5t49.5 -115z" />
<glyph unicode="&#xd;" horiz-adv-x="0" />
<glyph unicode=" "  horiz-adv-x="614" />
<glyph unicode="&#x09;" horiz-adv-x="614" />
<glyph unicode="&#xa0;" horiz-adv-x="614" />
<glyph unicode="!" horiz-adv-x="631" d="M424 1348v-887q0 -31 -33 -48.5t-78 -17.5q-43 0 -74.5 17t-31.5 49v889q0 102 102 102q61 0 88 -26t27 -78zM174 141q0 29 12 55.5t31.5 46t45 31t52.5 11.5q29 0 55 -11.5t46 -31.5t31.5 -46t11.5 -55q0 -27 -11.5 -52.5t-31 -45t-46 -31.5t-55.5 -12q-28 0 -53.5 11.5 t-45 31t-31 45t-11.5 53.5z" />
<glyph unicode="&#x22;" horiz-adv-x="848" d="M188 1055l-65 405q0 30 33.5 46t87.5 16q52 0 87.5 -17t35.5 -45l-68 -405q-5 -29 -55 -29q-22 0 -38.5 7.5t-17.5 21.5zM547 1055l-66 405q0 30 33.5 46t87.5 16t88.5 -17t34.5 -45l-68 -405q-5 -29 -55 -29q-22 0 -38 7.5t-17 21.5z" />
<glyph unicode="#" d="M770 373l-57 -332q-3 -19 -28.5 -30t-57.5 -11q-72 0 -72 41l61 332h-272l-65 -332q-5 -19 -30 -30t-56 -11q-72 0 -72 41l61 332h-278q-25 0 -25 41q0 16 5 35t13.5 35.5t19 27t22.5 10.5h274l66 355h-279q-27 0 -27 47q0 18 4.5 36.5t12 34t18 25.5t21.5 10h280l58 326 q3 18 29.5 28.5t58.5 10.5q73 0 73 -39l-59 -326h274l60 326q3 18 29 28.5t59 10.5t53.5 -10.5t20.5 -28.5l-66 -326h281q26 0 26 -47q0 -18 -4 -37t-11.5 -34t-17.5 -25t-22 -10h-281l-65 -355h278q27 0 27 -45q0 -17 -4.5 -35t-12 -33.5t-18 -25.5t-22.5 -10h-283z M369 522h276l66 355h-273z" />
<glyph unicode="$" d="M852 1079q-57 0 -83 29t-26 98v105q-6 1 -14 3.5t-18 6.5q-32 8 -58.5 14t-48.5 8v-544q95 -39 172 -74t131 -78t83.5 -99.5t29.5 -136.5t-26 -149t-78 -122t-130 -87.5t-182 -46.5v-203q0 -20 -18.5 -31.5t-44.5 -11.5q-25 0 -43.5 11.5t-18.5 31.5v197q-53 1 -116 11 t-119.5 25t-100 33t-57.5 36q-14 19 -14 61v123q0 98 80 98q55 0 82.5 -30t27.5 -99v-111q107 -40 217 -43v562l-103 42q-68 28 -125 60.5t-98 75.5t-64 100.5t-23 136.5q0 80 28 146t81 114t129.5 76t174.5 33v172q0 20 18.5 31.5t43.5 11.5q26 0 44.5 -11t18.5 -32v-174 q52 -4 114.5 -18t137.5 -37q22 -8 37 -16t24 -18.5t13 -25.5t4 -37v-118q0 -99 -82 -99zM276 1094q0 -47 9.5 -81.5t33 -63t62.5 -52.5t98 -49v495q-50 -8 -87.5 -32.5t-63.5 -58.5t-39 -75t-13 -83zM809 375q0 41 -11 73.5t-35.5 60.5t-63.5 52.5t-95 50.5v-493 q50 14 88 39.5t64 59.5t39.5 74t13.5 83z" />
<glyph unicode="%" horiz-adv-x="1845" d="M1087 222q-22 73 -22 175q0 84 15 148.5t40 112t58.5 79.5t70 51.5t74.5 28t72 8.5q33 0 70.5 -8t73.5 -27.5t69.5 -51.5t58.5 -79.5t40 -112t15 -149.5q0 -86 -15 -150.5t-40.5 -112.5t-58.5 -79.5t-69.5 -50.5t-73.5 -27t-70 -8q-39 0 -84 11.5t-88 40t-79 77.5 t-57 124zM1241 397q0 -106 14.5 -172t37 -103.5t49.5 -51t53 -13.5q25 0 52 13.5t49.5 50.5t37 103.5t14.5 172.5q0 102 -13.5 168t-35.5 104.5t-49.5 53t-54.5 14.5q-25 0 -52 -13t-49.5 -49.5t-37.5 -103t-15 -174.5zM453 1485q33 0 70.5 -8t73.5 -27.5t69.5 -51.5 t58.5 -79.5t40 -112t15 -149.5q0 -126 -32 -209t-81 -131.5t-106 -68t-108 -19.5q-50 0 -107.5 18.5t-107 66.5t-82.5 131t-33 212q0 127 32.5 210t82 131.5t107 67.5t108.5 19zM299 1057q0 -108 15 -174.5t37.5 -103t49.5 -49.5t52 -13q27 0 54.5 14.5t49.5 53t35.5 104.5 t13.5 168q0 107 -15 173.5t-37.5 103.5t-49.5 50t-51 13t-51 -12t-50 -48.5t-38 -103.5t-15 -176zM1438 1497l-936 -1655q-9 -12 -29 -12q-13 0 -29 4.5t-30 12.5t-23.5 17.5t-9.5 20.5q0 5 2 11l934 1665q6 12 24 12q14 0 31 -6t32 -16t25.5 -21.5t10.5 -22.5q0 -4 -2 -10z " />
<glyph unicode="&#x26;" horiz-adv-x="1327" d="M983 379q13 19 29.5 52.5t36.5 82.5q14 33 31.5 49.5t43.5 16.5q29 0 46.5 -13.5t17.5 -34.5q0 -18 -8 -41.5t-18.5 -47t-21.5 -43t-17 -30.5q-20 -36 -54 -79l145 -182q21 -27 21 -50q0 -27 -23 -43t-63 -16q-27 0 -47.5 3t-36.5 10t-29.5 18t-25.5 26l-70 88 q-41 -39 -82.5 -66.5t-86.5 -45t-96.5 -25.5t-113.5 -8q-104 0 -186.5 29t-141 81.5t-89.5 127t-31 165.5q0 66 16.5 121t53 104t96.5 94t147 91q-27 36 -51 78t-42.5 84.5t-29 82.5t-10.5 72q0 69 24 128t69 102t108.5 67.5t142.5 24.5q75 0 133.5 -21.5t98 -58t60.5 -86 t21 -104.5q0 -65 -19.5 -117t-56.5 -96t-90 -83t-120 -79zM578 106q90 0 157.5 37t128.5 101l-368 479q-58 -43 -92.5 -77.5t-52.5 -71.5t-23.5 -82t-5.5 -109q0 -53 19 -103t53.5 -88.5t81 -62t102.5 -23.5zM498 1147q0 -128 96 -258q103 62 151 128.5t48 156.5 q0 38 -11 70t-29.5 55.5t-44 37t-55.5 13.5q-37 0 -66 -15.5t-48.5 -42.5t-30 -64.5t-10.5 -80.5z" />
<glyph unicode="'" horiz-adv-x="489" d="M188 1055l-65 405q0 30 33.5 46t87.5 16q52 0 87.5 -17t35.5 -45l-68 -405q-5 -29 -55 -29q-22 0 -38.5 7.5t-17.5 21.5z" />
<glyph unicode="(" horiz-adv-x="776" d="M530 -287l-32 39q-54 65 -112.5 155t-108 201t-81.5 242t-32 279q0 147 32 278t81.5 242.5t108 201.5t112.5 154l32 39q14 17 37 17q25 0 45.5 -15t20.5 -37q0 -9 -4 -20l-27 -55q-106 -216 -157.5 -417t-51.5 -388q1 -189 52 -389t157 -416l27 -55q4 -12 4 -21 q0 -21 -20 -36t-44 -15q-26 0 -39 16z" />
<glyph unicode=")" horiz-adv-x="776" d="M279 -248l-33 -39q-13 -16 -39 -16q-24 0 -44 15t-20 36q0 9 4 21l27 55q106 215 157.5 416t51.5 389q-1 187 -52 388t-157 417l-27 55q-4 11 -4 20q0 21 20 36.5t44 15.5q25 0 39 -17l33 -39q46 -54 103.5 -137.5t108.5 -194.5t86 -247.5t35 -296.5q0 -154 -34 -288.5 t-84 -246t-108.5 -198t-106.5 -144.5z" />
<glyph unicode="*" horiz-adv-x="922" d="M539 1417l-23 -254l6 -4l207 146q7 4 12 4q12 0 25.5 -11t25.5 -27.5t19.5 -34.5t7.5 -32q0 -18 -12 -24l-244 -111v-6l236 -107q14 -6 14 -26q0 -14 -7.5 -32.5t-18.5 -34.5t-24 -27t-24 -11q-5 0 -12 4l-203 152l-6 -4l21 -256q0 -35 -78 -35t-78 35l20 256l-6 4 l-200 -152q-7 -4 -13 -4q-12 0 -24.5 11t-23.5 27t-18 34.5t-7 32.5q0 20 14 26l233 107v6l-241 111q-15 4 -15 24q0 14 8 32.5t20 34.5t26 27t26 11q4 0 13 -4l204 -146l7 4l-23 254v3q0 16 24.5 23.5t53.5 7.5t53.5 -7.5t24.5 -23.5v-3z" />
<glyph unicode="+" horiz-adv-x="1475" d="M655 633h-430h-3q-19 0 -28.5 25.5t-9.5 56.5t9.5 56.5t28.5 25.5h3h430v430q0 20 25 30t57 10t57 -10t25 -30v-430h430q20 0 30 -25t10 -57t-10 -57t-30 -25h-430v-430v-3q0 -19 -25.5 -28.5t-56.5 -9.5t-56.5 9.5t-25.5 28.5v3v430z" />
<glyph unicode="," horiz-adv-x="557" d="M172 -139l78 164q-41 6 -65.5 23.5t-38.5 39t-18.5 44t-4.5 40.5q0 36 14 63.5t37 46t52 28t59 9.5q28 0 55 -9.5t48 -27t33.5 -43t12.5 -57.5q0 -63 -43 -155l-86 -183q-24 -55 -76 -55q-25 0 -43 16t-18 37q0 8 4 19z" />
<glyph unicode="-" horiz-adv-x="895" d="M752 440h-609h-3q-19 0 -28.5 25.5t-9.5 56.5t9.5 56.5t28.5 25.5h3h609q20 0 30 -25t10 -57t-10 -57t-30 -25z" />
<glyph unicode="." horiz-adv-x="557" d="M123 158q0 35 12 64.5t33 51t49.5 33.5t61.5 12t61 -12t49 -34t33 -51.5t12 -63.5q0 -33 -11.5 -61.5t-32.5 -50t-49.5 -34t-61.5 -12.5q-32 0 -60.5 12t-49.5 33t-33.5 50t-12.5 63z" />
<glyph unicode="/" horiz-adv-x="1372" d="M1268 1452l-1059 -1862q-9 -12 -27 -12q-14 0 -31.5 6.5t-32.5 16t-25.5 21t-10.5 22.5q0 4 2 10l1057 1872q6 12 26 12q14 0 32 -7t33.5 -18t26.5 -24t11 -25q0 -6 -2 -12z" />
<glyph unicode="0" d="M70 725q0 148 24.5 280t80 231.5t146 157.5t222.5 58t222.5 -58.5t146 -158.5t80 -231.5t24.5 -278.5q0 -159 -25 -292t-81.5 -229.5t-146.5 -150t-220 -53.5t-220 53.5t-146.5 149.5t-81.5 229t-25 293zM790 725q-1 88 -3.5 148t-5.5 93q-7 76 -22.5 145.5t-43.5 122 t-70 83.5t-102 31q-78 -3 -125.5 -48t-74 -126t-36 -195t-12.5 -254q2 -97 4.5 -160.5t5.5 -97.5q7 -81 23 -147t44 -113.5t70 -74t101 -28.5q53 0 93.5 23.5t69.5 66.5t46.5 102.5t24.5 130.5q4 38 7.5 112t5.5 186z" />
<glyph unicode="1" d="M483 1311l-227 -86q-30 -11 -49 -11q-26 0 -39.5 18.5t-13.5 41.5q0 30 43 45l288 113q57 20 111 20q55 0 79.5 -24t24.5 -78v-1241h177q47 0 64 -16t17 -44q0 -49 -61 -49h-610q-62 0 -62 49q0 60 82 60h176v1202z" />
<glyph unicode="2" d="M184 1014q-45 0 -66.5 24t-21.5 78v123q0 35 10 51.5t37 34.5q54 35 103.5 59t99.5 39t101.5 22t109.5 7q105 0 180.5 -29.5t123.5 -79.5t70.5 -116t22.5 -140q0 -95 -34.5 -198t-117 -221.5t-219.5 -256t-341 -302.5h534v127q0 72 27.5 102.5t81.5 30.5q88 0 88 -103 v-200q0 -36 -30 -51t-93 -15h-727q-25 0 -38 16.5t-13 40.5q0 43 30 70l29 27q173 160 283 292t174.5 234.5t91.5 174.5t34 112q4 23 6.5 45.5t2.5 44.5q0 45 -9 96.5t-34 94.5t-70.5 71.5t-117.5 28.5q-99 0 -199 -54v-147q0 -73 -24.5 -103t-84.5 -30z" />
<glyph unicode="3" d="M150 436q58 0 83 -30t25 -103v-147q89 -52 209 -52q60 0 111 19t88 57.5t58 96.5t21 135q0 84 -21.5 139.5t-61 88.5t-95 46.5t-123.5 13.5h-59q-13 0 -23 17t-10 39t10 39.5t23 17.5h59q258 0 258 287q0 63 -16.5 110t-47 77.5t-73.5 45.5t-96 15q-101 0 -190 -50v-147 q0 -73 -24.5 -103t-84.5 -30q-88 0 -88 102v123q0 36 10 55.5t37 36.5q96 61 189 89t202 28q103 0 180 -26t127.5 -72.5t75.5 -111t25 -142.5q0 -64 -20.5 -118t-55.5 -96t-82 -69.5t-100 -38.5v-18q67 -10 123.5 -35t96.5 -67.5t62.5 -103t22.5 -140.5q0 -94 -35 -170.5 t-98.5 -130.5t-152.5 -83.5t-197 -29.5q-204 0 -383 106q-48 28 -48 105v123q0 54 21.5 78t67.5 24z" />
<glyph unicode="4" d="M481 109h158v245h-596q-57 0 -57 49q0 19 14 50l608 923q48 76 144 76q55 0 79.5 -24t24.5 -78v-887h127q48 0 65 -16t17 -44q0 -49 -61 -49h-148v-245h117q82 0 82 -60q0 -49 -62 -49h-532q-62 0 -62 49q0 60 82 60zM639 463v721l-481 -721h481z" />
<glyph unicode="5" d="M864 1270h-499l-33 -424q100 96 264 96q383 0 383 -440q0 -55 -10.5 -113t-33.5 -114t-59.5 -106t-89.5 -87.5t-123 -59.5t-159 -22q-203 0 -342 84q-47 27 -47 104v93q0 54 21.5 78t66.5 24q59 0 83.5 -30t24.5 -103v-117q66 -29 183 -29q55 0 102 26.5t81 76t53.5 121 t19.5 161.5q0 95 -20.5 157.5t-54 99t-75.5 51t-84 14.5q-66 0 -120.5 -29t-86.5 -80q-13 -20 -34.5 -30t-49.5 -10q-57 0 -57 63l47 668q2 29 19.5 44t52.5 15h600q69 0 69 -80q0 -18 -5.5 -36.5t-17 -33t-28.5 -23.5t-41 -9z" />
<glyph unicode="6" d="M864 1100q-59 0 -83.5 28.5t-24.5 98.5v100q-50 21 -127 21q-50 0 -104 -23t-99 -82t-74.5 -161t-29.5 -259v-86q25 51 60.5 85.5t76.5 55.5t84.5 30.5t85.5 9.5q90 0 160 -32t118 -89.5t72.5 -139t24.5 -180.5q0 -110 -31.5 -198t-88.5 -150t-137 -95.5t-178 -33.5 q-97 0 -169 25.5t-124 70t-85.5 105.5t-53 132.5t-27.5 151t-8 160.5q0 169 20 295t56 215.5t84.5 147t106.5 91t122 46t130 12.5q122 0 247 -45q13 -5 28 -12t27.5 -18.5t20.5 -29.5t8 -44v-105q0 -51 -21.5 -74.5t-66.5 -23.5zM569 786q-48 0 -90 -22t-73.5 -64 t-49.5 -102.5t-18 -136.5q0 -57 10.5 -120t36 -115.5t69 -87t109.5 -34.5q217 0 217 375q0 163 -54.5 235t-156.5 72z" />
<glyph unicode="7" d="M106 1376q0 45 29.5 60.5t93.5 15.5h686q40 0 58 -20.5t18 -51.5q0 -21 -5.5 -41.5t-16.5 -38.5q-97 -155 -165.5 -304.5t-116.5 -294.5t-79.5 -285.5t-54.5 -278.5q-6 -26 -8 -50.5t-12 -44t-33.5 -31t-73.5 -11.5q-66 0 -92.5 15.5t-26.5 45.5q0 40 27 142 q44 165 99 325t118 307t132.5 276t141.5 232h-522v-116q0 -73 -25 -103t-83 -30q-46 0 -67.5 24t-21.5 78v180z" />
<glyph unicode="8" d="M766 1096q0 71 -20.5 119.5t-53 78t-72 42t-77.5 12.5t-77.5 -12.5t-72 -41.5t-53.5 -77.5t-21 -120.5q0 -68 17.5 -117t47.5 -81.5t71 -48t88 -15.5q48 0 88.5 16t70.5 48.5t47 81.5t17 116zM303 424q0 -79 18 -138.5t50.5 -100t76.5 -61t95 -20.5t95 20.5t76 60.5 t50 100t18 139q0 86 -21 145.5t-54.5 96t-76.5 53t-87 16.5t-87 -16t-77 -52.5t-55 -96t-21 -146.5zM752 795v-17q63 -14 111 -46.5t81 -78.5t49.5 -103.5t16.5 -121.5q0 -102 -33 -181.5t-93.5 -134.5t-147 -83.5t-193.5 -28.5t-193.5 28.5t-147 83.5t-93.5 134.5 t-33 181.5q0 63 16.5 119.5t49 102t81 78.5t111.5 50v17q-50 12 -92.5 39.5t-74 66.5t-49.5 87t-18 102q0 66 23 131t75.5 116.5t137 83t207.5 31.5t207.5 -32t136.5 -83.5t75 -116t23 -128.5q0 -54 -18 -103t-49 -89t-74 -67.5t-92 -37.5z" />
<glyph unicode="9" d="M221 352q60 0 84.5 -28.5t24.5 -98.5v-100q49 -21 133 -21q52 0 105.5 26.5t97 87.5t71 161.5t27.5 249.5v86q-23 -47 -56.5 -81t-73 -56t-84.5 -32.5t-91 -10.5q-92 0 -162 32.5t-118 91.5t-72.5 141t-24.5 181q0 112 34 199.5t94.5 148t144.5 92t185 31.5 q100 0 172 -26.5t121 -72.5t78.5 -107.5t45.5 -131.5t21 -145t5 -148q0 -821 -518 -821q-122 0 -248 45q-38 14 -61 36.5t-23 68.5v104q0 98 88 98zM518 666q49 0 91 23t73 65t48.5 102t17.5 135q0 57 -8 119t-31 114.5t-64 87t-108 36.5q-107 0 -169.5 -90t-62.5 -279 q0 -313 213 -313z" />
<glyph unicode=":" horiz-adv-x="557" d="M123 852q0 35 12 65t33 51.5t49.5 33.5t61.5 12t61.5 -12.5t49 -34.5t32.5 -51.5t12 -63.5q0 -33 -11.5 -61.5t-32.5 -50t-49.5 -34t-61.5 -12.5q-32 0 -60.5 12t-49.5 33t-33.5 50t-12.5 63zM123 158q0 35 12 64.5t33 51t49.5 33.5t61.5 12t61 -12t49 -34t33 -51.5 t12 -63.5q0 -33 -11.5 -61.5t-32.5 -50t-49.5 -34t-61.5 -12.5q-32 0 -60.5 12t-49.5 33t-33.5 50t-12.5 63z" />
<glyph unicode=";" horiz-adv-x="565" d="M125 852q0 35 12 65t33 51.5t49.5 33.5t61.5 12t61.5 -12.5t49 -34.5t32.5 -51.5t12 -63.5q0 -33 -11.5 -61.5t-32.5 -50t-49.5 -34t-61.5 -12.5q-32 0 -60.5 12t-49.5 33t-33.5 50t-12.5 63zM168 -139l78 164q-39 6 -63 22.5t-37.5 38t-18 44.5t-4.5 42q0 36 14 63.5 t37 46t52 28t59 9.5q28 0 55 -9.5t48 -27t33.5 -43t12.5 -57.5q0 -65 -43 -155l-86 -183q-24 -55 -76 -55q-26 0 -45.5 16t-19.5 37q0 10 4 19z" />
<glyph unicode="&#x3c;" horiz-adv-x="1542" d="M1257 100l-1120 555q-24 12 -24 56q0 43 24 55l1120 555q6 2 11 2q11 0 23.5 -11.5t22.5 -29t16.5 -37.5t6.5 -37q0 -27 -16 -34l-956 -463l956 -463q16 -7 16 -37q0 -16 -6.5 -35.5t-16.5 -37t-22 -29t-24 -11.5q-5 0 -11 2z" />
<glyph unicode="=" horiz-adv-x="1434" d="M1208 827h-983h-3q-19 0 -28.5 25.5t-9.5 56.5t9.5 56.5t28.5 25.5h3h983q20 0 30 -25t10 -57t-10 -57t-30 -25zM1208 465h-983h-3q-19 0 -28.5 25.5t-9.5 56.5t9.5 56.5t28.5 25.5h3h983q20 0 30 -25t10 -57t-10 -57t-30 -25z" />
<glyph unicode="&#x3e;" horiz-adv-x="1614" d="M1395 655l-1121 -555q-6 -2 -10 -2q-13 0 -25.5 11.5t-22 28.5t-15.5 36.5t-6 36.5q0 30 16 37l956 463l-956 463q-16 7 -16 34q0 18 6 38t16 37t22.5 28.5t24.5 11.5q4 0 10 -2l1121 -555q24 -12 24 -55t-24 -56z" />
<glyph unicode="?" horiz-adv-x="963" d="M150 1032q-45 0 -67 24.5t-22 78.5v118q0 35 12 55t40 38q84 54 173.5 80t184.5 26q118 0 197 -29.5t126 -75.5t67 -100.5t20 -105.5q0 -36 -7 -69.5t-18.5 -63t-26 -54t-29.5 -41.5q-13 -15 -36 -39.5t-48 -51t-48 -51.5t-35 -40q-30 -37 -51 -68.5t-35 -63.5t-20.5 -67 t-6.5 -79q0 -27 -29.5 -42.5t-68.5 -15.5q-37 0 -62.5 14.5t-25.5 43.5q0 58 9 104t25 85.5t39 77t52 79.5q31 46 65 82t61.5 73.5t45.5 82.5t18 110q0 110 -54.5 155.5t-162.5 45.5q-76 0 -174 -43v-140q0 -73 -25 -103t-83 -30zM289 141q0 28 11.5 54.5t30.5 46t44.5 31.5 t54.5 12t55 -11.5t45.5 -31.5t31 -46t11.5 -55q0 -28 -11.5 -53.5t-31 -45t-45.5 -31t-55 -11.5t-54.5 12t-45 31.5t-30.5 45t-11 52.5z" />
<glyph unicode="@" horiz-adv-x="1679" d="M479 524q0 113 36.5 210.5t101 169t152 112.5t189.5 41q55 0 102.5 -6.5t83 -18.5t55.5 -30t20 -41q0 -5 -13.5 -67.5t-39.5 -183.5q-52 -238 -52 -247q0 -62 68 -62q45 0 93.5 24.5t88.5 72t66 116.5t26 158q0 66 -22 128t-61.5 117.5t-93.5 101.5t-118 79t-135.5 51.5 t-144.5 18.5q-76 0 -150.5 -21t-142 -59t-125 -92.5t-99.5 -122t-66 -146t-24 -165.5q0 -115 43 -224.5t123.5 -195t194.5 -137.5t256 -52q199 0 369 117q11 8 24 8t26 -7.5t23 -19.5t16.5 -27t6.5 -30q0 -26 -23 -41q-59 -39 -110.5 -67.5t-104 -47t-109.5 -27.5t-128 -9 q-83 0 -171.5 21.5t-172.5 64.5t-159.5 107t-132 148.5t-89.5 189t-33 229.5q0 106 28 203.5t78 182t120 153t153 117t177.5 75t194.5 26.5q95 0 186.5 -21t173 -60.5t150 -96.5t118.5 -129t78 -157.5t28 -182.5q0 -117 -38 -210t-101.5 -158t-146 -99.5t-171.5 -34.5 q-23 0 -51.5 4t-56 15.5t-50.5 33t-35 56.5q-75 -98 -256 -98q-53 0 -94 17.5t-70 49.5t-44 76.5t-15 99.5zM770 418q105 0 166 67l98 430q-35 21 -80 21q-54 0 -105.5 -30.5t-91.5 -83t-64.5 -123t-24.5 -150.5q0 -67 27 -99t75 -32z" />
<glyph unicode="A" horiz-adv-x="1382" d="M371 389l-105 -280q-25 -65 -56.5 -87t-68.5 -22q-29 0 -42 16t-13 41q0 21 10 49l482 1297q9 24 39.5 36.5t72.5 12.5q45 0 80 -14.5t45 -40.5l469 -1299q4 -17 4 -30q0 -29 -19 -48.5t-61 -19.5q-114 0 -153 109l-109 280h-575zM915 496l-247 714h-13l-252 -714h512z " />
<glyph unicode="B" horiz-adv-x="1372" d="M205 1350q0 102 94 102h420q455 0 455 -365q0 -50 -16.5 -99.5t-46.5 -91t-73 -72.5t-96 -44v-10q81 -15 139 -47t95.5 -76t55 -98.5t17.5 -114.5q0 -94 -25.5 -162.5t-68 -116.5t-97 -78.5t-112 -47.5t-114 -23t-103.5 -6h-430q-94 0 -94 102v1248zM680 707h-254v-598 h274q47 0 102.5 13t103.5 47t80 93.5t32 151.5q0 80 -31.5 135.5t-81 90.5t-109 51t-116.5 16zM645 1343h-219v-528h236q46 0 96 15t90.5 48.5t67 86.5t26.5 129q0 72 -29 119.5t-73.5 76.5t-96.5 41t-98 12z" />
<glyph unicode="C" horiz-adv-x="1190" d="M1030 1083q-60 0 -89.5 31t-29.5 103v114q-82 17 -149 17q-97 0 -175 -41t-133 -121.5t-84.5 -200t-29.5 -276.5q0 -173 29.5 -289t85.5 -186t137 -99t184 -29q63 -1 129.5 15t138.5 45l39 16q12 4 17 4q20 0 34.5 -19t14.5 -42q0 -31 -27 -41l-35 -14 q-87 -35 -177.5 -52.5t-190.5 -17.5q-156 0 -271 47t-190 138t-112 224t-37 304q0 190 47.5 329.5t131.5 230.5t198.5 135t248.5 44q51 0 108.5 -5t109.5 -15t92 -24.5t56 -33.5q17 -20 17 -65v-123q0 -54 -21.5 -78.5t-66.5 -24.5z" />
<glyph unicode="D" horiz-adv-x="1419" d="M205 1350q0 102 94 102h293q719 0 719 -719q-1 -142 -33 -251.5t-86 -190.5t-125 -137t-149.5 -90t-160 -49t-155.5 -15h-303q-94 0 -94 102v1248zM567 1343h-141v-1234h141q107 3 200.5 38.5t162.5 110t109 192t40 283.5t-39 282t-108 189t-162.5 106t-202.5 33z" />
<glyph unicode="E" horiz-adv-x="1231" d="M1030 1096q-61 0 -90 30.5t-29 102.5v114h-485v-536h430q27 0 42 -17t15 -40q0 -10 -5 -20t-13 -18t-18 -13t-21 -5h-430v-585h516v114q0 72 29 102.5t90 30.5q45 0 66.5 -24t21.5 -78v-178q0 -45 -29.5 -60.5t-93.5 -15.5h-727q-94 0 -94 102v1248q0 102 94 102h696 q64 0 93.5 -15.5t29.5 -60.5v-178q0 -54 -21.5 -78t-66.5 -24z" />
<glyph unicode="F" horiz-adv-x="1139" d="M856 684h-430v-551q0 -72 -30.5 -102.5t-96.5 -30.5q-94 0 -94 102v1248q0 102 94 102h696q64 0 93.5 -15.5t29.5 -60.5v-157q0 -54 -21.5 -78.5t-66.5 -24.5q-60 0 -89.5 30.5t-29.5 102.5v94h-485v-546h430q28 0 42.5 -17t14.5 -41q0 -10 -5 -20t-13 -17.5t-18.5 -12.5 t-20.5 -5z" />
<glyph unicode="G" horiz-adv-x="1393" d="M1094 1083q-60 0 -89.5 31t-29.5 103v114q-66 17 -166 17q-102 0 -188 -41.5t-148.5 -122t-97.5 -199.5t-35 -274q0 -173 30 -289.5t87.5 -187t141 -100.5t189.5 -30q144 0 246 41v443h-229q-25 0 -38 16.5t-13 38.5q0 24 14.5 40.5t42.5 16.5h348q54 0 72 -19.5 t18 -62.5v-423q0 -29 -4 -49t-12 -33.5t-20 -22t-29 -14.5q-194 -76 -434 -76q-170 0 -291 49.5t-199 142t-114.5 225t-36.5 298.5q0 189 53 328t144.5 229.5t214.5 135t263 44.5q48 0 107 -5t114 -15t98.5 -25t61.5 -36q17 -20 17 -64v-121q0 -103 -88 -103z" />
<glyph unicode="H" horiz-adv-x="1520" d="M1221 1452q94 0 94 -102v-1248q0 -57 -21 -79.5t-69 -22.5q-64 0 -97.5 40t-33.5 118v536h-668v-561q0 -72 -30.5 -102.5t-96.5 -30.5q-94 0 -94 102v1248q0 57 21 79.5t69 22.5q64 0 97.5 -40t33.5 -118v-487h668v512q0 72 30.5 102.5t96.5 30.5z" />
<glyph unicode="I" horiz-adv-x="836" d="M733 0h-631q-61 0 -61 49q0 28 17 44t65 16h184v1234h-184q-48 0 -65 16t-17 44q0 49 61 49h631q62 0 62 -49q0 -60 -82 -60h-185v-1234h185q82 0 82 -60q0 -49 -62 -49z" />
<glyph unicode="J" horiz-adv-x="991" d="M741 1452q48 0 71.5 -24t23.5 -78v-815q0 -41 -5 -97t-21 -115t-47.5 -117t-84.5 -104t-131 -74t-187 -28q-27 0 -63.5 4t-72 10t-66 13.5t-45.5 15.5q-41 20 -41 63v138q0 54 21.5 78t66.5 24q60 0 89.5 -30.5t29.5 -102.5v-100q21 -4 42.5 -5.5t43.5 -1.5q73 0 121 29 t76.5 75t40 103t11.5 113v893q0 72 30.5 102.5t96.5 30.5z" />
<glyph unicode="K" horiz-adv-x="1251" d="M426 1294v-512l635 629q38 41 82 41q31 0 52.5 -20.5t21.5 -45.5q0 -13 -11 -24l-585 -563l591 -664q14 -17 21.5 -31t7.5 -28q0 -31 -23.5 -53.5t-60.5 -22.5q-24 0 -46.5 4.5t-44.5 15.5t-45 30.5t-48 49.5l-510 584l-37 -39v-512q0 -72 -30.5 -102.5t-96.5 -30.5 q-94 0 -94 102v1248q0 57 21 79.5t69 22.5q64 0 97.5 -40t33.5 -118z" />
<glyph unicode="L" horiz-adv-x="1169" d="M1010 383q88 0 88 -102v-215q0 -36 -30 -51t-93 -15h-676q-94 0 -94 102v1248q0 57 21 79.5t69 22.5q64 0 97.5 -40t33.5 -118v-1185h465v141q0 72 29.5 102.5t89.5 30.5z" />
<glyph unicode="M" horiz-adv-x="1796" d="M1506 0q-63 0 -93 39.5t-30 118.5v992h-14l-420 -1074q-29 -76 -86 -76q-28 0 -51 19t-37 57l-394 1074h-14v-1035q0 -33 -8 -55t-20 -35.5t-27 -19t-29 -5.5q-30 0 -54 21t-24 71v1251q0 27 11.5 47.5t30 34t42 20.5t47.5 7q19 0 41.5 -5t44 -16.5t39.5 -30.5t29 -47 l394 -1086h10l425 1076q12 31 30.5 51.5t40.5 33.5t46.5 18.5t48.5 5.5q54 0 79.5 -26t25.5 -83v-1240q0 -57 -18 -80t-66 -23z" />
<glyph unicode="N" horiz-adv-x="1522" d="M205 92v1249q0 52 35.5 81.5t87.5 29.5q45 0 80 -18.5t67 -67.5l670 -1063h10v1034q0 60 25.5 87.5t58.5 27.5t55.5 -22t22.5 -70v-1241q0 -57 -34 -88t-85 -31q-98 0 -149 82l-670 1067h-12v-1034q0 -60 -25.5 -87.5t-58.5 -27.5t-55.5 22t-22.5 70z" />
<glyph unicode="O" horiz-adv-x="1466" d="M1358 725q0 -52 -7 -125.5t-29 -154.5t-63.5 -160.5t-111 -142.5t-171.5 -102.5t-245 -39.5q-144 0 -246 40t-171 104.5t-110 145t-62 161t-27 153t-6 121.5q0 53 7 127.5t29 155.5t63.5 160.5t110.5 142.5t170 102t242 39t242.5 -39.5t171.5 -103.5t112 -144 t64.5 -160.5t29.5 -154.5t7 -125zM731 1348q-87 0 -149.5 -31t-106 -81.5t-70 -116t-41 -134.5t-19.5 -137t-5 -123q0 -47 4 -111.5t17 -133.5t38.5 -136.5t69 -120.5t107.5 -86t155 -33q88 2 151.5 32t107 79t70.5 112.5t41.5 132t19.5 137t5 128.5q0 48 -3.5 113 t-16.5 134.5t-38.5 136.5t-69.5 120.5t-109.5 86t-157.5 32.5z" />
<glyph unicode="P" horiz-adv-x="1264" d="M639 563h-213v-430q0 -72 -30.5 -102.5t-96.5 -30.5q-94 0 -94 102v1248q0 57 21 79.5t69 22.5h342q35 0 79.5 -1t94.5 -8.5t104 -24.5t108 -50q35 -21 66 -52t54 -72.5t36 -95t13 -120.5q0 -98 -34 -182.5t-103 -147.5t-173 -99t-243 -36zM637 1343h-211v-671h211 q154 0 239 86.5t85 269.5q0 76 -18 135t-57 99t-100.5 60.5t-148.5 20.5z" />
<glyph unicode="Q" horiz-adv-x="1466" d="M1126 725q0 48 -3.5 113t-16.5 134.5t-38.5 136.5t-69.5 120.5t-109.5 86t-157.5 32.5q-87 0 -149.5 -31t-106 -81.5t-70 -116t-41 -134.5t-19.5 -137t-5 -123q0 -47 4 -111.5t17 -133.5t38.5 -136.5t69 -120.5t107.5 -86t155 -33q80 0 139 25l-149 180 q-14 16 -19.5 30.5t-5.5 25.5q0 27 22.5 45t55.5 18q72 0 125 -68l105 -124q122 164 122 489zM1358 725q0 -66 -10.5 -147t-38.5 -163.5t-77.5 -160t-127.5 -137.5l131 -158q12 -15 12 -31q0 -23 -25.5 -39t-62.5 -16q-38 -1 -67.5 15t-55.5 46l-84 99q-99 -33 -221 -33 q-144 0 -246 40t-171 104.5t-110 145t-62 161t-27 153t-6 121.5q0 53 7 127.5t29 155.5t63.5 160.5t110.5 142.5t170 102t242 39t242.5 -39.5t171.5 -103.5t112 -144t64.5 -160.5t29.5 -154.5t7 -125z" />
<glyph unicode="R" horiz-adv-x="1317" d="M205 102v1248q0 57 21 79.5t69 22.5h387q106 0 199.5 -17t163.5 -61.5t111.5 -121t43.5 -195.5q0 -74 -30.5 -140t-80.5 -118t-114.5 -86t-132.5 -45l340 -547q18 -29 18 -53q0 -31 -26.5 -49.5t-77.5 -18.5q-94 0 -140 78l-344 575h-186v-520q0 -72 -30.5 -102.5 t-96.5 -30.5q-94 0 -94 102zM662 1343h-236v-581h219q56 0 114 16.5t104.5 53t76 95t29.5 142.5q0 64 -15 109t-39.5 75.5t-57 48.5t-66.5 27t-67.5 11.5t-61.5 2.5z" />
<glyph unicode="S" horiz-adv-x="1292" d="M987 1079q-61 0 -90 29t-29 98v105q-4 1 -12.5 3.5t-21.5 6.5q-49 14 -101 20.5t-106 6.5q-71 0 -122 -23t-85 -59.5t-50 -81.5t-16 -90q0 -53 12.5 -90t44 -66.5t85 -55.5t135.5 -55q52 -19 84.5 -30.5t58.5 -21.5t52.5 -21t65.5 -27q38 -16 61.5 -27.5t41.5 -22.5 t34 -23t39 -29q48 -37 74.5 -92.5t26.5 -135.5q0 -87 -38.5 -160t-112 -125.5t-180 -82t-242.5 -29.5q-59 0 -130.5 9.5t-136.5 24.5t-115 33.5t-67 37.5q-16 17 -16 61v123q0 98 88 98q60 0 89.5 -30t29.5 -99v-111q130 -43 250 -43q83 0 148.5 22.5t110.5 60.5t69 86.5 t24 101.5q0 54 -23.5 94.5t-76 76t-135.5 70t-201 75.5l-81 33q-25 10 -42.5 18t-32.5 16.5l-30 17t-34 20.5q-41 25 -70 54t-48 64t-28.5 76.5t-12.5 90.5q0 84 33.5 152.5t96.5 117t153 75t204 26.5q172 0 379 -59q25 -8 41 -16t25.5 -18.5t13.5 -25.5t4 -37v-118 q0 -99 -88 -99z" />
<glyph unicode="T" horiz-adv-x="1331" d="M1083 1343h-307v-1220q0 -70 -30 -96.5t-97 -26.5q-94 0 -94 102v1241h-307v-145q0 -72 -29.5 -102.5t-89.5 -30.5q-88 0 -88 102v209q0 45 29.5 60.5t93.5 15.5h1003q64 0 93.5 -15.5t29.5 -60.5v-209q0 -54 -21.5 -78t-66.5 -24q-60 0 -89.5 30.5t-29.5 102.5v145z" />
<glyph unicode="U" horiz-adv-x="1470" d="M412 1294v-845q0 -83 25 -149t71.5 -112t113.5 -70t152 -24q79 0 142.5 27t108.5 75.5t69 115t24 145.5v880q0 60 25.5 87.5t58.5 27.5t55.5 -22t22.5 -70v-840q0 -45 -7 -103.5t-28 -120t-58.5 -120t-98.5 -105t-148 -74.5t-207 -28q-123 0 -211 27t-148 71.5t-96.5 102 t-56 118t-25.5 119.5t-6 107v836q0 57 21 79.5t70 22.5q64 0 97.5 -40t33.5 -118z" />
<glyph unicode="V" horiz-adv-x="1223" d="M643 231l371 1112q11 33 23.5 54.5t27 33.5t31 16.5t34.5 4.5q29 0 46.5 -16t17.5 -39q0 -12 -2.5 -24.5t-7.5 -26.5l-447 -1264q-30 -82 -129 -82q-97 0 -123 74l-440 1257q-8 24 -8 45q0 34 21.5 55t66.5 21q105 0 141 -109l365 -1112h12z" />
<glyph unicode="W" horiz-adv-x="1739" d="M1249 231l269 1112q10 34 22 55.5t26.5 33.5t31 16t34.5 4q27 0 44.5 -16t17.5 -39q0 -24 -11 -51l-342 -1264q-22 -82 -127 -82q-40 0 -75 18t-45 56l-215 985h-5l-237 -977q-21 -82 -127 -82q-42 0 -76.5 18t-44.5 56l-328 1257q-8 24 -8 45q0 33 21.5 54.5t64.5 21.5 q106 0 140 -109l253 -1112h13l243 1092q17 69 41.5 99t69.5 30q78 0 105 -123l233 -1098h12z" />
<glyph unicode="X" horiz-adv-x="1206" d="M637 889l262 454q33 58 64 83.5t67 25.5q25 0 43.5 -13.5t18.5 -35.5q0 -28 -23 -62l-344 -559l403 -659q8 -14 12.5 -27.5t4.5 -29.5q0 -27 -22 -46.5t-58 -19.5q-30 0 -53.5 6t-43 18.5t-36 32.5t-33.5 49l-307 523h-8l-322 -518q-20 -34 -38 -55.5t-34.5 -34 t-32.5 -17t-34 -4.5q-31 0 -46.5 13t-15.5 32q0 26 23 66l410 639l-351 583q-14 21 -14 49t23.5 49t56.5 21q51 0 90 -27.5t70 -81.5l256 -454h12z" />
<glyph unicode="Y" horiz-adv-x="1120" d="M549 0q-96 0 -96 102v447l-404 780q-12 28 -12 51q0 31 20.5 51.5t53.5 20.5q27 0 49 -5t41 -17.5t35.5 -33t31.5 -50.5l326 -644h8l307 641q52 109 125 109q29 0 43.5 -19.5t14.5 -48.5q0 -20 -11 -45l-407 -790v-426q0 -71 -29.5 -97t-95.5 -26z" />
<glyph unicode="Z" horiz-adv-x="1212" d="M1008 0h-834q-46 0 -69 29t-23 71q0 49 16 74l785 1169h-549v-114q0 -72 -29 -102.5t-90 -30.5q-45 0 -66.5 24t-21.5 78v178q0 45 29.5 60.5t93.5 15.5h772q45 0 68.5 -30.5t23.5 -73.5q0 -46 -16 -70l-803 -1169h629v114q0 72 29 102.5t89 30.5q45 0 66.5 -24t21.5 -78 v-178q0 -45 -29 -60.5t-93 -15.5z" />
<glyph unicode="[" horiz-adv-x="692" d="M164 -262v1655q0 102 94 102h328q16 0 25.5 -21.5t9.5 -50.5q0 -27 -9.5 -48t-25.5 -21h-236v-1577h236q16 0 25.5 -21.5t9.5 -50.5q0 -28 -9.5 -49t-25.5 -21h-328q-48 0 -71 24.5t-23 78.5z" />
<glyph unicode="\" horiz-adv-x="1372" d="M1163 -410l-1059 1862q-2 6 -2 12q0 12 11 25.5t26.5 24t33.5 17.5t32 7q20 0 26 -12l1057 -1872q2 -6 2 -10q0 -11 -10.5 -22.5t-25.5 -21t-32.5 -16t-31.5 -6.5q-18 0 -27 12z" />
<glyph unicode="]" horiz-adv-x="692" d="M528 1393v-1655q0 -54 -23 -78.5t-71 -24.5h-328q-16 0 -25 21t-9 49q0 30 9 51t25 21h236v1577h-236q-16 0 -25 21t-9 48q0 30 9 51t25 21h328q48 0 71 -24t23 -78z" />
<glyph unicode="^" horiz-adv-x="1044" d="M522 1217l-162 -189q-18 -21 -53.5 -33t-73.5 -12q-32 0 -54.5 9t-22.5 22q0 5 6 14l293 346q27 35 65 35q36 0 68 -35l293 -346q6 -9 6 -14q0 -14 -23.5 -23.5t-54.5 -9.5q-39 0 -75 12.5t-54 34.5z" />
<glyph unicode="_" horiz-adv-x="1202" d="M1202 -446h-1202h-3q-19 0 -28.5 25t-9.5 56t9.5 56.5t28.5 25.5h3h1202q20 0 30 -25t10 -57q0 -33 -10 -57t-30 -24z" />
<glyph unicode="`" horiz-adv-x="1239" d="M494 1200l-201 266q-6 6 -6 19q0 21 29.5 35t80.5 14q40 0 73 -13.5t44 -39.5l107 -256q4 -7 4 -19q0 -18 -16 -28.5t-40 -10.5q-50 0 -75 33z" />
<glyph unicode="a" horiz-adv-x="1118" d="M764 193l-6 2q-67 -102 -154 -148.5t-207 -46.5q-76 0 -134 19.5t-97 55.5t-58.5 87t-19.5 114q0 66 22.5 130.5t80.5 115.5t158 82t255 31h150v57q0 70 -12 118.5t-36.5 78.5t-63.5 43.5t-93 13.5q-102 0 -180 -86q-66 -72 -125 -72q-35 0 -53.5 20t-18.5 50 q0 39 37 70.5t96.5 53.5t134 34t150.5 12q111 0 184 -23t116.5 -69t61 -115.5t17.5 -163.5v-561q0 -49 -17 -72.5t-63 -23.5q-67 0 -96 45.5t-29 147.5zM756 549h-119q-336 0 -336 -244q0 -168 178 -168q39 0 87 15t90.5 45t71 75t28.5 105v172z" />
<glyph unicode="b" horiz-adv-x="1159" d="M377 1389v-549h4q104 188 319 188q70 0 133 -19t111 -70t77 -141.5t30 -232.5q0 -137 -33.5 -242.5t-96.5 -177t-153.5 -108.5t-204.5 -37q-141 0 -264 47q-32 12 -57 26.5t-42 35.5t-26.5 49t-9.5 67v1235q0 51 17 73.5t65 22.5q69 0 100 -38.5t31 -128.5zM375 659v-469 q0 -22 13 -41.5t37 -34.5t59 -23.5t79 -8.5q266 0 266 467q0 108 -16.5 175t-45 104t-67 50t-82.5 13q-40 0 -83 -20.5t-78.5 -53.5t-58.5 -74.5t-23 -83.5z" />
<glyph unicode="c" horiz-adv-x="1004" d="M864 258q23 23 51 23q18 0 33 -12t15 -31q0 -37 -27 -70q-137 -168 -371 -168q-127 0 -215.5 38t-143.5 106.5t-79.5 162.5t-24.5 205q0 142 37.5 240.5t103.5 159.5t154.5 88.5t190.5 27.5q70 0 134 -18t112.5 -48.5t77 -70t28.5 -82.5q0 -18 -7.5 -33t-19.5 -25.5 t-27.5 -16t-31.5 -5.5q-45 0 -71 21.5t-40 64.5q-11 30 -24 54t-32 41.5t-44 26.5t-59 9q-63 0 -111.5 -20.5t-81.5 -70.5t-50 -133.5t-17 -209.5q0 -105 14 -184.5t45.5 -132t82 -79t122.5 -26.5q48 0 85 10.5t66 29.5t52.5 43.5t46.5 52.5z" />
<glyph unicode="d" horiz-adv-x="1153" d="M590 1028q99 0 186 -35v396q0 90 31 128.5t100 38.5q48 0 65 -22.5t17 -73.5v-1364q0 -50 -16.5 -73t-63.5 -23q-125 0 -125 213l-6 2q-27 -44 -58 -83t-70 -68.5t-87.5 -46.5t-109.5 -17q-66 0 -129 23t-112.5 78t-79.5 144.5t-30 223.5q0 143 32.5 248t95 174t153 103 t207.5 34zM324 485q0 -93 15.5 -159t43 -108t66.5 -61.5t86 -19.5q42 0 85 24t78 61.5t57.5 84t22.5 90.5v428q0 22 -13.5 44t-38 39t-59.5 27.5t-77 10.5q-60 0 -109 -20.5t-84 -73t-54 -141.5t-19 -226z" />
<glyph unicode="e" horiz-adv-x="1075" d="M891 258q9 11 22.5 17t28.5 6q18 0 32.5 -12t14.5 -31q0 -38 -26 -70q-137 -168 -377 -168q-120 0 -211 33.5t-151.5 97t-91 154t-30.5 204.5q0 265 122.5 402t357.5 137q93 0 168.5 -27t129.5 -79.5t83.5 -129.5t29.5 -176q0 -100 -116 -100h-551q-1 -8 -1.5 -19.5 t-0.5 -25.5q0 -88 17 -158.5t52 -120t88.5 -76t126.5 -26.5q60 0 103 15.5t73.5 38t51.5 47.5t36 43zM569 946q-99 0 -161.5 -83.5t-75.5 -260.5h383q36 0 52.5 13t16.5 47q0 69 -17.5 122t-47 89t-68.5 54.5t-82 18.5z" />
<glyph unicode="f" horiz-adv-x="723" d="M49 954q0 52 64 56h116q4 99 19.5 171.5t38 125t51 88t57.5 59.5q124 102 297 102q44 0 81 -9.5t63.5 -25t41.5 -35.5t15 -42q0 -33 -21.5 -52.5t-60.5 -19.5q-43 0 -92 60q-18 22 -43.5 32.5t-54.5 10.5q-34 0 -66.5 -13t-58 -46t-41 -89.5t-15.5 -142.5v-174h228 q36 0 53.5 -13t17.5 -32q0 -22 -19.5 -38t-51.5 -16h-228v-772q0 -44 -7 -71t-22.5 -42t-40.5 -20.5t-61 -5.5q-46 0 -64 23.5t-18 72.5v815h-112q-66 0 -66 43z" />
<glyph unicode="g" horiz-adv-x="1163" d="M539 -369q69 0 127 21t101 55.5t67 79t24 90.5q0 54 -29 88t-77 54.5t-109.5 31t-126 17.5t-127 13.5t-112.5 19.5q-78 20 -124.5 60.5t-46.5 100.5q0 27 10.5 48t30 38t47.5 32t63 30q37 16 62 28.5t39 22.5v6q-38 15 -66.5 41t-47.5 58.5t-28 68t-9 70.5q0 88 35 149.5 t92.5 100t131.5 56t152 17.5q30 0 65.5 -4t70.5 -12.5t66.5 -20t53.5 -26.5q11 5 16 18.5t8 31.5t7 37.5t13.5 36t28 27t50.5 10.5q29 0 50.5 -25.5t21.5 -60.5q0 -66 -117 -135q76 -82 76 -188q0 -69 -33 -126t-89 -97.5t-130 -63t-155 -22.5q-106 0 -164 18 q-23 -17 -44 -29.5t-37 -24.5t-26 -26t-10 -35q0 -14 9 -27t33.5 -24.5t69 -19.5t115.5 -11q126 -6 220 -29.5t157 -61.5t94 -89t31 -112q0 -84 -42 -155.5t-118.5 -123t-184.5 -80.5t-241 -29q-84 0 -152 19t-116.5 52.5t-75 79.5t-26.5 101q0 49 21 87.5t49.5 65.5 t59 41.5t50.5 14.5q22 0 34.5 -12t12.5 -29q0 -8 -10.5 -20t-23.5 -31t-23.5 -44t-10.5 -58q0 -42 20.5 -76t56.5 -58.5t85 -37.5t105 -13zM817 721q0 50 -13.5 91.5t-39 71t-62.5 46t-84 16.5q-93 0 -146.5 -62t-53.5 -171q0 -51 13.5 -92t39 -70.5t62.5 -45.5t85 -16 q45 0 82 17t63 48t40 73.5t14 93.5z" />
<glyph unicode="h" horiz-adv-x="1188" d="M377 1389v-570h4q28 46 65 84t81.5 66t96.5 43.5t111 15.5q289 0 289 -309v-623q0 -49 -17 -72.5t-65 -23.5q-69 0 -100 38.5t-31 129.5v512q0 211 -174 211q-39 0 -84.5 -20t-84.5 -54.5t-65 -81t-26 -100.5v-490q0 -44 -7 -72t-22.5 -44t-40.5 -22.5t-61 -6.5 q-48 0 -65 23.5t-17 72.5v1364q0 51 17 73.5t65 22.5q69 0 100 -38.5t31 -128.5z" />
<glyph unicode="i" horiz-adv-x="561" d="M387 889v-750q0 -44 -7 -71t-22.5 -42t-40.5 -20.5t-61 -5.5q-48 0 -65 23.5t-17 72.5v836q0 49 17 72.5t65 23.5q67 0 99 -33.5t32 -105.5zM187 1198q-37 37 -37 90q0 25 10 48.5t27 40.5t40 27.5t49 10.5q25 0 48.5 -10.5t40.5 -27.5t27.5 -40.5t10.5 -48.5 q0 -26 -10 -49t-27.5 -40.5t-40.5 -27.5t-49 -10q-52 0 -89 37z" />
<glyph unicode="j" horiz-adv-x="561" d="M174 932q0 49 17 72.5t65 23.5q67 0 99 -33.5t32 -105.5v-641q0 -110 -20.5 -212t-57 -189t-86.5 -155t-108 -108q-50 -35 -88 -35q-26 0 -44 11t-18 32q0 19 6 32t18 24t31.5 23t46.5 30q28 17 48.5 43t33.5 70.5t19 111t6 164.5v842zM187 1198q-37 37 -37 90 q0 25 10 48.5t27 40.5t40 27.5t49 10.5q25 0 48.5 -10.5t40.5 -27.5t27.5 -40.5t10.5 -48.5q0 -26 -10 -49t-27.5 -40.5t-40.5 -27.5t-49 -10q-52 0 -89 37z" />
<glyph unicode="k" horiz-adv-x="1051" d="M377 1389v-818l341 313q41 37 72.5 64.5t58 45t50 26t49.5 8.5q60 0 60 -55q0 -17 -7 -30t-23 -27t-42 -31.5t-64 -41.5l-69 -44q-20 -13 -37.5 -25.5t-37 -27.5t-42 -33.5t-52.5 -42.5l-85 -70q21 -25 58 -68t81 -94.5t90.5 -106t86.5 -101.5t69.5 -81t38.5 -45 q37 -44 37 -65q0 -8 -3 -15t-13 -12.5t-30 -8.5t-53 -3q-34 0 -57 3.5t-40.5 11t-30.5 19.5t-27 29q3 -4 -17.5 20.5t-54 65.5t-75.5 92.5t-82.5 101.5t-75 92t-52.5 63l-22 -25v-328q0 -44 -7 -72t-22.5 -44t-40.5 -22.5t-61 -6.5q-48 0 -65 23.5t-17 72.5v1364 q0 51 17 73.5t65 22.5q69 0 100 -38.5t31 -128.5z" />
<glyph unicode="l" horiz-adv-x="561" d="M387 1389v-1250q0 -44 -7 -71t-22.5 -42t-40.5 -20.5t-61 -5.5q-48 0 -65 23.5t-17 72.5v1364q0 51 17 73.5t65 22.5q69 0 100 -38.5t31 -128.5z" />
<glyph unicode="m" horiz-adv-x="1698" d="M1323 168v512q0 116 -37 163.5t-112 47.5q-38 0 -77 -22t-70.5 -58t-52 -82t-20.5 -94v-490q0 -44 -7 -72.5t-22.5 -44.5t-40 -22t-59.5 -6q-46 0 -64 23.5t-18 72.5v584q0 116 -37 163.5t-112 47.5q-39 0 -78 -19.5t-70.5 -52t-51 -75t-19.5 -89.5v-510q0 -44 -7 -72 t-22 -44.5t-39.5 -22.5t-60.5 -6q-48 0 -65 23.5t-17 72.5v844q0 49 20 68.5t68 19.5q119 0 119 -176v-14h4q24 39 52 74t65 60.5t85.5 40.5t114.5 15q220 0 254 -211h4q28 45 59.5 84t70 67t85.5 44t107 16q262 0 262 -309v-623q0 -49 -17 -72.5t-65 -23.5q-69 0 -99 38.5 t-30 129.5z" />
<glyph unicode="n" horiz-adv-x="1188" d="M164 96v844q0 49 20 68.5t68 19.5q57 0 89 -44t32 -132v-14h4q54 87 144.5 138.5t213.5 51.5q289 0 289 -309v-623q0 -49 -17 -72.5t-65 -23.5q-69 0 -100 38.5t-31 129.5v512q0 211 -174 211q-45 0 -91 -19t-83.5 -51.5t-61.5 -75.5t-24 -90v-510q0 -44 -7 -72 t-22.5 -44t-40.5 -22.5t-61 -6.5q-48 0 -65 23.5t-17 72.5z" />
<glyph unicode="o" horiz-adv-x="1143" d="M571 0q-111 0 -198.5 32t-147.5 96.5t-91.5 160.5t-31.5 225q0 130 33 227t94 160.5t147.5 95t194.5 31.5q109 0 196 -31.5t148 -95.5t93 -160.5t32 -226.5q0 -129 -31 -225t-91 -160.5t-147.5 -96.5t-199.5 -32zM571 82q55 0 100.5 18.5t78.5 66.5t51 132t18 215 q0 127 -18.5 210.5t-51.5 133t-78.5 69t-99.5 19.5q-52 0 -97 -19.5t-78.5 -69t-52.5 -133t-19 -210.5q0 -126 17 -209.5t49.5 -133t78 -69.5t102.5 -20z" />
<glyph unicode="p" horiz-adv-x="1159" d="M164 -354v1294q0 88 80 88q66 0 97 -41.5t32 -134.5v-16h2q27 45 59.5 81t71.5 60.5t87 37.5t107 13q351 0 351 -463q0 -141 -33.5 -246.5t-96.5 -176.5t-153.5 -106.5t-204.5 -35.5q-104 0 -186 39v-344q0 -44 -7 -72.5t-22.5 -45t-40.5 -22.5t-61 -6q-48 0 -65 23 t-17 74zM829 549q0 102 -15.5 168t-43.5 104.5t-67 54t-85 15.5q-42 0 -85 -21t-78 -54.5t-57.5 -76.5t-22.5 -88v-444q0 -23 13 -45.5t37.5 -40t59.5 -28.5t78 -11q60 0 109.5 23t84 77.5t53.5 144t19 222.5z" />
<glyph unicode="q" horiz-adv-x="1153" d="M989 803v-1147q0 -51 -17 -73.5t-65 -22.5q-35 0 -60 6t-41 21.5t-23 44t-7 73.5v483h-4q-104 -188 -319 -188q-351 0 -351 463q0 143 33 249t95.5 176.5t153 105t206.5 34.5q51 0 104 -7t102 -20.5t90 -34t67 -47.5q36 -38 36 -116zM778 369v469q0 22 -13 41.5t-37 34.5 t-59 23.5t-79 8.5q-60 0 -109 -21.5t-84 -75t-54 -143.5t-19 -227q0 -102 15.5 -168t43.5 -104.5t67 -54t85 -15.5q40 0 83 20.5t78.5 53.5t58.5 74.5t23 83.5z" />
<glyph unicode="r" horiz-adv-x="809" d="M827 940q0 -80 -79 -80h-68q-80 0 -137.5 -22t-94.5 -58t-54 -82t-17 -94v-459q0 -44 -7 -72t-22.5 -44t-40.5 -22.5t-61 -6.5q-48 0 -65 23.5t-17 72.5v844q0 49 20 68.5t68 19.5q57 0 89 -44t32 -132v-51h4q18 30 46 69t68 74.5t93.5 59.5t122.5 24h24q51 0 72.5 -21.5 t23.5 -66.5z" />
<glyph unicode="s" horiz-adv-x="1012" d="M715 250q-5 62 -40.5 100.5t-111.5 69.5l-117 43l-79 27q-51 19 -96.5 40.5t-80 51.5t-55 72t-20.5 102q0 58 20 101t53 73.5t74 49.5t83.5 29.5t81.5 14.5t67 4q90 0 159.5 -15.5t117.5 -41.5t72.5 -60t24.5 -71q0 -33 -24 -53.5t-56 -20.5q-39 0 -66 18.5t-44 55.5 q-51 106 -182 106q-81 0 -129.5 -40t-48.5 -121q0 -27 11.5 -48.5t29 -39t39.5 -31t44 -22.5l57 -24l68 -24q28 -10 55 -18.5t53.5 -18.5t52 -22.5t51.5 -28.5q29 -17 55 -37t46 -44t32 -54t12 -68q0 -68 -31 -124.5t-87 -96.5t-134 -62t-172 -22q-75 0 -146.5 13.5 t-128 39.5t-91 63t-34.5 85q0 16 7 30t18 24t25.5 15.5t29.5 5.5q79 0 113 -73q10 -21 24.5 -42.5t38.5 -39t59.5 -28.5t88.5 -11q45 0 83.5 10t67 31t44.5 52.5t16 74.5z" />
<glyph unicode="t" horiz-adv-x="872" d="M436 1174v-146h228q36 0 53.5 -13t17.5 -32q0 -21 -19.5 -37t-51.5 -16h-228v-654q0 -48 10 -83.5t26.5 -58t39 -33.5t47.5 -11q40 0 67.5 14.5t46.5 35.5t32.5 46.5t26.5 46.5t28.5 35.5t38.5 14.5q24 0 38.5 -13.5t14.5 -36.5q0 -16 -10 -40t-21 -37 q-52 -78 -126.5 -117t-159.5 -39q-91 0 -151 23.5t-96 66t-50.5 102.5t-14.5 132v606h-112q-36 0 -51 10t-15 33q0 21 24.5 34t62 33t81.5 56t83 103q14 24 23.5 40.5t18.5 27t19 15t24 4.5q35 0 45 -24.5t10 -87.5z" />
<glyph unicode="u" horiz-adv-x="1188" d="M377 860v-512q0 -211 174 -211q45 0 91 19t83.5 51.5t61.5 75t24 90.5v508q0 46 7.5 74.5t23 44.5t40.5 22t60 6q48 0 65 -23.5t17 -72.5v-844q0 -48 -20 -68t-68 -20q-121 0 -121 176v14h-4q-54 -87 -145.5 -138.5t-212.5 -51.5q-289 0 -289 309v623q0 49 17 72.5 t65 23.5q69 0 100 -38.5t31 -129.5z" />
<glyph unicode="v" horiz-adv-x="1049" d="M922 1028q65 0 65 -47q0 -34 -10 -55l-342 -875q-20 -51 -119 -51q-89 0 -108 51l-336 875q-11 24 -11 47q0 55 76 55q54 0 98 -33.5t70 -103.5l248 -690h10l139 370q46 123 105 330q17 61 41 94t74 33z" />
<glyph unicode="w" horiz-adv-x="1573" d="M819 1028q26 0 43.5 -7.5t30.5 -28.5t25 -58.5t28 -97.5l166 -635h10l95 276q16 46 33 110t33 127t28 113.5t18 69.5q9 28 18.5 52t23 41.5t31.5 27.5t44 10q65 0 65 -47q0 -34 -10 -55l-307 -875q-18 -51 -119 -51q-89 0 -108 51l-176 639h-13l-217 -639 q-18 -51 -119 -51q-89 0 -108 51l-262 875q-11 24 -11 47q0 55 76 55q27 0 53.5 -8t49 -25t40 -43t25.5 -61l174 -690h10l95 278q16 46 33 107.5t39 140.5l46 168q13 41 24 67t23.5 40.5t29 20t40.5 5.5z" />
<glyph unicode="x" horiz-adv-x="989" d="M98 102l299 398l-260 399q-15 22 -21.5 42.5t-6.5 37.5q0 25 19.5 37t45.5 12q62 0 99.5 -24.5t68.5 -77.5l178 -297h8l205 332q24 39 49.5 53t67.5 14q51 0 51 -39q0 -26 -22 -63l-273 -379l287 -434q25 -41 25 -60q0 -53 -76 -53q-34 0 -57.5 6t-41.5 18t-32.5 30.5 t-30.5 43.5l-199 310h-4l-231 -349q-22 -33 -47.5 -46t-71.5 -13q-55 0 -55 41q0 27 26 61z" />
<glyph unicode="y" horiz-adv-x="1049" d="M977 926l-354 -910q-20 -50 -43.5 -104.5t-52.5 -106t-63.5 -98t-74.5 -82t-86.5 -56t-99.5 -20.5q-42 0 -70.5 21.5t-28.5 52.5q0 92 111 92q57 0 97 16t69.5 48.5t52 83t43.5 119.5l-405 944q-5 11 -8 22t-3 25q0 55 76 55q51 0 95.5 -33.5t72.5 -103.5l268 -670h11 l123 359q16 46 40 125t56 194q16 60 42 94.5t77 34.5q65 0 65 -47q0 -26 -10 -55z" />
<glyph unicode="z" horiz-adv-x="971" d="M170 1028h664q39 0 57 -18t18 -41q0 -27 -8 -49t-22 -41l-590 -783h418v49q0 42 5.5 67.5t18.5 39.5t34.5 19t53.5 5q43 0 59.5 -20.5t16.5 -65.5v-127q0 -63 -66 -63h-690q-42 0 -60 17.5t-18 41.5q0 47 31 91l586 782h-385v-49q0 -40 -5 -65.5t-18 -40t-35 -20 t-55 -5.5q-42 0 -59 20.5t-17 65.5v127q0 63 66 63z" />
<glyph unicode="{" horiz-adv-x="827" d="M362 -4q0 26 1 57t2.5 62t2.5 58t1 44q0 43 -9 95t-29.5 98t-53 77t-80.5 31q-16 0 -24.5 17t-8.5 40q0 24 8.5 41t24.5 17q48 0 81 31.5t53 77t29 98t9 94.5q0 17 -1 44t-2.5 58t-2.5 62t-1 57q0 29 4 67t16.5 78t34.5 78.5t58 69t87 49.5t122 19q30 0 45.5 -14.5 t15.5 -37.5q0 -21 -13.5 -38t-37.5 -23q-139 -33 -139 -180q0 -6 0.5 -28t2 -52t2.5 -63.5t2.5 -62t2 -48.5t0.5 -23q0 -64 -7.5 -120.5t-28.5 -103t-57.5 -82.5t-94.5 -60v-9q57 -23 93.5 -58.5t57.5 -81.5t29 -103t8 -123q0 -3 -0.5 -22.5t-2 -48.5t-2.5 -62.5t-2.5 -63 t-2 -52t-0.5 -28.5q0 -147 139 -180q24 -6 37.5 -23t13.5 -38q0 -23 -15.5 -37.5t-45.5 -14.5q-70 0 -121 18.5t-86.5 49t-58 69t-35 78.5t-17 78t-4.5 68z" />
<glyph unicode="|" horiz-adv-x="537" d="M184 -72v1536q0 24 25 38t59 14q33 0 58.5 -14.5t25.5 -37.5v-1536q0 -24 -25 -37.5t-59 -13.5q-35 0 -59.5 13.5t-24.5 37.5z" />
<glyph unicode="}" horiz-adv-x="827" d="M465 -4q0 -29 -4.5 -67t-16.5 -78t-34 -78.5t-58 -69t-87.5 -49.5t-121.5 -19q-30 0 -45.5 14.5t-15.5 37.5q0 21 13.5 38t37.5 23q139 33 139 180q0 6 -0.5 28.5t-2 52t-2.5 63t-2.5 62.5t-2 48.5t-0.5 22.5q0 67 8.5 124t30 103t58 81t92.5 58v9q-58 24 -94.5 59.5 t-57.5 82t-29 103t-8 121.5q0 3 0.5 23t2 48.5t2.5 62t2.5 63.5t2 52t0.5 28q0 147 -139 180q-24 6 -37.5 23t-13.5 38q0 23 15.5 37.5t45.5 14.5q69 0 120 -18.5t87 -49t58.5 -69t35 -78.5t17 -78.5t4.5 -67.5q0 -26 -1 -57l-2 -62t-2 -58t-1 -44q0 -29 4 -62t12 -66.5 t21.5 -64.5t32.5 -55t44.5 -38.5t57.5 -14.5q16 0 24.5 -17t8.5 -41q0 -23 -8.5 -40t-24.5 -17q-32 0 -57 -14t-44 -38t-32.5 -55t-22 -64.5t-12.5 -67t-4 -62.5q0 -17 1 -44t2 -58l2 -62t1 -57z" />
<glyph unicode="~" horiz-adv-x="1497" d="M1153 850q24 53 90 53q32 0 51 -15t19 -36q0 -17 -6 -33q-36 -91 -77.5 -144.5t-85 -81.5t-86.5 -36t-81 -8q-73 0 -140 25t-125 55t-106 55t-84 25q-66 0 -106.5 -32t-71.5 -104q-5 -12 -15 -21t-23 -16t-27 -10.5t-27 -3.5q-68 0 -68 53q0 14 9 46q17 61 49 107.5 t74 78t92 47.5t104 16t105.5 -15t99.5 -36t91 -44t80 -39q59 -25 101 -25q55 0 92.5 32.5t71.5 106.5z" />
<glyph unicode="&#xa1;" horiz-adv-x="631" d="M209 104v887q0 16 9 28t24.5 20.5t35.5 12.5t42 4q20 0 39 -4t34 -11.5t24 -19t9 -26.5v-4v-889q0 -102 -102 -102q-61 0 -88 26t-27 78zM459 1311q0 -29 -11.5 -55t-31 -45.5t-45.5 -31.5t-54 -12q-29 0 -55 11.5t-45.5 31t-31 46t-11.5 55.5q0 28 12 53.5t31.5 45 t45.5 31t54 11.5t54 -12t45.5 -31.5t31 -45t11.5 -52.5z" />
<glyph unicode="&#xa2;" d="M885 258q9 11 22.5 17t28.5 6q18 0 32.5 -12t14.5 -31q0 -20 -7 -36.5t-20 -33.5q-122 -153 -313 -166v-180v-2q0 -16 -20.5 -23.5t-44.5 -7.5q-27 0 -46.5 8t-19.5 25v182q-103 10 -176.5 50t-121 105.5t-69.5 154.5t-22 198q0 119 27.5 209t78 152.5t122.5 99t161 49.5 v158q0 16 20 23.5t46 7.5t45.5 -7.5t19.5 -23.5v-154q61 -3 118 -22t101.5 -49t71.5 -67.5t27 -78.5q0 -18 -7.5 -33t-20 -25.5t-28 -16t-31.5 -5.5q-46 0 -70.5 21.5t-39.5 64.5q-16 45 -43 80.5t-78 46.5v-850q67 8 112.5 35.5t76.5 65.5l29 35zM344 512q0 -172 39 -273.5 t129 -134.5v828q-43 -14 -74.5 -45t-52.5 -82t-31 -123.5t-10 -169.5z" />
<glyph unicode="&#xa3;" d="M84 807h113v158q0 126 32 218t91.5 152t144.5 88.5t192 28.5q19 0 46.5 -2t59 -6.5t64.5 -11t62 -15t51.5 -19.5t33.5 -24q17 -20 17 -65v-113q0 -54 -21.5 -78t-66.5 -24q-60 0 -86 30t-26 103v104q-42 8 -75 12.5t-59 4.5q-245 0 -245 -338v-203h370q20 0 31.5 -17 t11.5 -40q0 -22 -11.5 -39t-31.5 -17h-370v-585h432v131q0 72 29.5 102.5t89.5 30.5q45 0 63 -24t18 -79v-204q0 -36 -29.5 -51t-92.5 -15h-811q-39 0 -39 53q0 56 39 56h86v585h-113q-20 0 -31.5 17t-11.5 39q0 23 11.5 40t31.5 17z" />
<glyph unicode="&#xa4;" d="M811 1079l139 140q10 10 25 10q14 0 30 -9t30 -23t23 -30t9 -30q0 -15 -10 -25l-137 -137q86 -125 86 -270q0 -148 -88 -269l137 -137q10 -10 10 -27q0 -14 -8.5 -29.5t-22 -29t-29 -22.5t-30.5 -9q-19 0 -27 11l-137 137q-133 -88 -268 -88q-137 0 -271 86l-137 -138 q-10 -10 -24 -10t-30.5 9t-30.5 22.5t-23 30t-9 30.5t11 25l137 137q-84 121 -84 271q0 142 84 270l-135 135q-11 8 -11 27q0 14 9 30t22.5 29.5t29.5 22t30 8.5q16 0 26 -10l137 -138q131 86 269 86q137 0 268 -86zM543 1020q-64 0 -121.5 -25.5t-100.5 -68.5t-68.5 -100.5 t-25.5 -120.5q0 -65 25 -122.5t68.5 -101t100.5 -69t122 -25.5q66 0 124 25t100.5 68.5t67.5 101t25 123.5q0 64 -25.5 121t-68.5 100t-101 68.5t-122 25.5z" />
<glyph unicode="&#xa5;" d="M152 430h282v119h-282q-20 0 -31.5 16.5t-11.5 38.5q0 24 11.5 41t31.5 17h227l-330 667q-12 28 -12 51q0 31 20 51.5t52 20.5q51 0 85.5 -22.5t63.5 -83.5l311 -644h9l296 641q49 109 119 109q28 0 42 -19.5t14 -48.5q-1 -11 -3 -22t-8 -23l-336 -677h234q20 0 31.5 -17 t11.5 -41q0 -22 -11.5 -38.5t-31.5 -16.5h-289v-119h289q20 0 31.5 -17t11.5 -40q0 -22 -11.5 -39t-31.5 -17h-289v-194q0 -71 -28.5 -97t-92.5 -26q-92 0 -92 102v215h-282q-20 0 -31.5 17t-11.5 39q0 23 11.5 40t31.5 17z" />
<glyph unicode="&#xa6;" horiz-adv-x="537" d="M184 879v585q0 24 25 38t59 14q33 0 58.5 -14.5t25.5 -37.5v-585q0 -25 -25 -38.5t-59 -13.5q-35 0 -59.5 13.5t-24.5 38.5zM184 -72v586q0 24 25 37.5t59 13.5q33 0 58.5 -14t25.5 -37v-586q0 -24 -25 -37.5t-59 -13.5q-35 0 -59.5 13.5t-24.5 37.5z" />
<glyph unicode="&#xa7;" horiz-adv-x="1176" d="M311 8q57 0 85 -29t28 -98v-106q45 -13 125 -13q34 0 61.5 12t46.5 33t29 50.5t10 64.5q0 36 -11 68t-30 60.5t-44.5 52.5t-53.5 44l-113 78q-71 50 -123.5 93t-87 85.5t-52 88t-17.5 100.5q0 45 10.5 85t35 80t63.5 83t96 94q-97 94 -97 240q0 53 18.5 103t59.5 89 t108 62.5t163 23.5q48 0 105 -5.5t106 -21t81.5 -42t32.5 -68.5v-115q0 -52 -19.5 -75t-64.5 -23q-57 0 -83.5 29t-26.5 98v106q-45 13 -129 13q-72 0 -108 -37t-36 -109q0 -86 61 -159l39 -43q6 -7 20.5 -19t30 -25t30 -24.5t21.5 -15.5l58 -42q62 -45 112.5 -83.5t86 -78 t55 -83.5t19.5 -101q0 -95 -55 -179t-160 -173q17 -19 35 -40.5t33 -49t24.5 -61t9.5 -76.5q0 -54 -21.5 -106t-65 -93.5t-109 -66.5t-154.5 -25q-47 0 -102.5 5.5t-104 21t-81 42t-32.5 68.5v115q0 52 19.5 75t62.5 23zM455 848q-123 -93 -123 -219q0 -48 29.5 -90.5 t81.5 -85.5t122.5 -90.5t151.5 -104.5q129 112 129 209q0 29 -14 57.5t-38.5 56.5t-58.5 56t-73 57l-107 77q-31 22 -55.5 41t-44.5 36z" />
<glyph unicode="&#xa8;" horiz-adv-x="1118" d="M233 1286q0 25 10 48t27.5 40t40 27t47.5 10t47.5 -10t40 -27.5t27.5 -40t10 -47.5t-10 -47.5t-27 -40t-40 -27.5t-48 -10t-47.5 10t-40 27.5t-27.5 40t-10 47.5zM635 1286q0 25 10 47.5t27.5 40t40 27.5t47.5 10t47.5 -10.5t39.5 -27.5t27.5 -39.5t10.5 -47.5 t-10.5 -47.5t-27.5 -40t-39.5 -27.5t-47.5 -10q-26 0 -48.5 10t-39.5 27.5t-27 40t-10 47.5z" />
<glyph unicode="&#xa9;" horiz-adv-x="1720" d="M282 973q-49 -119 -49 -246q0 -88 22.5 -170t64 -153t99 -129t127 -99.5t149.5 -64.5t165 -23q89 0 170 24t150.5 67t126.5 102.5t97 130.5t61.5 151t21.5 164q0 87 -22.5 168t-63.5 152t-98 129.5t-127 101t-150 65.5t-166 23q-99 0 -188 -29.5t-164 -82t-132.5 -124.5 t-93.5 -157zM1071 879q-100 0 -100 94v74q-27 8 -53 8q-207 0 -207 -332q0 -320 200 -320q26 0 60 9.5t65.5 21.5t55 21.5t28.5 9.5q22 0 35.5 -12t13.5 -29t-13.5 -31.5t-36 -26.5t-51 -20.5t-58.5 -14.5t-59.5 -9t-53.5 -3q-194 0 -291.5 103.5t-97.5 302.5q0 113 30 191 t83 126t125.5 69.5t156.5 21.5q40 0 84 -5t81.5 -16t62 -29t24.5 -45v-82q0 -77 -84 -77zM860 1473q101 0 196.5 -25.5t180 -72.5t154.5 -114t120.5 -149.5t78.5 -180t28 -204.5q0 -100 -26 -194t-74 -177t-116 -151.5t-152 -118t-182.5 -77t-207.5 -27.5q-104 0 -200.5 26 t-181 74t-153.5 115.5t-118.5 150.5t-77 179t-27.5 200q0 105 27.5 201t77.5 179t119.5 150.5t153.5 115.5t180.5 74t199.5 26z" />
<glyph unicode="&#xaa;" horiz-adv-x="844" d="M657 713q-48 0 -71 27.5t-29 84.5q-94 -112 -248 -112q-117 0 -177 56t-60 149q0 253 383 253h96v35q0 94 -32.5 134t-102.5 40q-52 0 -117 -59q-48 -51 -100 -51q-68 0 -68 53q0 29 27 52.5t71 40.5t100 26.5t115 9.5q83 0 138 -16.5t88 -50t47 -84.5t14 -119v-394 q0 -40 -15 -57.5t-59 -17.5zM551 1098h-72q-227 0 -227 -164q0 -115 115 -115q28 0 60.5 11.5t60 33t45.5 52.5t18 69v113z" />
<glyph unicode="&#xab;" horiz-adv-x="1130" d="M676 879l-305 -398l305 -389q10 -13 10 -26q0 -12 -8 -23.5t-20 -21t-26.5 -15.5t-27.5 -6q-21 0 -31 12l-413 428q-17 17 -17 41t17 41l413 436q13 13 31 13q13 0 27.5 -5.5t26.5 -14.5t20 -21t8 -25t-10 -26zM981 776l-207 -313l207 -299q6 -9 6 -19q0 -12 -8 -23 t-21 -19t-28 -12.5t-29 -4.5q-15 0 -20 8l-291 324q-19 20 -19 45t19 47l291 336q8 8 20 8q13 0 28 -4.5t28 -13t21.5 -19t8.5 -22.5q0 -10 -6 -19z" />
<glyph unicode="&#xac;" horiz-adv-x="1577" d="M162 805h1186q31 0 48 -21t17 -49v-405q0 -20 -25 -30.5t-59 -10.5q-35 0 -59.5 10.5t-24.5 30.5v321h-1083q-19 0 -29 22.5t-10 53.5q0 32 10 55t29 23z" />
<glyph unicode="&#xad;" horiz-adv-x="895" d="M752 440h-609h-3q-19 0 -28.5 25.5t-9.5 56.5t9.5 56.5t28.5 25.5h3h609q20 0 30 -25t10 -57t-10 -57t-30 -25z" />
<glyph unicode="&#xae;" horiz-adv-x="1720" d="M860 1473q101 0 196.5 -25.5t180 -72.5t154.5 -114t120.5 -149.5t78.5 -180t28 -204.5q0 -100 -26 -194t-74 -177t-116 -151.5t-152 -118t-182.5 -77t-207.5 -27.5q-104 0 -200.5 26t-181 74t-153.5 115.5t-118.5 150.5t-77 179t-27.5 200q0 105 27.5 201t77.5 179 t119.5 150.5t153.5 115.5t180.5 74t199.5 26zM282 973q-49 -119 -49 -246q0 -88 22.5 -170t64 -153t99 -129t127 -99.5t149.5 -64.5t165 -23q89 0 170 24t150.5 67t126.5 102.5t97 130.5t61.5 151t21.5 164q0 87 -22.5 168t-63.5 152t-98 129.5t-127 101t-150 65.5t-166 23 q-99 0 -188 -29.5t-164 -82t-132.5 -124.5t-93.5 -157zM571 385v682q0 36 18.5 51t63.5 15h217q320 0 320 -228q0 -39 -16 -75t-43.5 -64.5t-63 -48t-74.5 -27.5l181 -289q14 -30 14 -39q0 -43 -90 -43q-74 0 -105 48l-188 309h-43v-273q0 -46 -25.5 -65t-79.5 -19 q-86 0 -86 66zM858 1055h-96v-299h88q28 0 54 9t46.5 28t32.5 48t12 70q0 144 -137 144z" />
<glyph unicode="&#xaf;" horiz-adv-x="1130" d="M823 1207h-516q-20 0 -30.5 20t-10.5 54t10.5 58t30.5 24h516q19 0 30 -24.5t11 -57.5t-11 -53.5t-30 -20.5z" />
<glyph unicode="&#xb0;" horiz-adv-x="680" d="M102 1245q0 50 19 94t52 76.5t76.5 51t92.5 18.5q48 0 91 -19t75 -51.5t51 -76.5t19 -93q0 -47 -18.5 -89.5t-50.5 -74.5t-75 -50.5t-92 -18.5q-50 0 -93.5 18.5t-76 50.5t-51.5 74t-19 90zM215 1243q0 -24 10 -45.5t27 -38.5t39.5 -27t48.5 -10q25 0 48 10t40 27 t27 38.5t10 45.5q0 29 -11.5 53t-29.5 41.5t-40.5 27t-43.5 9.5q-24 0 -47 -10.5t-40 -28.5t-27.5 -42t-10.5 -50z" />
<glyph unicode="&#xb1;" horiz-adv-x="1475" d="M655 805h-430h-3q-19 0 -28.5 25.5t-9.5 56.5t9.5 56.5t28.5 25.5h3h430v358q0 20 25 30t57 10t57 -10t25 -30v-358h430q20 0 30 -25t10 -57t-10 -57t-30 -25h-430v-359v-3q0 -18 -25.5 -27.5t-56.5 -9.5t-56.5 9.5t-25.5 27.5v3v359zM1249 125h-1024h-3 q-19 0 -28.5 25.5t-9.5 56.5t9.5 56.5t28.5 25.5h3h1024q20 0 30 -25t10 -57t-10 -57t-30 -25z" />
<glyph unicode="&#xb2;" horiz-adv-x="737" d="M145 1190q-37 0 -53.5 15.5t-16.5 50.5v69q0 19 15 36t39.5 31.5t55.5 25.5t62.5 18.5t60.5 11.5t50 4q63 0 109.5 -16.5t77 -45.5t46 -67.5t15.5 -83.5q0 -53 -20.5 -108t-67.5 -118t-122.5 -136.5t-184.5 -163.5h251v57q0 45 20.5 63.5t63.5 18.5q37 0 52.5 -15 t15.5 -48v-115q0 -24 -22 -33.5t-70 -9.5h-408q-51 0 -51 39q0 23 39 59q163 151 243.5 274.5t80.5 219.5q0 24 -4.5 51t-17 49.5t-34 37.5t-55.5 15q-37 0 -86 -24v-78q0 -46 -18 -65t-66 -19z" />
<glyph unicode="&#xb3;" horiz-adv-x="737" d="M155 889q48 0 66 -17.5t18 -62.5v-84q45 -20 98 -20q58 0 94.5 41t36.5 122q0 43 -9.5 72t-27.5 46t-44.5 24.5t-61.5 7.5h-35q-16 0 -28.5 12.5t-12.5 28.5q0 15 12.5 28t28.5 13h35q121 0 121 147q0 67 -29 98t-78 31q-45 0 -88 -20v-80q0 -46 -19.5 -65t-64.5 -19 q-37 0 -53 15.5t-16 49.5v70q0 29 29.5 52t72 39.5t89 25t79.5 8.5q63 0 110 -14.5t78.5 -41.5t47.5 -65t16 -84q0 -35 -11 -64t-30.5 -52.5t-46 -39.5t-58.5 -24v-2q170 -32 170 -197q0 -54 -21 -97.5t-59.5 -74.5t-92 -48t-119.5 -17q-37 0 -83 7t-86.5 22t-68 38.5 t-27.5 57.5v67q0 35 15.5 50.5t52.5 15.5z" />
<glyph unicode="&#xb4;" horiz-adv-x="1239" d="M803 1466l-201 -266q-26 -33 -76 -33q-23 0 -39 10.5t-16 28.5q0 12 4 19l107 256q11 26 43.5 39.5t72.5 13.5q51 0 81 -14t30 -35q0 -13 -6 -19z" />
<glyph unicode="&#xb5;" horiz-adv-x="1188" d="M1024 88q0 -49 -20 -68.5t-68 -19.5q-29 0 -51 6t-38 24.5t-24 52.5t-8 91h-4q-40 -91 -103.5 -132.5t-147.5 -41.5q-115 0 -173 80h-10v-385q-1 -50 -10 -79t-25.5 -44t-40.5 -19t-55 -4q-18 0 -32.5 3.5t-25.5 13.5t-17.5 27.5t-6.5 45.5v1293q0 49 17 72.5t65 23.5 q69 0 100 -38.5t31 -129.5v-512q7 -94 59.5 -141.5t151.5 -47.5q46 0 86.5 16t71 44.5t48 67.5t17.5 86v510q0 45 7 73t23 44t40.5 22t60.5 6q48 0 65 -23.5t17 -72.5v-844z" />
<glyph unicode="&#xb6;" horiz-adv-x="967" d="M528 1452v-1780q0 -34 -71 -34q-29 0 -49.5 8.5t-20.5 25.5v1129q-87 4 -152 32t-108 72t-64.5 101.5t-21.5 119.5q0 61 21 119.5t63.5 104.5t107.5 74t154 28h141zM803 1350v-1678q0 -34 -72 -34q-29 0 -49 8.5t-20 25.5v1780h47q94 0 94 -102z" />
<glyph unicode="&#xb7;" horiz-adv-x="677" d="M183 518q0 35 12 64.5t33 51t49.5 33.5t61.5 12t61 -12t49 -34t33 -51.5t12 -63.5q0 -33 -11.5 -61.5t-32.5 -50t-49.5 -34t-61.5 -12.5q-32 0 -60.5 12t-49.5 33t-33.5 50t-12.5 63z" />
<glyph unicode="&#xb8;" horiz-adv-x="1212" d="M606 20v-98q207 0 207 -151q0 -41 -17 -73.5t-47.5 -55.5t-72 -35.5t-90.5 -12.5q-30 0 -62.5 5.5t-60.5 16.5t-46 26.5t-18 35.5q0 16 12 27.5t31 11.5q5 0 21 -3.5t34.5 -7.5t36.5 -7.5t27 -3.5q51 0 73.5 20.5t22.5 48.5q0 26 -9 42t-27.5 25t-48.5 12t-72 3v174h106z " />
<glyph unicode="&#xb9;" horiz-adv-x="737" d="M309 1337l-94 -34q-14 -7 -35 -7q-26 0 -41 11t-15 26q0 10 10 22.5t31 20.5l162 64q31 12 70 12q45 0 63.5 -15t18.5 -51v-673h75q70 0 70 -43q0 -18 -11.5 -28.5t-47.5 -10.5h-340q-60 0 -60 39q0 43 70 43h74v624z" />
<glyph unicode="&#xba;" horiz-adv-x="844" d="M72 1081q0 94 24 164t69 116t110 68.5t147 22.5t147 -22.5t110 -68.5t69 -116t24 -164q0 -184 -91.5 -276t-258.5 -92t-258.5 92t-91.5 276zM422 784q36 0 66 13t51.5 47.5t33 94.5t11.5 154q0 89 -13.5 145t-36 87.5t-52 43t-60.5 11.5q-35 0 -64 -13t-50.5 -47 t-33.5 -91.5t-12 -147.5q0 -93 12 -151t33.5 -90t50.5 -43.5t64 -12.5z" />
<glyph unicode="&#xbb;" horiz-adv-x="1130" d="M760 481l-305 398q-11 16 -11 26q0 13 8.5 25t20.5 21t26.5 14.5t26.5 5.5q19 0 31 -13l414 -436q16 -16 16 -41t-16 -41l-414 -428q-9 -12 -31 -12q-13 0 -27.5 5.5t-26.5 14.5t-20 21t-8 25q0 10 11 26zM356 463l-206 313q-7 7 -7 19t8.5 22.5t21.5 19t28 13t28 4.5 t21 -8l291 -336q18 -21 18 -47q0 -24 -18 -45l-291 -324q-5 -8 -21 -8q-13 0 -28 4.5t-28 12.5t-21.5 18.5t-8.5 23.5q0 12 7 19z" />
<glyph unicode="&#xbc;" horiz-adv-x="1638" d="M351 29l864 1456q4 10 25 10q12 0 27 -5.5t28 -13.5t22 -18.5t9 -19.5q0 -7 -3 -8l-866 -1461q-4 -10 -22 -10q-13 0 -28 5.5t-28 14.5t-21.5 19.5t-8.5 19.5q0 5 2 11zM1149 83h59v121h-309q-57 0 -57 35q0 15 12 32l340 504q32 47 102 47q43 0 61.5 -15t18.5 -50v-475 h51q42 0 55 -11.5t13 -31.5q0 -16 -11.5 -25.5t-47.5 -9.5h-60v-121h43q70 0 70 -43q0 -18 -11.5 -28.5t-47.5 -10.5h-293q-64 0 -64 39q0 18 18 30.5t58 12.5zM1208 282v346l-227 -346h227zM288 1337l-94 -34q-14 -7 -35 -7q-26 0 -41 11t-15 26q0 10 10 22.5t31 20.5 l162 64q31 12 70 12q45 0 63.5 -15t18.5 -51v-673h75q70 0 70 -43q0 -18 -11.5 -28.5t-47.5 -10.5h-340q-60 0 -60 39q0 43 70 43h74v624z" />
<glyph unicode="&#xbd;" horiz-adv-x="1638" d="M331 29l864 1456q4 10 25 10q12 0 27 -5.5t28 -13.5t22 -18.5t9 -19.5q0 -7 -3 -8l-866 -1461q-4 -10 -22 -10q-13 0 -28 5.5t-28 14.5t-21.5 19.5t-8.5 19.5q0 5 2 11zM268 1337l-94 -34q-14 -7 -35 -7q-26 0 -41 11t-15 26q0 10 10 22.5t31 20.5l162 64q31 12 70 12 q45 0 63.5 -15t18.5 -51v-673h75q70 0 70 -43q0 -18 -11.5 -28.5t-47.5 -10.5h-340q-60 0 -60 39q0 43 70 43h74v624zM1067 560q-37 0 -53.5 15.5t-16.5 50.5v69q0 19 15 36t39.5 31.5t55.5 25.5t62.5 18.5t60.5 11.5t50 4q63 0 109.5 -16.5t77 -45.5t46 -67.5t15.5 -83.5 q0 -53 -20.5 -108t-67.5 -118t-122.5 -136.5t-184.5 -163.5h251v57q0 45 20.5 63.5t63.5 18.5q37 0 52.5 -15t15.5 -48v-115q0 -24 -22 -33.5t-70 -9.5h-408q-51 0 -51 39q0 23 39 59q163 151 243.5 274.5t80.5 219.5q0 24 -4.5 51t-17 49.5t-34 37.5t-55.5 15 q-37 0 -86 -24v-78q0 -46 -18 -65t-66 -19z" />
<glyph unicode="&#xbe;" horiz-adv-x="1638" d="M372 29l864 1456q4 10 25 10q12 0 27 -5.5t28 -13.5t22 -18.5t9 -19.5q0 -7 -3 -8l-866 -1461q-4 -10 -22 -10q-13 0 -28 5.5t-28 14.5t-21.5 19.5t-8.5 19.5q0 5 2 11zM1170 83h59v121h-309q-57 0 -57 35q0 15 12 32l340 504q32 47 102 47q43 0 61.5 -15t18.5 -50v-475 h51q42 0 55 -11.5t13 -31.5q0 -16 -11.5 -25.5t-47.5 -9.5h-60v-121h43q70 0 70 -43q0 -18 -11.5 -28.5t-47.5 -10.5h-293q-64 0 -64 39q0 18 18 30.5t58 12.5zM1229 282v346l-227 -346h227zM170 889q48 0 66 -17.5t18 -62.5v-84q45 -20 98 -20q58 0 94.5 41t36.5 122 q0 43 -9.5 72t-27.5 46t-44.5 24.5t-61.5 7.5h-35q-16 0 -28.5 12.5t-12.5 28.5q0 15 12.5 28t28.5 13h35q121 0 121 147q0 67 -29 98t-78 31q-45 0 -88 -20v-80q0 -46 -19.5 -65t-64.5 -19q-37 0 -53 15.5t-16 49.5v70q0 29 29.5 52t72 39.5t89 25t79.5 8.5q63 0 110 -14.5 t78.5 -41.5t47.5 -65t16 -84q0 -35 -11 -64t-30.5 -52.5t-46 -39.5t-58.5 -24v-2q170 -32 170 -197q0 -54 -21 -97.5t-59.5 -74.5t-92 -48t-119.5 -17q-37 0 -83 7t-86.5 22t-68 38.5t-27.5 57.5v67q0 35 15.5 50.5t52.5 15.5z" />
<glyph unicode="&#xbf;" horiz-adv-x="963" d="M813 420q88 0 88 -103v-118q0 -35 -11.5 -55.5t-39.5 -37.5q-85 -54 -174.5 -80t-183.5 -26q-119 0 -198 29.5t-126 75.5t-66.5 101t-19.5 105q0 78 26.5 136.5t64.5 105.5t81 87t76 81q30 37 51 69t34.5 64t20 67t6.5 78q0 27 30 42.5t69 15.5q37 0 62.5 -14.5 t25.5 -43.5q0 -53 -7.5 -96.5t-23.5 -84t-39.5 -80t-54.5 -85.5q-31 -45 -65 -80.5t-62 -73.5t-46 -83.5t-18 -110.5q0 -110 54.5 -155.5t162.5 -45.5q76 0 175 43v140q0 73 24.5 103t83.5 30zM674 1311q0 -29 -11.5 -55t-31 -45.5t-45.5 -31.5t-54 -12q-29 0 -55 11.5 t-45.5 31t-31 46t-11.5 55.5q0 28 12 53.5t31.5 45t45.5 31t54 11.5t54 -12t45.5 -31.5t31 -45t11.5 -52.5z" />
<glyph unicode="&#xc0;" horiz-adv-x="1382" d="M371 389l-105 -280q-25 -65 -56.5 -87t-68.5 -22q-29 0 -42 16t-13 41q0 21 10 49l482 1297q9 24 39.5 36.5t72.5 12.5q45 0 80 -14.5t45 -40.5l469 -1299q4 -17 4 -30q0 -29 -19 -48.5t-61 -19.5q-114 0 -153 109l-109 280h-575zM915 496l-247 714h-13l-252 -714h512z M674 1602l-217 301q-6 9 -6 20q0 22 30 35.5t84 13.5q42 0 76 -13.5t45 -39.5l117 -291q4 -8 4 -20q0 -18 -16 -28.5t-41 -10.5q-51 0 -76 33z" />
<glyph unicode="&#xc1;" horiz-adv-x="1382" d="M371 389l-105 -280q-25 -65 -56.5 -87t-68.5 -22q-29 0 -42 16t-13 41q0 21 10 49l482 1297q9 24 39.5 36.5t72.5 12.5q45 0 80 -14.5t45 -40.5l469 -1299q4 -17 4 -30q0 -29 -19 -48.5t-61 -19.5q-114 0 -153 109l-109 280h-575zM915 496l-247 714h-13l-252 -714h512z M935 1903l-217 -301q-27 -33 -76 -33q-26 0 -42 10.5t-16 28.5q0 12 4 20l117 291q12 26 46 39.5t75 13.5q54 0 84.5 -13.5t30.5 -35.5q0 -11 -6 -20z" />
<glyph unicode="&#xc2;" horiz-adv-x="1382" d="M371 389l-105 -280q-25 -65 -56.5 -87t-68.5 -22q-29 0 -42 16t-13 41q0 21 10 49l482 1297q9 24 39.5 36.5t72.5 12.5q45 0 80 -14.5t45 -40.5l469 -1299q4 -17 4 -30q0 -29 -19 -48.5t-61 -19.5q-114 0 -153 109l-109 280h-575zM915 496l-247 714h-13l-252 -714h512z M793 1628l-107 107l-106 -107q-30 -31 -62.5 -46t-70.5 -15q-33 0 -55.5 12.5t-22.5 30.5q0 10 8 18l209 217q18 19 42 28t58 9t58.5 -9.5t42.5 -27.5l209 -217q8 -8 8 -18q0 -18 -22.5 -30.5t-55.5 -12.5q-75 0 -133 61z" />
<glyph unicode="&#xc3;" horiz-adv-x="1382" d="M371 389l-105 -280q-25 -65 -56.5 -87t-68.5 -22q-29 0 -42 16t-13 41q0 21 10 49l482 1297q9 24 39.5 36.5t72.5 12.5q45 0 80 -14.5t45 -40.5l469 -1299q4 -17 4 -30q0 -29 -19 -48.5t-61 -19.5q-114 0 -153 109l-109 280h-575zM915 496l-247 714h-13l-252 -714h512z M574 1698q-26 0 -41.5 -9.5t-22 -22.5t-12.5 -26t-18.5 -22.5t-34.5 -9.5q-34 0 -46.5 11t-12.5 32q0 66 59 133t154 67q62 -6 135 -32q8 -3 26.5 -11t27.5 -11.5t23.5 -8t27 -6.5t26.5 -2q44 0 63 37q1 2 9.5 16t13 18.5t17.5 10.5t30 6q23 0 35 -11.5t12 -29.5 q0 -31 -16 -58q-33 -75 -80.5 -109t-100.5 -34q-50 0 -147 37q-88 35 -127 35z" />
<glyph unicode="&#xc4;" horiz-adv-x="1382" d="M371 389l-105 -280q-25 -65 -56.5 -87t-68.5 -22q-29 0 -42 16t-13 41q0 21 10 49l482 1297q9 24 39.5 36.5t72.5 12.5q45 0 80 -14.5t45 -40.5l469 -1299q4 -17 4 -30q0 -29 -19 -48.5t-61 -19.5q-114 0 -153 109l-109 280h-575zM915 496l-247 714h-13l-252 -714h512z M758 1743q0 58 41.5 99.5t97.5 41.5t99 -41.5t43 -99.5q0 -54 -43.5 -96.5t-98.5 -42.5t-97 42.5t-42 96.5zM334 1745q0 56 42 98.5t95 42.5q58 0 101 -42t43 -99q0 -55 -43 -97t-101 -42q-52 0 -94.5 42.5t-42.5 96.5z" />
<glyph unicode="&#xc5;" horiz-adv-x="1382" d="M371 389l-105 -280q-25 -65 -56.5 -87t-68.5 -22q-29 0 -42 16t-13 41q0 21 10 49l482 1297q9 24 39.5 36.5t72.5 12.5q45 0 80 -14.5t45 -40.5l469 -1299q4 -17 4 -30q0 -29 -19 -48.5t-61 -19.5q-114 0 -153 109l-109 280h-575zM915 496l-247 714h-13l-252 -714h512z M539 1604q-65 65 -65 159t65.5 160t159.5 66t159 -66t65 -160t-65 -158.5t-159 -64.5t-160 64zM595 1763q0 -40 31.5 -71t72.5 -31q40 0 71.5 31t31.5 71q0 42 -31 73.5t-72 31.5t-72.5 -31.5t-31.5 -73.5z" />
<glyph unicode="&#xc6;" horiz-adv-x="1888" d="M1688 1096q-61 0 -90 30.5t-29 102.5v114h-465v-536h409q28 0 43 -17t15 -40q0 -10 -5 -20t-13 -18t-18.5 -13t-21.5 -5h-409v-585h495v114q0 72 29 102.5t90 30.5q45 0 66.5 -24t21.5 -78v-178q0 -45 -29.5 -60.5t-93.5 -15.5h-706q-48 0 -71 24t-23 78v287h-488 l-172 -307q-27 -48 -57 -65t-68 -17q-26 2 -41.5 13.5t-15.5 33.5q0 25 20 59l764 1297q14 23 46.5 36t74.5 13h707q64 0 93.5 -15.5t29.5 -60.5v-178q0 -54 -21.5 -78t-66.5 -24zM883 496v712h-13l-421 -712h434z" />
<glyph unicode="&#xc7;" horiz-adv-x="1190" d="M1030 1083q-60 0 -89.5 31t-29.5 103v114q-82 17 -149 17q-97 0 -175 -41t-133 -121.5t-84.5 -200t-29.5 -276.5q0 -173 29.5 -289t85.5 -186t137 -99t184 -29q63 -1 129.5 15t138.5 45l39 16q12 4 17 4q20 0 34.5 -19t14.5 -42q0 -31 -27 -41l-35 -14q-80 -32 -160 -50 t-161 -20v-86q46 0 85.5 -8.5t69 -27.5t46 -49.5t16.5 -74.5q0 -42 -18 -76t-50.5 -58t-76.5 -37t-95 -13q-30 0 -64 6t-63 17.5t-48 27.5t-19 37q0 16 12 28.5t33 12.5q4 0 20.5 -4t36.5 -8.5t39 -8.5t29 -4q51 0 75.5 22t24.5 52q0 27 -9 44t-29 26t-51.5 12.5t-76.5 3.5 v168q-544 39 -544 711q0 190 47.5 329.5t131.5 230.5t198.5 135t248.5 44q51 0 108.5 -5t109.5 -15t92 -24.5t56 -33.5q17 -20 17 -65v-123q0 -54 -21.5 -78.5t-66.5 -24.5z" />
<glyph unicode="&#xc8;" horiz-adv-x="1231" d="M1030 1096q-61 0 -90 30.5t-29 102.5v114h-485v-536h430q27 0 42 -17t15 -40q0 -10 -5 -20t-13 -18t-18 -13t-21 -5h-430v-585h516v114q0 72 29 102.5t90 30.5q45 0 66.5 -24t21.5 -78v-178q0 -45 -29.5 -60.5t-93.5 -15.5h-727q-94 0 -94 102v1248q0 102 94 102h696 q64 0 93.5 -15.5t29.5 -60.5v-178q0 -54 -21.5 -78t-66.5 -24zM605 1602l-217 301q-6 9 -6 20q0 22 30 35.5t84 13.5q42 0 76 -13.5t45 -39.5l117 -291q4 -8 4 -20q0 -18 -16 -28.5t-41 -10.5q-51 0 -76 33z" />
<glyph unicode="&#xc9;" horiz-adv-x="1231" d="M1030 1096q-61 0 -90 30.5t-29 102.5v114h-485v-536h430q27 0 42 -17t15 -40q0 -10 -5 -20t-13 -18t-18 -13t-21 -5h-430v-585h516v114q0 72 29 102.5t90 30.5q45 0 66.5 -24t21.5 -78v-178q0 -45 -29.5 -60.5t-93.5 -15.5h-727q-94 0 -94 102v1248q0 102 94 102h696 q64 0 93.5 -15.5t29.5 -60.5v-178q0 -54 -21.5 -78t-66.5 -24zM915 1903l-217 -301q-27 -33 -76 -33q-26 0 -42 10.5t-16 28.5q0 12 4 20l117 291q12 26 46 39.5t75 13.5q54 0 84.5 -13.5t30.5 -35.5q0 -11 -6 -20z" />
<glyph unicode="&#xca;" horiz-adv-x="1231" d="M1030 1096q-61 0 -90 30.5t-29 102.5v114h-485v-536h430q27 0 42 -17t15 -40q0 -10 -5 -20t-13 -18t-18 -13t-21 -5h-430v-585h516v114q0 72 29 102.5t90 30.5q45 0 66.5 -24t21.5 -78v-178q0 -45 -29.5 -60.5t-93.5 -15.5h-727q-94 0 -94 102v1248q0 102 94 102h696 q64 0 93.5 -15.5t29.5 -60.5v-178q0 -54 -21.5 -78t-66.5 -24zM750 1628l-107 107l-106 -107q-30 -31 -62.5 -46t-70.5 -15q-33 0 -55.5 12.5t-22.5 30.5q0 10 8 18l209 217q18 19 42 28t58 9t58.5 -9.5t42.5 -27.5l209 -217q8 -8 8 -18q0 -18 -22.5 -30.5t-55.5 -12.5 q-75 0 -133 61z" />
<glyph unicode="&#xcb;" horiz-adv-x="1231" d="M1030 1096q-61 0 -90 30.5t-29 102.5v114h-485v-536h430q27 0 42 -17t15 -40q0 -10 -5 -20t-13 -18t-18 -13t-21 -5h-430v-585h516v114q0 72 29 102.5t90 30.5q45 0 66.5 -24t21.5 -78v-178q0 -45 -29.5 -60.5t-93.5 -15.5h-727q-94 0 -94 102v1248q0 102 94 102h696 q64 0 93.5 -15.5t29.5 -60.5v-178q0 -54 -21.5 -78t-66.5 -24zM723 1743q0 58 41.5 99.5t97.5 41.5t99 -41.5t43 -99.5q0 -54 -43.5 -96.5t-98.5 -42.5t-97 42.5t-42 96.5zM299 1745q0 56 42 98.5t95 42.5q58 0 101 -42t43 -99q0 -55 -43 -97t-101 -42q-52 0 -94.5 42.5 t-42.5 96.5z" />
<glyph unicode="&#xcc;" horiz-adv-x="836" d="M733 0h-631q-61 0 -61 49q0 28 17 44t65 16h184v1234h-184q-48 0 -65 16t-17 44q0 49 61 49h631q62 0 62 -49q0 -60 -82 -60h-185v-1234h185q82 0 82 -60q0 -49 -62 -49zM364 1602l-217 301q-6 9 -6 20q0 22 30 35.5t84 13.5q42 0 76 -13.5t45 -39.5l117 -291q4 -8 4 -20 q0 -18 -16 -28.5t-41 -10.5q-51 0 -76 33z" />
<glyph unicode="&#xcd;" horiz-adv-x="836" d="M733 0h-631q-61 0 -61 49q0 28 17 44t65 16h184v1234h-184q-48 0 -65 16t-17 44q0 49 61 49h631q62 0 62 -49q0 -60 -82 -60h-185v-1234h185q82 0 82 -60q0 -49 -62 -49zM704 1903l-217 -301q-27 -33 -76 -33q-26 0 -42 10.5t-16 28.5q0 12 4 20l117 291q12 26 46 39.5 t75 13.5q54 0 84.5 -13.5t30.5 -35.5q0 -11 -6 -20z" />
<glyph unicode="&#xce;" horiz-adv-x="836" d="M733 0h-631q-61 0 -61 49q0 28 17 44t65 16h184v1234h-184q-48 0 -65 16t-17 44q0 49 61 49h631q62 0 62 -49q0 -60 -82 -60h-185v-1234h185q82 0 82 -60q0 -49 -62 -49zM525 1628l-107 107l-106 -107q-30 -31 -62.5 -46t-70.5 -15q-33 0 -55.5 12.5t-22.5 30.5 q0 10 8 18l209 217q18 19 42 28t58 9t58.5 -9.5t42.5 -27.5l209 -217q8 -8 8 -18q0 -18 -22.5 -30.5t-55.5 -12.5q-75 0 -133 61z" />
<glyph unicode="&#xcf;" horiz-adv-x="836" d="M733 0h-631q-61 0 -61 49q0 28 17 44t65 16h184v1234h-184q-48 0 -65 16t-17 44q0 49 61 49h631q62 0 62 -49q0 -60 -82 -60h-185v-1234h185q82 0 82 -60q0 -49 -62 -49zM493 1743q0 58 41.5 99.5t97.5 41.5t99 -41.5t43 -99.5q0 -54 -43.5 -96.5t-98.5 -42.5t-97 42.5 t-42 96.5zM69 1745q0 56 42 98.5t95 42.5q58 0 101 -42t43 -99q0 -55 -43 -97t-101 -42q-52 0 -94.5 42.5t-42.5 96.5z" />
<glyph unicode="&#xd0;" horiz-adv-x="1419" d="M74 807h131v543q0 102 94 102h293q719 0 719 -719q-1 -142 -33 -251.5t-86 -190.5t-125 -137t-149.5 -90t-160 -49t-155.5 -15h-303q-94 0 -94 102v592h-131q-20 0 -31.5 17t-11.5 39q0 23 11.5 40t31.5 17zM567 1343h-141v-536h346q20 0 31.5 -17t11.5 -40 q0 -22 -11.5 -39t-31.5 -17h-346v-585h45v2h96q106 0 199.5 35t163 110t109.5 193t40 284t-39 282t-108 189t-162.5 106t-202.5 33z" />
<glyph unicode="&#xd1;" horiz-adv-x="1522" d="M205 92v1249q0 52 35.5 81.5t87.5 29.5q45 0 80 -18.5t67 -67.5l670 -1063h10v1034q0 60 25.5 87.5t58.5 27.5t55.5 -22t22.5 -70v-1241q0 -57 -34 -88t-85 -31q-98 0 -149 82l-670 1067h-12v-1034q0 -60 -25.5 -87.5t-58.5 -27.5t-55.5 22t-22.5 70zM637 1698 q-26 0 -41.5 -9.5t-22 -22.5t-12.5 -26t-18.5 -22.5t-34.5 -9.5q-34 0 -46.5 11t-12.5 32q0 66 59 133t154 67q62 -6 135 -32q8 -3 26.5 -11t27.5 -11.5t23.5 -8t27 -6.5t26.5 -2q44 0 63 37q1 2 9.5 16t13 18.5t17.5 10.5t30 6q23 0 35 -11.5t12 -29.5q0 -31 -16 -58 q-33 -75 -80.5 -109t-100.5 -34q-50 0 -147 37q-88 35 -127 35z" />
<glyph unicode="&#xd2;" horiz-adv-x="1466" d="M1358 725q0 -52 -7 -125.5t-29 -154.5t-63.5 -160.5t-111 -142.5t-171.5 -102.5t-245 -39.5q-144 0 -246 40t-171 104.5t-110 145t-62 161t-27 153t-6 121.5q0 53 7 127.5t29 155.5t63.5 160.5t110.5 142.5t170 102t242 39t242.5 -39.5t171.5 -103.5t112 -144 t64.5 -160.5t29.5 -154.5t7 -125zM731 1348q-87 0 -149.5 -31t-106 -81.5t-70 -116t-41 -134.5t-19.5 -137t-5 -123q0 -47 4 -111.5t17 -133.5t38.5 -136.5t69 -120.5t107.5 -86t155 -33q88 2 151.5 32t107 79t70.5 112.5t41.5 132t19.5 137t5 128.5q0 48 -3.5 113 t-16.5 134.5t-38.5 136.5t-69.5 120.5t-109.5 86t-157.5 32.5zM674 1602l-217 301q-6 9 -6 20q0 22 30 35.5t84 13.5q42 0 76 -13.5t45 -39.5l117 -291q4 -8 4 -20q0 -18 -16 -28.5t-41 -10.5q-51 0 -76 33z" />
<glyph unicode="&#xd3;" horiz-adv-x="1466" d="M1358 725q0 -52 -7 -125.5t-29 -154.5t-63.5 -160.5t-111 -142.5t-171.5 -102.5t-245 -39.5q-144 0 -246 40t-171 104.5t-110 145t-62 161t-27 153t-6 121.5q0 53 7 127.5t29 155.5t63.5 160.5t110.5 142.5t170 102t242 39t242.5 -39.5t171.5 -103.5t112 -144 t64.5 -160.5t29.5 -154.5t7 -125zM731 1348q-87 0 -149.5 -31t-106 -81.5t-70 -116t-41 -134.5t-19.5 -137t-5 -123q0 -47 4 -111.5t17 -133.5t38.5 -136.5t69 -120.5t107.5 -86t155 -33q88 2 151.5 32t107 79t70.5 112.5t41.5 132t19.5 137t5 128.5q0 48 -3.5 113 t-16.5 134.5t-38.5 136.5t-69.5 120.5t-109.5 86t-157.5 32.5zM996 1903l-217 -301q-27 -33 -76 -33q-26 0 -42 10.5t-16 28.5q0 12 4 20l117 291q12 26 46 39.5t75 13.5q54 0 84.5 -13.5t30.5 -35.5q0 -11 -6 -20z" />
<glyph unicode="&#xd4;" horiz-adv-x="1466" d="M1358 725q0 -52 -7 -125.5t-29 -154.5t-63.5 -160.5t-111 -142.5t-171.5 -102.5t-245 -39.5q-144 0 -246 40t-171 104.5t-110 145t-62 161t-27 153t-6 121.5q0 53 7 127.5t29 155.5t63.5 160.5t110.5 142.5t170 102t242 39t242.5 -39.5t171.5 -103.5t112 -144 t64.5 -160.5t29.5 -154.5t7 -125zM731 1348q-87 0 -149.5 -31t-106 -81.5t-70 -116t-41 -134.5t-19.5 -137t-5 -123q0 -47 4 -111.5t17 -133.5t38.5 -136.5t69 -120.5t107.5 -86t155 -33q88 2 151.5 32t107 79t70.5 112.5t41.5 132t19.5 137t5 128.5q0 48 -3.5 113 t-16.5 134.5t-38.5 136.5t-69.5 120.5t-109.5 86t-157.5 32.5zM840 1628l-107 107l-106 -107q-30 -31 -62.5 -46t-70.5 -15q-33 0 -55.5 12.5t-22.5 30.5q0 10 8 18l209 217q18 19 42 28t58 9t58.5 -9.5t42.5 -27.5l209 -217q8 -8 8 -18q0 -18 -22.5 -30.5t-55.5 -12.5 q-75 0 -133 61z" />
<glyph unicode="&#xd5;" horiz-adv-x="1466" d="M1358 725q0 -52 -7 -125.5t-29 -154.5t-63.5 -160.5t-111 -142.5t-171.5 -102.5t-245 -39.5q-144 0 -246 40t-171 104.5t-110 145t-62 161t-27 153t-6 121.5q0 53 7 127.5t29 155.5t63.5 160.5t110.5 142.5t170 102t242 39t242.5 -39.5t171.5 -103.5t112 -144 t64.5 -160.5t29.5 -154.5t7 -125zM731 1348q-87 0 -149.5 -31t-106 -81.5t-70 -116t-41 -134.5t-19.5 -137t-5 -123q0 -47 4 -111.5t17 -133.5t38.5 -136.5t69 -120.5t107.5 -86t155 -33q88 2 151.5 32t107 79t70.5 112.5t41.5 132t19.5 137t5 128.5q0 48 -3.5 113 t-16.5 134.5t-38.5 136.5t-69.5 120.5t-109.5 86t-157.5 32.5zM595 1698q-26 0 -41.5 -9.5t-22 -22.5t-12.5 -26t-18.5 -22.5t-34.5 -9.5q-34 0 -46.5 11t-12.5 32q0 66 59 133t154 67q62 -6 135 -32q8 -3 26.5 -11t27.5 -11.5t23.5 -8t27 -6.5t26.5 -2q44 0 63 37 q1 2 9.5 16t13 18.5t17.5 10.5t30 6q23 0 35 -11.5t12 -29.5q0 -31 -16 -58q-33 -75 -80.5 -109t-100.5 -34q-50 0 -147 37q-88 35 -127 35z" />
<glyph unicode="&#xd6;" horiz-adv-x="1466" d="M1358 725q0 -52 -7 -125.5t-29 -154.5t-63.5 -160.5t-111 -142.5t-171.5 -102.5t-245 -39.5q-144 0 -246 40t-171 104.5t-110 145t-62 161t-27 153t-6 121.5q0 53 7 127.5t29 155.5t63.5 160.5t110.5 142.5t170 102t242 39t242.5 -39.5t171.5 -103.5t112 -144 t64.5 -160.5t29.5 -154.5t7 -125zM731 1348q-87 0 -149.5 -31t-106 -81.5t-70 -116t-41 -134.5t-19.5 -137t-5 -123q0 -47 4 -111.5t17 -133.5t38.5 -136.5t69 -120.5t107.5 -86t155 -33q88 2 151.5 32t107 79t70.5 112.5t41.5 132t19.5 137t5 128.5q0 48 -3.5 113 t-16.5 134.5t-38.5 136.5t-69.5 120.5t-109.5 86t-157.5 32.5zM805 1743q0 58 41.5 99.5t97.5 41.5t99 -41.5t43 -99.5q0 -54 -43.5 -96.5t-98.5 -42.5t-97 42.5t-42 96.5zM381 1745q0 56 42 98.5t95 42.5q58 0 101 -42t43 -99q0 -55 -43 -97t-101 -42q-52 0 -94.5 42.5 t-42.5 96.5z" />
<glyph unicode="&#xd7;" horiz-adv-x="1468" d="M618 715l-303 303q-8 8 -8 20q0 15 11 33.5t26.5 34t34 26.5t33.5 11q12 0 20 -8l303 -304l303 304q9 6 21 6q15 0 33 -10.5t33.5 -26.5t25.5 -33.5t10 -32.5q0 -11 -6 -20l-303 -303l303 -303q6 -9 6 -21q0 -15 -10 -33t-25.5 -34t-33.5 -26.5t-33 -10.5q-13 0 -21 8 l-303 303l-303 -303q-8 -8 -20 -8q-15 0 -33.5 10.5t-34.5 26.5t-26.5 34t-10.5 33q0 13 8 21z" />
<glyph unicode="&#xd8;" horiz-adv-x="1466" d="M1264 1524l-121 -213q66 -60 108 -137t65.5 -157t32.5 -156.5t9 -135.5q0 -52 -7 -125.5t-29 -154.5t-63.5 -160.5t-111 -142.5t-171.5 -102.5t-245 -39.5q-174 0 -303 66l-119 -209q-9 -13 -26 -13q-14 0 -29 6t-27.5 15t-21 20.5t-8.5 22.5q0 4 2 10l123 219 q-66 58 -108 134t-65 156.5t-31.5 158t-8.5 139.5q0 53 7 127.5t29 155.5t63.5 160.5t110.5 142.5t170 102t242 39q172 0 301 -66l119 209q6 13 25 13q13 0 29 -7t29.5 -17.5t22.5 -23.5t9 -24q0 -6 -2 -12zM1126 725q0 266 -77 422l-549 -959q91 -84 231 -84q88 2 151.5 32 t107 79t70.5 112.5t41.5 132t19.5 137t5 128.5zM340 725q0 -268 78 -422l545 961q-96 84 -232 84q-87 0 -149.5 -31t-106 -81.5t-70 -116t-41 -134.5t-19.5 -137t-5 -123z" />
<glyph unicode="&#xd9;" horiz-adv-x="1470" d="M412 1294v-845q0 -83 25 -149t71.5 -112t113.5 -70t152 -24q79 0 142.5 27t108.5 75.5t69 115t24 145.5v880q0 60 25.5 87.5t58.5 27.5t55.5 -22t22.5 -70v-840q0 -45 -7 -103.5t-28 -120t-58.5 -120t-98.5 -105t-148 -74.5t-207 -28q-123 0 -211 27t-148 71.5t-96.5 102 t-56 118t-25.5 119.5t-6 107v836q0 57 21 79.5t70 22.5q64 0 97.5 -40t33.5 -118zM688 1602l-217 301q-6 9 -6 20q0 22 30 35.5t84 13.5q42 0 76 -13.5t45 -39.5l117 -291q4 -8 4 -20q0 -18 -16 -28.5t-41 -10.5q-51 0 -76 33z" />
<glyph unicode="&#xda;" horiz-adv-x="1470" d="M412 1294v-845q0 -83 25 -149t71.5 -112t113.5 -70t152 -24q79 0 142.5 27t108.5 75.5t69 115t24 145.5v880q0 60 25.5 87.5t58.5 27.5t55.5 -22t22.5 -70v-840q0 -45 -7 -103.5t-28 -120t-58.5 -120t-98.5 -105t-148 -74.5t-207 -28q-123 0 -211 27t-148 71.5t-96.5 102 t-56 118t-25.5 119.5t-6 107v836q0 57 21 79.5t70 22.5q64 0 97.5 -40t33.5 -118zM1000 1903l-217 -301q-27 -33 -76 -33q-26 0 -42 10.5t-16 28.5q0 12 4 20l117 291q12 26 46 39.5t75 13.5q54 0 84.5 -13.5t30.5 -35.5q0 -11 -6 -20z" />
<glyph unicode="&#xdb;" horiz-adv-x="1470" d="M412 1294v-845q0 -83 25 -149t71.5 -112t113.5 -70t152 -24q79 0 142.5 27t108.5 75.5t69 115t24 145.5v880q0 60 25.5 87.5t58.5 27.5t55.5 -22t22.5 -70v-840q0 -45 -7 -103.5t-28 -120t-58.5 -120t-98.5 -105t-148 -74.5t-207 -28q-123 0 -211 27t-148 71.5t-96.5 102 t-56 118t-25.5 119.5t-6 107v836q0 57 21 79.5t70 22.5q64 0 97.5 -40t33.5 -118zM842 1628l-107 107l-106 -107q-30 -31 -62.5 -46t-70.5 -15q-33 0 -55.5 12.5t-22.5 30.5q0 10 8 18l209 217q18 19 42 28t58 9t58.5 -9.5t42.5 -27.5l209 -217q8 -8 8 -18 q0 -18 -22.5 -30.5t-55.5 -12.5q-75 0 -133 61z" />
<glyph unicode="&#xdc;" horiz-adv-x="1470" d="M412 1294v-845q0 -83 25 -149t71.5 -112t113.5 -70t152 -24q79 0 142.5 27t108.5 75.5t69 115t24 145.5v880q0 60 25.5 87.5t58.5 27.5t55.5 -22t22.5 -70v-840q0 -45 -7 -103.5t-28 -120t-58.5 -120t-98.5 -105t-148 -74.5t-207 -28q-123 0 -211 27t-148 71.5t-96.5 102 t-56 118t-25.5 119.5t-6 107v836q0 57 21 79.5t70 22.5q64 0 97.5 -40t33.5 -118zM817 1743q0 58 41.5 99.5t97.5 41.5t99 -41.5t43 -99.5q0 -54 -43.5 -96.5t-98.5 -42.5t-97 42.5t-42 96.5zM393 1745q0 56 42 98.5t95 42.5q58 0 101 -42t43 -99q0 -55 -43 -97t-101 -42 q-52 0 -94.5 42.5t-42.5 96.5z" />
<glyph unicode="&#xdd;" horiz-adv-x="1120" d="M549 0q-96 0 -96 102v447l-404 780q-12 28 -12 51q0 31 20.5 51.5t53.5 20.5q27 0 49 -5t41 -17.5t35.5 -33t31.5 -50.5l326 -644h8l307 641q52 109 125 109q29 0 43.5 -19.5t14.5 -48.5q0 -20 -11 -45l-407 -790v-426q0 -71 -29.5 -97t-95.5 -26zM864 1903l-217 -301 q-27 -33 -76 -33q-26 0 -42 10.5t-16 28.5q0 12 4 20l117 291q12 26 46 39.5t75 13.5q54 0 84.5 -13.5t30.5 -35.5q0 -11 -6 -20z" />
<glyph unicode="&#xde;" horiz-adv-x="1274" d="M426 1294v-114h201q44 0 102 -3.5t119.5 -17t121.5 -40.5t107 -74.5t76 -118t29 -170.5q0 -98 -34 -182.5t-103 -147.5t-173 -99t-243 -36h-203v-158q0 -72 -30.5 -102.5t-96.5 -30.5q-94 0 -94 102v1248q0 57 21 79.5t69 22.5q64 0 97.5 -40t33.5 -118zM627 1071h-201 v-672h201q153 0 238 87t85 270q0 75 -17.5 133.5t-56 99t-100 61.5t-149.5 21z" />
<glyph unicode="&#xdf;" horiz-adv-x="1167" d="M164 96v963q0 56 5.5 115t21 114t44.5 104t76.5 85.5t116 57.5t162.5 21q91 0 166 -24t128 -70.5t82 -114t29 -155.5q0 -57 -13.5 -108t-39.5 -93t-64.5 -73.5t-89.5 -47.5v-8q63 -9 114.5 -40.5t87.5 -81.5t55.5 -117.5t19.5 -149.5q0 -131 -34.5 -221t-90 -146 t-125.5 -81t-141 -25q-30 0 -59.5 1.5t-54 8t-40.5 20.5t-18 38q0 16 9 26t26 10q7 0 21 -2t30 -4t31 -4t24 -2q41 0 78.5 20t66 65t45.5 117.5t17 176.5q0 90 -18 152t-52.5 100.5t-84 56t-113.5 17.5h-58q-17 0 -26 15t-9 34t9 35t28 16h56q94 0 146 77t52 218 q0 52 -9 102.5t-31 90.5t-58.5 64t-91.5 24q-70 0 -112 -28t-64.5 -71t-29.5 -96t-7 -102v-1031q0 -44 -7 -72t-22.5 -44t-40.5 -22.5t-61 -6.5q-48 0 -65 23.5t-17 72.5z" />
<glyph unicode="&#xe0;" horiz-adv-x="1118" d="M764 193l-6 2q-67 -102 -154 -148.5t-207 -46.5q-76 0 -134 19.5t-97 55.5t-58.5 87t-19.5 114q0 66 22.5 130.5t80.5 115.5t158 82t255 31h150v57q0 70 -12 118.5t-36.5 78.5t-63.5 43.5t-93 13.5q-102 0 -180 -86q-66 -72 -125 -72q-35 0 -53.5 20t-18.5 50 q0 39 37 70.5t96.5 53.5t134 34t150.5 12q111 0 184 -23t116.5 -69t61 -115.5t17.5 -163.5v-561q0 -49 -17 -72.5t-63 -23.5q-67 0 -96 45.5t-29 147.5zM756 549h-119q-336 0 -336 -244q0 -168 178 -168q39 0 87 15t90.5 45t71 75t28.5 105v172zM514 1200l-201 266 q-6 6 -6 19q0 21 29.5 35t80.5 14q40 0 73 -13.5t44 -39.5l107 -256q4 -7 4 -19q0 -18 -16 -28.5t-40 -10.5q-50 0 -75 33z" />
<glyph unicode="&#xe1;" horiz-adv-x="1118" d="M764 193l-6 2q-67 -102 -154 -148.5t-207 -46.5q-76 0 -134 19.5t-97 55.5t-58.5 87t-19.5 114q0 66 22.5 130.5t80.5 115.5t158 82t255 31h150v57q0 70 -12 118.5t-36.5 78.5t-63.5 43.5t-93 13.5q-102 0 -180 -86q-66 -72 -125 -72q-35 0 -53.5 20t-18.5 50 q0 39 37 70.5t96.5 53.5t134 34t150.5 12q111 0 184 -23t116.5 -69t61 -115.5t17.5 -163.5v-561q0 -49 -17 -72.5t-63 -23.5q-67 0 -96 45.5t-29 147.5zM756 549h-119q-336 0 -336 -244q0 -168 178 -168q39 0 87 15t90.5 45t71 75t28.5 105v172zM805 1466l-201 -266 q-26 -33 -76 -33q-23 0 -39 10.5t-16 28.5q0 12 4 19l107 256q11 26 43.5 39.5t72.5 13.5q51 0 81 -14t30 -35q0 -13 -6 -19z" />
<glyph unicode="&#xe2;" horiz-adv-x="1118" d="M764 193l-6 2q-67 -102 -154 -148.5t-207 -46.5q-76 0 -134 19.5t-97 55.5t-58.5 87t-19.5 114q0 66 22.5 130.5t80.5 115.5t158 82t255 31h150v57q0 70 -12 118.5t-36.5 78.5t-63.5 43.5t-93 13.5q-102 0 -180 -86q-66 -72 -125 -72q-35 0 -53.5 20t-18.5 50 q0 39 37 70.5t96.5 53.5t134 34t150.5 12q111 0 184 -23t116.5 -69t61 -115.5t17.5 -163.5v-561q0 -49 -17 -72.5t-63 -23.5q-67 0 -96 45.5t-29 147.5zM756 549h-119q-336 0 -336 -244q0 -168 178 -168q39 0 87 15t90.5 45t71 75t28.5 105v172zM667 1202l-107 107 l-106 -107q-30 -31 -62.5 -46t-70.5 -15q-33 0 -55.5 12.5t-22.5 30.5q0 10 8 18l209 217q18 19 42 28t58 9t58.5 -9.5t42.5 -27.5l209 -217q8 -8 8 -18q0 -18 -22.5 -30.5t-55.5 -12.5q-75 0 -133 61z" />
<glyph unicode="&#xe3;" horiz-adv-x="1118" d="M764 193l-6 2q-67 -102 -154 -148.5t-207 -46.5q-76 0 -134 19.5t-97 55.5t-58.5 87t-19.5 114q0 66 22.5 130.5t80.5 115.5t158 82t255 31h150v57q0 70 -12 118.5t-36.5 78.5t-63.5 43.5t-93 13.5q-102 0 -180 -86q-66 -72 -125 -72q-35 0 -53.5 20t-18.5 50 q0 39 37 70.5t96.5 53.5t134 34t150.5 12q111 0 184 -23t116.5 -69t61 -115.5t17.5 -163.5v-561q0 -49 -17 -72.5t-63 -23.5q-67 0 -96 45.5t-29 147.5zM756 549h-119q-336 0 -336 -244q0 -168 178 -168q39 0 87 15t90.5 45t71 75t28.5 105v172zM432 1241q-32 0 -45.5 -13.5 t-21.5 -29.5t-18.5 -29.5t-37.5 -13.5q-57 0 -57 41q0 31 15 65t42 62.5t64.5 47t83.5 18.5q46 -3 109 -26l93 -34q11 -2 26.5 -5t27.5 -3q43 0 61 35q1 3 5 11t11 16.5t17.5 15t25.5 6.5q25 0 38.5 -10.5t13.5 -28.5q0 -28 -15 -55q-60 -137 -174 -137q-24 0 -63 10.5 t-78.5 23t-73.5 23t-49 10.5z" />
<glyph unicode="&#xe4;" horiz-adv-x="1118" d="M764 193l-6 2q-67 -102 -154 -148.5t-207 -46.5q-76 0 -134 19.5t-97 55.5t-58.5 87t-19.5 114q0 66 22.5 130.5t80.5 115.5t158 82t255 31h150v57q0 70 -12 118.5t-36.5 78.5t-63.5 43.5t-93 13.5q-102 0 -180 -86q-66 -72 -125 -72q-35 0 -53.5 20t-18.5 50 q0 39 37 70.5t96.5 53.5t134 34t150.5 12q111 0 184 -23t116.5 -69t61 -115.5t17.5 -163.5v-561q0 -49 -17 -72.5t-63 -23.5q-67 0 -96 45.5t-29 147.5zM756 549h-119q-336 0 -336 -244q0 -168 178 -168q39 0 87 15t90.5 45t71 75t28.5 105v172zM233 1286q0 25 10 48 t27.5 40t40 27t47.5 10t47.5 -10t40 -27.5t27.5 -40t10 -47.5t-10 -47.5t-27 -40t-40 -27.5t-48 -10t-47.5 10t-40 27.5t-27.5 40t-10 47.5zM635 1286q0 25 10 47.5t27.5 40t40 27.5t47.5 10t47.5 -10.5t39.5 -27.5t27.5 -39.5t10.5 -47.5t-10.5 -47.5t-27.5 -40 t-39.5 -27.5t-47.5 -10q-26 0 -48.5 10t-39.5 27.5t-27 40t-10 47.5z" />
<glyph unicode="&#xe5;" horiz-adv-x="1118" d="M764 193l-6 2q-67 -102 -154 -148.5t-207 -46.5q-76 0 -134 19.5t-97 55.5t-58.5 87t-19.5 114q0 66 22.5 130.5t80.5 115.5t158 82t255 31h150v57q0 70 -12 118.5t-36.5 78.5t-63.5 43.5t-93 13.5q-102 0 -180 -86q-66 -72 -125 -72q-35 0 -53.5 20t-18.5 50 q0 39 37 70.5t96.5 53.5t134 34t150.5 12q111 0 184 -23t116.5 -69t61 -115.5t17.5 -163.5v-561q0 -49 -17 -72.5t-63 -23.5q-67 0 -96 45.5t-29 147.5zM756 549h-119q-336 0 -336 -244q0 -168 178 -168q39 0 87 15t90.5 45t71 75t28.5 105v172zM559 1249q21 0 40 8.5 t33.5 23.5t23.5 34.5t9 40.5t-9 40.5t-24 34.5t-34 24t-39 9q-21 0 -40.5 -9t-35 -24t-24.5 -34.5t-9 -40.5t9 -40.5t24 -34.5t35 -23.5t41 -8.5zM338 1356q0 47 17 87.5t47 70t70.5 46.5t86.5 17t86.5 -17t70.5 -47t47 -70.5t17 -86.5t-17.5 -86t-47.5 -70t-70.5 -47.5 t-85.5 -17.5q-46 0 -86.5 17t-70.5 47t-47 70.5t-17 86.5z" />
<glyph unicode="&#xe6;" horiz-adv-x="1729" d="M1544 258q23 23 51 23q18 0 32.5 -12t14.5 -31q0 -38 -26 -70q-137 -168 -377 -168q-313 0 -428 225h-6q-25 -50 -70 -91.5t-98.5 -71t-111 -46t-107.5 -16.5q-166 0 -248 74t-82 202q0 66 22.5 130.5t80.5 115.5t158 82t255 31h150v57q0 70 -12 118.5t-36.5 78.5 t-63.5 43.5t-93 13.5q-102 0 -180 -86q-66 -72 -125 -72q-35 0 -53.5 20t-18.5 50q0 39 37 70.5t96.5 53.5t134 34t150.5 12q232 0 315 -110q122 110 330 110q93 0 169 -27t130 -79.5t83.5 -129.5t29.5 -176q0 -100 -117 -100h-551q-1 -8 -1.5 -19.5t-0.5 -25.5 q0 -183 72 -282t225 -99q52 0 92.5 16t68 35.5t42.5 37t17 19.5q5 5 11.5 13t16.5 20zM756 549h-119q-336 0 -336 -244q0 -168 178 -168q39 0 87 15t90.5 45t71 75t28.5 105v172zM1223 946q-99 0 -161.5 -83.5t-76.5 -260.5h383q36 0 53 13t17 47q0 68 -18 121t-47.5 89 t-68.5 55t-81 19z" />
<glyph unicode="&#xe7;" horiz-adv-x="1004" d="M864 258q23 23 51 23q18 0 33 -12t15 -31q0 -37 -27 -70q-126 -158 -340 -168v-78q207 0 207 -151q0 -41 -17 -74t-47.5 -56t-72.5 -35t-91 -12q-30 0 -62.5 5.5t-60 16.5t-45.5 26.5t-18 35.5q0 16 12 27.5t31 11.5q5 0 21 -3.5t34.5 -7.5t36.5 -7.5t27 -3.5 q51 0 73.5 20.5t22.5 48.5q0 26 -9 42t-28 25t-49 12t-72 3v158q-105 11 -178.5 53t-120 108.5t-67.5 154.5t-21 192q0 142 37.5 240.5t103.5 159.5t154.5 88.5t190.5 27.5q70 0 134 -18t112.5 -48.5t77 -70t28.5 -82.5q0 -18 -7.5 -33t-19.5 -25.5t-27.5 -16t-31.5 -5.5 q-45 0 -71 21.5t-40 64.5q-11 30 -24 54t-32 41.5t-44 26.5t-59 9q-63 0 -111.5 -20.5t-81.5 -70.5t-50 -133.5t-17 -209.5q0 -105 14 -184.5t45.5 -132t82 -79t122.5 -26.5q48 0 85 10.5t66 29.5t52.5 43.5t46.5 52.5z" />
<glyph unicode="&#xe8;" horiz-adv-x="1075" d="M891 258q9 11 22.5 17t28.5 6q18 0 32.5 -12t14.5 -31q0 -38 -26 -70q-137 -168 -377 -168q-120 0 -211 33.5t-151.5 97t-91 154t-30.5 204.5q0 265 122.5 402t357.5 137q93 0 168.5 -27t129.5 -79.5t83.5 -129.5t29.5 -176q0 -100 -116 -100h-551q-1 -8 -1.5 -19.5 t-0.5 -25.5q0 -88 17 -158.5t52 -120t88.5 -76t126.5 -26.5q60 0 103 15.5t73.5 38t51.5 47.5t36 43zM569 946q-99 0 -161.5 -83.5t-75.5 -260.5h383q36 0 52.5 13t16.5 47q0 69 -17.5 122t-47 89t-68.5 54.5t-82 18.5zM514 1200l-201 266q-6 6 -6 19q0 21 29.5 35t80.5 14 q40 0 73 -13.5t44 -39.5l107 -256q4 -7 4 -19q0 -18 -16 -28.5t-40 -10.5q-50 0 -75 33z" />
<glyph unicode="&#xe9;" horiz-adv-x="1075" d="M891 258q9 11 22.5 17t28.5 6q18 0 32.5 -12t14.5 -31q0 -38 -26 -70q-137 -168 -377 -168q-120 0 -211 33.5t-151.5 97t-91 154t-30.5 204.5q0 265 122.5 402t357.5 137q93 0 168.5 -27t129.5 -79.5t83.5 -129.5t29.5 -176q0 -100 -116 -100h-551q-1 -8 -1.5 -19.5 t-0.5 -25.5q0 -88 17 -158.5t52 -120t88.5 -76t126.5 -26.5q60 0 103 15.5t73.5 38t51.5 47.5t36 43zM569 946q-99 0 -161.5 -83.5t-75.5 -260.5h383q36 0 52.5 13t16.5 47q0 69 -17.5 122t-47 89t-68.5 54.5t-82 18.5zM803 1466l-201 -266q-26 -33 -76 -33q-23 0 -39 10.5 t-16 28.5q0 12 4 19l107 256q11 26 43.5 39.5t72.5 13.5q51 0 81 -14t30 -35q0 -13 -6 -19z" />
<glyph unicode="&#xea;" horiz-adv-x="1075" d="M891 258q9 11 22.5 17t28.5 6q18 0 32.5 -12t14.5 -31q0 -38 -26 -70q-137 -168 -377 -168q-120 0 -211 33.5t-151.5 97t-91 154t-30.5 204.5q0 265 122.5 402t357.5 137q93 0 168.5 -27t129.5 -79.5t83.5 -129.5t29.5 -176q0 -100 -116 -100h-551q-1 -8 -1.5 -19.5 t-0.5 -25.5q0 -88 17 -158.5t52 -120t88.5 -76t126.5 -26.5q60 0 103 15.5t73.5 38t51.5 47.5t36 43zM569 946q-99 0 -161.5 -83.5t-75.5 -260.5h383q36 0 52.5 13t16.5 47q0 69 -17.5 122t-47 89t-68.5 54.5t-82 18.5zM656 1202l-107 107l-106 -107q-30 -31 -62.5 -46 t-70.5 -15q-33 0 -55.5 12.5t-22.5 30.5q0 10 8 18l209 217q18 19 42 28t58 9t58.5 -9.5t42.5 -27.5l209 -217q8 -8 8 -18q0 -18 -22.5 -30.5t-55.5 -12.5q-75 0 -133 61z" />
<glyph unicode="&#xeb;" horiz-adv-x="1075" d="M891 258q9 11 22.5 17t28.5 6q18 0 32.5 -12t14.5 -31q0 -38 -26 -70q-137 -168 -377 -168q-120 0 -211 33.5t-151.5 97t-91 154t-30.5 204.5q0 265 122.5 402t357.5 137q93 0 168.5 -27t129.5 -79.5t83.5 -129.5t29.5 -176q0 -100 -116 -100h-551q-1 -8 -1.5 -19.5 t-0.5 -25.5q0 -88 17 -158.5t52 -120t88.5 -76t126.5 -26.5q60 0 103 15.5t73.5 38t51.5 47.5t36 43zM569 946q-99 0 -161.5 -83.5t-75.5 -260.5h383q36 0 52.5 13t16.5 47q0 69 -17.5 122t-47 89t-68.5 54.5t-82 18.5zM214 1286q0 25 10 48t27.5 40t40 27t47.5 10t47.5 -10 t40 -27.5t27.5 -40t10 -47.5t-10 -47.5t-27 -40t-40 -27.5t-48 -10t-47.5 10t-40 27.5t-27.5 40t-10 47.5zM616 1286q0 25 10 47.5t27.5 40t40 27.5t47.5 10t47.5 -10.5t39.5 -27.5t27.5 -39.5t10.5 -47.5t-10.5 -47.5t-27.5 -40t-39.5 -27.5t-47.5 -10q-26 0 -48.5 10 t-39.5 27.5t-27 40t-10 47.5z" />
<glyph unicode="&#xec;" horiz-adv-x="561" d="M387 891v-752q0 -44 -7 -71t-22.5 -42t-40.5 -20.5t-61 -5.5q-48 0 -65 23.5t-17 72.5v836q0 49 17 72.5t65 23.5q131 0 131 -137zM259 1200l-201 266q-6 6 -6 19q0 21 29.5 35t80.5 14q40 0 73 -13.5t44 -39.5l107 -256q4 -7 4 -19q0 -18 -16 -28.5t-40 -10.5 q-50 0 -75 33z" />
<glyph unicode="&#xed;" horiz-adv-x="561" d="M387 891v-752q0 -44 -7 -71t-22.5 -42t-40.5 -20.5t-61 -5.5q-48 0 -65 23.5t-17 72.5v836q0 49 17 72.5t65 23.5q131 0 131 -137zM507 1466l-201 -266q-26 -33 -76 -33q-23 0 -39 10.5t-16 28.5q0 12 4 19l107 256q11 26 43.5 39.5t72.5 13.5q51 0 81 -14t30 -35 q0 -13 -6 -19z" />
<glyph unicode="&#xee;" horiz-adv-x="561" d="M388 1202l-107 107l-106 -107q-30 -31 -62.5 -46t-70.5 -15q-33 0 -55.5 12.5t-22.5 30.5q0 10 8 18l209 217q18 19 42 28t58 9t58.5 -9.5t42.5 -27.5l209 -217q8 -8 8 -18q0 -18 -22.5 -30.5t-55.5 -12.5q-75 0 -133 61zM387 891v-752q0 -44 -7 -71t-22.5 -42 t-40.5 -20.5t-61 -5.5q-48 0 -65 23.5t-17 72.5v836q0 49 17 72.5t65 23.5q131 0 131 -137z" />
<glyph unicode="&#xef;" horiz-adv-x="561" d="M-45 1286q0 25 10 48t27.5 40t40 27t47.5 10t47.5 -10t40 -27.5t27.5 -40t10 -47.5t-10 -47.5t-27 -40t-40 -27.5t-48 -10t-47.5 10t-40 27.5t-27.5 40t-10 47.5zM357 1286q0 25 10 47.5t27.5 40t40 27.5t47.5 10t47.5 -10.5t39.5 -27.5t27.5 -39.5t10.5 -47.5 t-10.5 -47.5t-27.5 -40t-39.5 -27.5t-47.5 -10q-26 0 -48.5 10t-39.5 27.5t-27 40t-10 47.5zM387 891v-752q0 -44 -7 -71t-22.5 -42t-40.5 -20.5t-61 -5.5q-48 0 -65 23.5t-17 72.5v836q0 49 17 72.5t65 23.5q131 0 131 -137z" />
<glyph unicode="&#xf0;" horiz-adv-x="1182" d="M1034 1456l-168 -88q176 -217 176 -666q0 -82 -9.5 -166t-31.5 -162t-57.5 -146.5t-89 -119t-125.5 -79.5t-166 -29q-107 0 -192.5 36t-145 102.5t-91.5 160.5t-32 211q0 113 31 207t88 162t138.5 105.5t183.5 37.5q164 0 276 -76q-16 194 -110 340l-234 -123 q-5 -4 -18 -4q-19 0 -33 17t-14 36q0 23 22 35l217 113q-103 106 -243 106q-25 0 -52 -4t-50 -8.5t-40.5 -8t-23.5 -3.5q-15 0 -25 11.5t-10 27.5q0 24 25 39t60.5 23t74 10.5t65.5 2.5q222 0 367 -118l194 102q11 4 17 4q20 0 33.5 -17.5t13.5 -35.5q0 -25 -21 -35zM555 82 q49 0 86.5 21t65.5 57t47.5 83t32 99.5t20 106.5t11 103.5t4 91.5t0.5 69q0 21 1 45.5t0 52.5q-25 31 -55 55.5t-62.5 40.5t-65 24.5t-62.5 8.5q-72 0 -121 -35t-79 -95t-43 -141t-13 -173q0 -105 17.5 -182.5t48 -129t73.5 -77t94 -25.5z" />
<glyph unicode="&#xf1;" horiz-adv-x="1188" d="M164 96v844q0 49 20 68.5t68 19.5q57 0 89 -44t32 -132v-14h4q54 87 144.5 138.5t213.5 51.5q289 0 289 -309v-623q0 -49 -17 -72.5t-65 -23.5q-69 0 -100 38.5t-31 129.5v512q0 211 -174 211q-45 0 -91 -19t-83.5 -51.5t-61.5 -75.5t-24 -90v-510q0 -44 -7 -72 t-22.5 -44t-40.5 -22.5t-61 -6.5q-48 0 -65 23.5t-17 72.5zM477 1241q-32 0 -45.5 -13.5t-21.5 -29.5t-18.5 -29.5t-37.5 -13.5q-57 0 -57 41q0 31 15 65t42 62.5t64.5 47t83.5 18.5q46 -3 109 -26l93 -34q11 -2 26.5 -5t27.5 -3q43 0 61 35q1 3 5 11t11 16.5t17.5 15 t25.5 6.5q25 0 38.5 -10.5t13.5 -28.5q0 -28 -15 -55q-60 -137 -174 -137q-24 0 -63 10.5t-78.5 23t-73.5 23t-49 10.5z" />
<glyph unicode="&#xf2;" horiz-adv-x="1143" d="M571 0q-111 0 -198.5 32t-147.5 96.5t-91.5 160.5t-31.5 225q0 130 33 227t94 160.5t147.5 95t194.5 31.5q109 0 196 -31.5t148 -95.5t93 -160.5t32 -226.5q0 -129 -31 -225t-91 -160.5t-147.5 -96.5t-199.5 -32zM571 82q55 0 100.5 18.5t78.5 66.5t51 132t18 215 q0 127 -18.5 210.5t-51.5 133t-78.5 69t-99.5 19.5q-52 0 -97 -19.5t-78.5 -69t-52.5 -133t-19 -210.5q0 -126 17 -209.5t49.5 -133t78 -69.5t102.5 -20zM527 1200l-201 266q-6 6 -6 19q0 21 29.5 35t80.5 14q40 0 73 -13.5t44 -39.5l107 -256q4 -7 4 -19q0 -18 -16 -28.5 t-40 -10.5q-50 0 -75 33z" />
<glyph unicode="&#xf3;" horiz-adv-x="1143" d="M571 0q-111 0 -198.5 32t-147.5 96.5t-91.5 160.5t-31.5 225q0 130 33 227t94 160.5t147.5 95t194.5 31.5q109 0 196 -31.5t148 -95.5t93 -160.5t32 -226.5q0 -129 -31 -225t-91 -160.5t-147.5 -96.5t-199.5 -32zM571 82q55 0 100.5 18.5t78.5 66.5t51 132t18 215 q0 127 -18.5 210.5t-51.5 133t-78.5 69t-99.5 19.5q-52 0 -97 -19.5t-78.5 -69t-52.5 -133t-19 -210.5q0 -126 17 -209.5t49.5 -133t78 -69.5t102.5 -20zM817 1466l-201 -266q-26 -33 -76 -33q-23 0 -39 10.5t-16 28.5q0 12 4 19l107 256q11 26 43.5 39.5t72.5 13.5 q51 0 81 -14t30 -35q0 -13 -6 -19z" />
<glyph unicode="&#xf4;" horiz-adv-x="1143" d="M571 0q-111 0 -198.5 32t-147.5 96.5t-91.5 160.5t-31.5 225q0 130 33 227t94 160.5t147.5 95t194.5 31.5q109 0 196 -31.5t148 -95.5t93 -160.5t32 -226.5q0 -129 -31 -225t-91 -160.5t-147.5 -96.5t-199.5 -32zM571 82q55 0 100.5 18.5t78.5 66.5t51 132t18 215 q0 127 -18.5 210.5t-51.5 133t-78.5 69t-99.5 19.5q-52 0 -97 -19.5t-78.5 -69t-52.5 -133t-19 -210.5q0 -126 17 -209.5t49.5 -133t78 -69.5t102.5 -20zM679 1202l-107 107l-106 -107q-30 -31 -62.5 -46t-70.5 -15q-33 0 -55.5 12.5t-22.5 30.5q0 10 8 18l209 217 q18 19 42 28t58 9t58.5 -9.5t42.5 -27.5l209 -217q8 -8 8 -18q0 -18 -22.5 -30.5t-55.5 -12.5q-75 0 -133 61z" />
<glyph unicode="&#xf5;" horiz-adv-x="1143" d="M571 0q-111 0 -198.5 32t-147.5 96.5t-91.5 160.5t-31.5 225q0 130 33 227t94 160.5t147.5 95t194.5 31.5q109 0 196 -31.5t148 -95.5t93 -160.5t32 -226.5q0 -129 -31 -225t-91 -160.5t-147.5 -96.5t-199.5 -32zM571 82q55 0 100.5 18.5t78.5 66.5t51 132t18 215 q0 127 -18.5 210.5t-51.5 133t-78.5 69t-99.5 19.5q-52 0 -97 -19.5t-78.5 -69t-52.5 -133t-19 -210.5q0 -126 17 -209.5t49.5 -133t78 -69.5t102.5 -20zM434 1241q-32 0 -45.5 -13.5t-21.5 -29.5t-18.5 -29.5t-37.5 -13.5q-57 0 -57 41q0 31 15 65t42 62.5t64.5 47 t83.5 18.5q46 -3 109 -26l93 -34q11 -2 26.5 -5t27.5 -3q43 0 61 35q1 3 5 11t11 16.5t17.5 15t25.5 6.5q25 0 38.5 -10.5t13.5 -28.5q0 -28 -15 -55q-60 -137 -174 -137q-24 0 -63 10.5t-78.5 23t-73.5 23t-49 10.5z" />
<glyph unicode="&#xf6;" horiz-adv-x="1143" d="M571 0q-111 0 -198.5 32t-147.5 96.5t-91.5 160.5t-31.5 225q0 130 33 227t94 160.5t147.5 95t194.5 31.5q109 0 196 -31.5t148 -95.5t93 -160.5t32 -226.5q0 -129 -31 -225t-91 -160.5t-147.5 -96.5t-199.5 -32zM571 82q55 0 100.5 18.5t78.5 66.5t51 132t18 215 q0 127 -18.5 210.5t-51.5 133t-78.5 69t-99.5 19.5q-52 0 -97 -19.5t-78.5 -69t-52.5 -133t-19 -210.5q0 -126 17 -209.5t49.5 -133t78 -69.5t102.5 -20zM245 1286q0 25 10 48t27.5 40t40 27t47.5 10t47.5 -10t40 -27.5t27.5 -40t10 -47.5t-10 -47.5t-27 -40t-40 -27.5 t-48 -10t-47.5 10t-40 27.5t-27.5 40t-10 47.5zM647 1286q0 25 10 47.5t27.5 40t40 27.5t47.5 10t47.5 -10.5t39.5 -27.5t27.5 -39.5t10.5 -47.5t-10.5 -47.5t-27.5 -40t-39.5 -27.5t-47.5 -10q-26 0 -48.5 10t-39.5 27.5t-27 40t-10 47.5z" />
<glyph unicode="&#xf7;" horiz-adv-x="1434" d="M586 1092q0 28 10.5 52t28.5 41.5t41.5 27.5t50.5 10t51 -10t42 -28t28 -42t10 -51t-10 -50.5t-27.5 -41.5t-41.5 -28.5t-52 -10.5q-27 0 -51 10.5t-41.5 28t-28 41.5t-10.5 51zM586 338q0 27 10.5 51t28.5 42t42 28t50 10q27 0 51 -10.5t41.5 -28t28 -41.5t10.5 -51 q0 -28 -10 -52t-27.5 -41.5t-41.5 -27.5t-52 -10q-27 0 -50.5 10t-41.5 27.5t-28.5 41.5t-10.5 52zM1208 633h-983h-3q-19 0 -28.5 25.5t-9.5 56.5t9.5 56.5t28.5 25.5h3h983q20 0 30 -25t10 -57t-10 -57t-30 -25z" />
<glyph unicode="&#xf8;" horiz-adv-x="1143" d="M963 1100l-93 -160q170 -128 170 -426q0 -129 -31 -225t-91 -160.5t-147.5 -96.5t-199.5 -32q-130 0 -221 41l-106 -186q-6 -13 -25 -13q-13 0 -27 5t-26 12.5t-19.5 17.5t-7.5 21q0 4 2 10l111 194q-150 130 -150 412q0 130 33 227t94 160.5t147.5 95t194.5 31.5 t191 -31l90 160q6 12 27 12q13 0 28.5 -5.5t28 -13.5t21 -19t8.5 -21q0 -4 -2 -10zM571 82q55 0 100.5 18.5t78.5 66.5t51 132t18 215q0 170 -37 274l-370 -643q55 -63 159 -63zM324 514q0 -151 24 -244l359 633q-53 43 -136 43q-52 0 -97 -19.5t-78.5 -69t-52.5 -133 t-19 -210.5z" />
<glyph unicode="&#xf9;" horiz-adv-x="1188" d="M377 860v-512q0 -211 174 -211q45 0 91 19t83.5 51.5t61.5 75t24 90.5v508q0 46 7.5 74.5t23 44.5t40.5 22t60 6q48 0 65 -23.5t17 -72.5v-844q0 -48 -20 -68t-68 -20q-121 0 -121 176v14h-4q-54 -87 -145.5 -138.5t-212.5 -51.5q-289 0 -289 309v623q0 49 17 72.5 t65 23.5q69 0 100 -38.5t31 -129.5zM549 1200l-201 266q-6 6 -6 19q0 21 29.5 35t80.5 14q40 0 73 -13.5t44 -39.5l107 -256q4 -7 4 -19q0 -18 -16 -28.5t-40 -10.5q-50 0 -75 33z" />
<glyph unicode="&#xfa;" horiz-adv-x="1188" d="M377 860v-512q0 -211 174 -211q45 0 91 19t83.5 51.5t61.5 75t24 90.5v508q0 46 7.5 74.5t23 44.5t40.5 22t60 6q48 0 65 -23.5t17 -72.5v-844q0 -48 -20 -68t-68 -20q-121 0 -121 176v14h-4q-54 -87 -145.5 -138.5t-212.5 -51.5q-289 0 -289 309v623q0 49 17 72.5 t65 23.5q69 0 100 -38.5t31 -129.5zM840 1466l-201 -266q-26 -33 -76 -33q-23 0 -39 10.5t-16 28.5q0 12 4 19l107 256q11 26 43.5 39.5t72.5 13.5q51 0 81 -14t30 -35q0 -13 -6 -19z" />
<glyph unicode="&#xfb;" horiz-adv-x="1188" d="M377 860v-512q0 -211 174 -211q45 0 91 19t83.5 51.5t61.5 75t24 90.5v508q0 46 7.5 74.5t23 44.5t40.5 22t60 6q48 0 65 -23.5t17 -72.5v-844q0 -48 -20 -68t-68 -20q-121 0 -121 176v14h-4q-54 -87 -145.5 -138.5t-212.5 -51.5q-289 0 -289 309v623q0 49 17 72.5 t65 23.5q69 0 100 -38.5t31 -129.5zM700 1202l-107 107l-106 -107q-30 -31 -62.5 -46t-70.5 -15q-33 0 -55.5 12.5t-22.5 30.5q0 10 8 18l209 217q18 19 42 28t58 9t58.5 -9.5t42.5 -27.5l209 -217q8 -8 8 -18q0 -18 -22.5 -30.5t-55.5 -12.5q-75 0 -133 61z" />
<glyph unicode="&#xfc;" horiz-adv-x="1188" d="M377 860v-512q0 -211 174 -211q45 0 91 19t83.5 51.5t61.5 75t24 90.5v508q0 46 7.5 74.5t23 44.5t40.5 22t60 6q48 0 65 -23.5t17 -72.5v-844q0 -48 -20 -68t-68 -20q-121 0 -121 176v14h-4q-54 -87 -145.5 -138.5t-212.5 -51.5q-289 0 -289 309v623q0 49 17 72.5 t65 23.5q69 0 100 -38.5t31 -129.5zM268 1286q0 25 10 48t27.5 40t40 27t47.5 10t47.5 -10t40 -27.5t27.5 -40t10 -47.5t-10 -47.5t-27 -40t-40 -27.5t-48 -10t-47.5 10t-40 27.5t-27.5 40t-10 47.5zM670 1286q0 25 10 47.5t27.5 40t40 27.5t47.5 10t47.5 -10.5t39.5 -27.5 t27.5 -39.5t10.5 -47.5t-10.5 -47.5t-27.5 -40t-39.5 -27.5t-47.5 -10q-26 0 -48.5 10t-39.5 27.5t-27 40t-10 47.5z" />
<glyph unicode="&#xfd;" horiz-adv-x="1049" d="M977 926l-354 -910q-20 -50 -43.5 -104.5t-52.5 -106t-63.5 -98t-74.5 -82t-86.5 -56t-99.5 -20.5q-42 0 -70.5 21.5t-28.5 52.5q0 92 111 92q57 0 97 16t69.5 48.5t52 83t43.5 119.5l-405 944q-5 11 -8 22t-3 25q0 55 76 55q51 0 95.5 -33.5t72.5 -103.5l268 -670h11 l123 359q16 46 40 125t56 194q16 60 42 94.5t77 34.5q65 0 65 -47q0 -26 -10 -55zM771 1466l-201 -266q-26 -33 -76 -33q-23 0 -39 10.5t-16 28.5q0 12 4 19l107 256q11 26 43.5 39.5t72.5 13.5q51 0 81 -14t30 -35q0 -13 -6 -19z" />
<glyph unicode="&#xfe;" horiz-adv-x="1159" d="M164 -354v1822q0 48 27 68t67 20q66 0 97.5 -42.5t31.5 -133.5v-374l-14 -170h2q27 45 59.5 81t71.5 60.5t87 37.5t107 13q351 0 351 -463q0 -141 -33.5 -246.5t-96.5 -176.5t-153.5 -106.5t-204.5 -35.5q-104 0 -186 39v-344q0 -44 -7 -72.5t-22.5 -45t-40.5 -22.5 t-61 -6q-48 0 -65 23t-17 74zM829 549q0 102 -15.5 168t-43.5 104.5t-67 54t-85 15.5q-42 0 -85 -21t-78 -54.5t-57.5 -76.5t-22.5 -88v-444q0 -23 13 -45.5t37.5 -40t59.5 -28.5t78 -11q60 0 109.5 23t84 77.5t53.5 144t19 222.5z" />
<glyph unicode="&#xff;" horiz-adv-x="1049" d="M977 926l-354 -910q-20 -50 -43.5 -104.5t-52.5 -106t-63.5 -98t-74.5 -82t-86.5 -56t-99.5 -20.5q-42 0 -70.5 21.5t-28.5 52.5q0 92 111 92q57 0 97 16t69.5 48.5t52 83t43.5 119.5l-405 944q-5 11 -8 22t-3 25q0 55 76 55q51 0 95.5 -33.5t72.5 -103.5l268 -670h11 l123 359q16 46 40 125t56 194q16 60 42 94.5t77 34.5q65 0 65 -47q0 -26 -10 -55zM199 1286q0 25 10 48t27.5 40t40 27t47.5 10t47.5 -10t40 -27.5t27.5 -40t10 -47.5t-10 -47.5t-27 -40t-40 -27.5t-48 -10t-47.5 10t-40 27.5t-27.5 40t-10 47.5zM601 1286q0 25 10 47.5 t27.5 40t40 27.5t47.5 10t47.5 -10.5t39.5 -27.5t27.5 -39.5t10.5 -47.5t-10.5 -47.5t-27.5 -40t-39.5 -27.5t-47.5 -10q-26 0 -48.5 10t-39.5 27.5t-27 40t-10 47.5z" />
<glyph unicode="&#x11e;" horiz-adv-x="1393" d="M1094 1083q-60 0 -89.5 31t-29.5 103v114q-66 17 -166 17q-102 0 -188 -41.5t-148.5 -122t-97.5 -199.5t-35 -274q0 -173 30 -289.5t87.5 -187t141 -100.5t189.5 -30q144 0 246 41v443h-229q-25 0 -38 16.5t-13 38.5q0 24 14.5 40.5t42.5 16.5h348q54 0 72 -19.5 t18 -62.5v-423q0 -29 -4 -49t-12 -33.5t-20 -22t-29 -14.5q-194 -76 -434 -76q-170 0 -291 49.5t-199 142t-114.5 225t-36.5 298.5q0 189 53 328t144.5 229.5t214.5 135t263 44.5q48 0 107 -5t114 -15t98.5 -25t61.5 -36q17 -20 17 -64v-121q0 -103 -88 -103zM1067 1831 q0 -108 -92.5 -183t-239.5 -75q-145 0 -237 75t-92 183q0 24 15.5 40.5t45.5 16.5q26 0 48.5 -15.5t33.5 -39.5q29 -71 74 -97t112 -26q69 0 114.5 26t74.5 97q11 24 33.5 39.5t48.5 15.5q30 0 45.5 -16.5t15.5 -40.5z" />
<glyph unicode="&#x11f;" horiz-adv-x="1163" d="M539 -369q69 0 127 21t101 55.5t67 79t24 90.5q0 54 -29 88t-77 54.5t-109.5 31t-126 17.5t-127 13.5t-112.5 19.5q-78 20 -124.5 60.5t-46.5 100.5q0 27 10.5 48t30 38t47.5 32t63 30q37 16 62 28.5t39 22.5v6q-38 15 -66.5 41t-47.5 58.5t-28 68t-9 70.5q0 88 35 149.5 t92.5 100t131.5 56t152 17.5q30 0 65.5 -4t70.5 -12.5t66.5 -20t53.5 -26.5q11 5 16 18.5t8 31.5t7 37.5t13.5 36t28 27t50.5 10.5q29 0 50.5 -25.5t21.5 -60.5q0 -66 -117 -135q76 -82 76 -188q0 -69 -33 -126t-89 -97.5t-130 -63t-155 -22.5q-106 0 -164 18 q-23 -17 -44 -29.5t-37 -24.5t-26 -26t-10 -35q0 -14 9 -27t33.5 -24.5t69 -19.5t115.5 -11q126 -6 220 -29.5t157 -61.5t94 -89t31 -112q0 -84 -42 -155.5t-118.5 -123t-184.5 -80.5t-241 -29q-84 0 -152 19t-116.5 52.5t-75 79.5t-26.5 101q0 49 21 87.5t49.5 65.5 t59 41.5t50.5 14.5q22 0 34.5 -12t12.5 -29q0 -8 -10.5 -20t-23.5 -31t-23.5 -44t-10.5 -58q0 -42 20.5 -76t56.5 -58.5t85 -37.5t105 -13zM817 721q0 50 -13.5 91.5t-39 71t-62.5 46t-84 16.5q-93 0 -146.5 -62t-53.5 -171q0 -51 13.5 -92t39 -70.5t62.5 -45.5t85 -16 q45 0 82 17t63 48t40 73.5t14 93.5zM899 1399q0 -55 -21.5 -102.5t-61 -82.5t-95 -55t-123.5 -20t-123 20t-94 55t-60.5 82.5t-21.5 102.5q0 23 13.5 40t41.5 17q25 0 45 -15t29 -40q15 -40 33 -65t39.5 -38.5t46 -18.5t51.5 -5q28 0 52.5 5t46.5 18.5t40 38.5t33 65 q9 25 29 40t45 15q28 0 41.5 -17t13.5 -40z" />
<glyph unicode="&#x130;" horiz-adv-x="836" d="M733 0h-631q-61 0 -61 49q0 28 17 44t65 16h184v1234h-184q-48 0 -65 16t-17 44q0 49 61 49h631q62 0 62 -49q0 -60 -82 -60h-185v-1234h185q82 0 82 -60q0 -49 -62 -49zM331 1622q-37 38 -37 90t37 89.5t90 37.5t90 -37.5t37 -89.5t-37.5 -89.5t-89.5 -37.5t-90 37z" />
<glyph unicode="&#x131;" horiz-adv-x="561" d="M387 891v-752q0 -44 -7 -71t-22.5 -42t-40.5 -20.5t-61 -5.5q-48 0 -65 23.5t-17 72.5v836q0 49 17 72.5t65 23.5q131 0 131 -137z" />
<glyph unicode="&#x141;" horiz-adv-x="1219" d="M868 911l-393 -247v-555h465v141q0 71 29.5 102t89.5 31q88 0 88 -102v-215q0 -36 -30 -51t-93 -15h-676q-94 0 -94 102v424l-176 -110q-8 -4 -12 -4q-20 0 -44 26t-26 47q0 12 10 19l248 158v688q0 56 21 79t69 23q64 0 97.5 -40t33.5 -118v-491l326 207q4 2 10 2 q20 0 43 -26.5t25 -51.5q0 -18 -11 -23z" />
<glyph unicode="&#x142;" horiz-adv-x="696" d="M18 606l209 129v725q0 49 17.5 72.5t64.5 23.5q69 0 100 -38.5t31 -128.5v-521l181 113q6 4 18 4q22 0 39.5 -19.5t17.5 -43.5q0 -26 -20 -37l-236 -148v-598q0 -87 -29 -113t-102 -26q-46 0 -64 23.5t-18 72.5v508l-149 -92q-9 -6 -21 -6q-22 0 -39.5 20.5t-17.5 44.5 q0 23 18 35z" />
<glyph unicode="&#x152;" horiz-adv-x="1896" d="M752 104q96 0 145 13v1218q-35 7 -71.5 10t-73.5 3q-88 0 -152.5 -31.5t-110 -82.5t-74.5 -117t-46 -135.5t-23 -136.5t-6 -120q0 -49 5.5 -114t21 -134t44 -136t74 -119.5t111.5 -85t156 -32.5zM1696 1096q-61 0 -90 30.5t-29 102.5v114h-459v-536h404q27 0 42 -17 t15 -40q0 -10 -5 -20t-13 -18t-18.5 -13t-20.5 -5h-404v-585h490v114q0 72 29 102.5t89 30.5q46 0 67.5 -24t21.5 -78v-178q0 -45 -29.5 -60.5t-93.5 -15.5h-940q-143 0 -246.5 39.5t-175 103.5t-115 144t-67 160.5t-31.5 154t-8 123.5q0 54 8.5 129t33 156t69 160 t116 141.5t174 101.5t242.5 39h909q64 0 93.5 -15.5t29.5 -60.5v-178q0 -54 -21.5 -78t-66.5 -24z" />
<glyph unicode="&#x153;" horiz-adv-x="1792" d="M1608 258q9 11 22.5 17t28.5 6q18 0 32.5 -12t14.5 -31q0 -20 -7 -36.5t-20 -33.5q-135 -168 -376 -168q-253 0 -373 145q-118 -145 -359 -145q-111 0 -198.5 32t-147.5 96.5t-91.5 160.5t-31.5 225q0 130 33 227t94 160.5t147.5 95t194.5 31.5q242 0 363 -151 q121 151 364 151q93 0 169 -27t130 -79.5t83.5 -129.5t29.5 -176q0 -100 -117 -100h-551q-1 -8 -1.5 -19.5t-0.5 -25.5q0 -88 17 -158.5t52 -120t88.5 -76t127.5 -26.5q60 0 103 15.5t73.5 38t51.5 47.5t36 43zM571 82q55 0 100.5 18.5t78.5 66.5t51 132t18 215 q0 127 -18.5 210.5t-51.5 133t-78.5 69t-99.5 19.5q-52 0 -97 -19.5t-78.5 -69t-52.5 -133t-19 -210.5q0 -126 17 -209.5t49.5 -133t78 -69.5t102.5 -20zM1286 946q-99 0 -161.5 -83.5t-75.5 -260.5h383q36 0 52.5 13t16.5 47q0 69 -17.5 122t-47 89t-68.5 54.5t-82 18.5z " />
<glyph unicode="&#x15e;" horiz-adv-x="1292" d="M987 1079q-61 0 -90 29.5t-29 97.5v105q-8 1 -34 10q-99 27 -207 27q-69 0 -123.5 -23.5t-86 -61.5t-47.5 -81.5t-16 -87.5q0 -103 57.5 -155.5t219.5 -111.5q98 -35 144 -52.5t117.5 -47.5t102.5 -50t73 -51.5t58.5 -63t29.5 -73.5t13 -92q0 -166 -135.5 -275 t-378.5 -122v-86q217 0 217 -160q0 -84 -67 -134t-172 -50q-65 0 -130 24t-65 64q0 16 12.5 28.5t32.5 12.5q14 0 57.5 -12.5t67.5 -12.5q51 0 76 22t25 52q0 54 -38 70t-128 16v166q-88 6 -179.5 24.5t-152.5 43.5q-48 19 -64 37t-16 61v123q0 98 88 98q60 0 89.5 -30 t29.5 -99v-111q132 -43 250 -43q165 0 258.5 81.5t93.5 189.5q0 51 -19.5 89.5t-67 72t-104 59t-153.5 61.5q-58 22 -91.5 34.5t-81.5 33t-75.5 35t-63.5 36.5t-56 42t-43 47t-34 56t-18.5 64.5t-7.5 75.5q0 168 129 269.5t358 101.5q174 0 379 -59q50 -16 67 -34.5 t17 -62.5v-118q0 -99 -88 -99z" />
<glyph unicode="&#x15f;" horiz-adv-x="1012" d="M715 250q0 25 -8 47.5t-18.5 38.5t-33.5 32.5t-40 27t-52 24.5t-54.5 21t-62.5 22q-49 16 -78.5 27t-68.5 28t-62.5 32t-49.5 36.5t-40 45.5t-23 55.5t-9 68.5q0 66 28.5 116.5t70 79t96 47t98.5 24t86 5.5q170 0 266 -51q108 -57 108 -137q0 -33 -24 -53.5t-56 -20.5 q-77 0 -110 74q-52 106 -182 106q-76 0 -126.5 -38t-50.5 -113q0 -27 7.5 -49.5t26.5 -41t36.5 -32t52.5 -28.5t57.5 -23.5t67.5 -24.5q49 -17 74 -26t69.5 -28t68.5 -33.5t56 -37.5t48.5 -46t28.5 -54t12 -66q0 -128 -104 -210t-273 -93v-80q207 0 207 -151 q0 -82 -64 -129.5t-164 -47.5q-63 0 -124.5 22.5t-61.5 61.5q0 16 11.5 27.5t31.5 11.5q13 0 54.5 -11t64.5 -11q49 0 72.5 20.5t23.5 48.5q0 52 -36.5 67t-121.5 15v156q-139 11 -239 64q-101 50 -101 135q0 32 25 53.5t55 21.5q79 0 113 -73q16 -34 36 -57.5t65.5 -43.5 t109.5 -20q90 0 150.5 41.5t60.5 126.5z" />
<glyph unicode="&#x160;" horiz-adv-x="1292" d="M987 1079q-61 0 -90 29t-29 98v105q-4 1 -12.5 3.5t-21.5 6.5q-49 14 -101 20.5t-106 6.5q-71 0 -122 -23t-85 -59.5t-50 -81.5t-16 -90q0 -53 12.5 -90t44 -66.5t85 -55.5t135.5 -55q52 -19 84.5 -30.5t58.5 -21.5t52.5 -21t65.5 -27q38 -16 61.5 -27.5t41.5 -22.5 t34 -23t39 -29q48 -37 74.5 -92.5t26.5 -135.5q0 -87 -38.5 -160t-112 -125.5t-180 -82t-242.5 -29.5q-59 0 -130.5 9.5t-136.5 24.5t-115 33.5t-67 37.5q-16 17 -16 61v123q0 98 88 98q60 0 89.5 -30t29.5 -99v-111q130 -43 250 -43q83 0 148.5 22.5t110.5 60.5t69 86.5 t24 101.5q0 54 -23.5 94.5t-76 76t-135.5 70t-201 75.5l-81 33q-25 10 -42.5 18t-32.5 16.5l-30 17t-34 20.5q-41 25 -70 54t-48 64t-28.5 76.5t-12.5 90.5q0 84 33.5 152.5t96.5 117t153 75t204 26.5q172 0 379 -59q25 -8 41 -16t25.5 -18.5t13.5 -25.5t4 -37v-118 q0 -99 -88 -99zM521 1819l113 -111l115 111q66 63 143 63q36 0 60 -13t24 -32q0 -10 -8 -18l-225 -224q-41 -39 -101 -39q-75 0 -114 39l-226 224q-8 8 -8 18q0 19 24 32t60 13q77 0 143 -63z" />
<glyph unicode="&#x161;" horiz-adv-x="1012" d="M715 250q-5 62 -40.5 100.5t-111.5 69.5l-117 43l-79 27q-51 19 -96.5 40.5t-80 51.5t-55 72t-20.5 102q0 58 20 101t53 73.5t74 49.5t83.5 29.5t81.5 14.5t67 4q90 0 159.5 -15.5t117.5 -41.5t72.5 -60t24.5 -71q0 -33 -24 -53.5t-56 -20.5q-39 0 -66 18.5t-44 55.5 q-51 106 -182 106q-81 0 -129.5 -40t-48.5 -121q0 -27 11.5 -48.5t29 -39t39.5 -31t44 -22.5l57 -24l68 -24q28 -10 55 -18.5t53.5 -18.5t52 -22.5t51.5 -28.5q29 -17 55 -37t46 -44t32 -54t12 -68q0 -68 -31 -124.5t-87 -96.5t-134 -62t-172 -22q-75 0 -146.5 13.5 t-128 39.5t-91 63t-34.5 85q0 16 7 30t18 24t25.5 15.5t29.5 5.5q79 0 113 -73q10 -21 24.5 -42.5t38.5 -39t59.5 -28.5t88.5 -11q45 0 83.5 10t67 31t44.5 52.5t16 74.5zM403 1395l106 -107l107 107q30 30 62.5 45.5t70.5 15.5q33 0 55.5 -12.5t22.5 -30.5q0 -10 -8 -18 l-209 -217q-18 -19 -42 -28t-59 -9q-65 -1 -100 37l-209 217q-8 8 -8 18q0 18 22.5 30.5t55.5 12.5q75 0 133 -61z" />
<glyph unicode="&#x178;" horiz-adv-x="1120" d="M549 0q-96 0 -96 102v447l-404 780q-12 28 -12 51q0 31 20.5 51.5t53.5 20.5q27 0 49 -5t41 -17.5t35.5 -33t31.5 -50.5l326 -644h8l307 641q52 109 125 109q29 0 43.5 -19.5t14.5 -48.5q0 -20 -11 -45l-407 -790v-426q0 -71 -29.5 -97t-95.5 -26zM660 1744 q0 58 41.5 99.5t97.5 41.5t99 -41.5t43 -99.5q0 -54 -43.5 -96.5t-98.5 -42.5t-97 42.5t-42 96.5zM236 1746q0 56 42 98.5t95 42.5q58 0 101 -42t43 -99q0 -55 -43 -97t-101 -42q-52 0 -94.5 42.5t-42.5 96.5z" />
<glyph unicode="&#x17d;" horiz-adv-x="1212" d="M1008 0h-834q-46 0 -69 29t-23 71q0 49 16 74l785 1169h-549v-114q0 -72 -29 -102.5t-90 -30.5q-45 0 -66.5 24t-21.5 78v178q0 45 29.5 60.5t93.5 15.5h772q45 0 68.5 -30.5t23.5 -73.5q0 -46 -16 -70l-803 -1169h629v114q0 72 29 102.5t89 30.5q45 0 66.5 -24t21.5 -78 v-178q0 -45 -29 -60.5t-93 -15.5zM521 1819l113 -111l115 111q66 63 143 63q36 0 60 -13t24 -32q0 -10 -8 -18l-225 -224q-41 -39 -101 -39q-75 0 -114 39l-226 224q-8 8 -8 18q0 19 24 32t60 13q77 0 143 -63z" />
<glyph unicode="&#x17e;" horiz-adv-x="971" d="M170 1028h664q39 0 57 -18t18 -41q0 -27 -8 -49t-22 -41l-590 -783h418v49q0 42 5.5 67.5t18.5 39.5t34.5 19t53.5 5q43 0 59.5 -20.5t16.5 -65.5v-127q0 -63 -66 -63h-690q-42 0 -60 17.5t-18 41.5q0 47 31 91l586 782h-385v-49q0 -40 -5 -65.5t-18 -40t-35 -20 t-55 -5.5q-42 0 -59 20.5t-17 65.5v127q0 63 66 63zM412 1395l106 -107l107 107q30 30 62.5 45.5t70.5 15.5q33 0 55.5 -12.5t22.5 -30.5q0 -10 -8 -18l-209 -217q-18 -19 -42 -28t-59 -9q-65 -1 -100 37l-209 217q-8 8 -8 18q0 18 22.5 30.5t55.5 12.5q75 0 133 -61z" />
<glyph unicode="&#x192;" d="M180 973q7 32 23 42.5t43 12.5h147q31 122 75 209.5t84.5 132t96.5 84.5q147 102 320 102q82 0 130 -29.5t48 -70.5q0 -38 -21.5 -61t-58.5 -23q-24 0 -43.5 10.5t-33.5 26t-28 30.5t-34.5 25.5t-46.5 10.5q-35 0 -67.5 -13t-67 -43t-63.5 -90t-46 -145l-33 -156h227 q64 0 64 -39q0 -23 -18 -41t-50 -18h-243l-146 -682q-66 -313 -215 -494q-52 -65 -137 -135t-147 -70q-24 0 -43 9t-19 26q3 51 66 84q30 16 41 22.5t37 25t61.5 66.5t65.5 143t45 165l178 840h-117q-40 0 -57 10t-17 33z" />
<glyph unicode="&#x2c6;" horiz-adv-x="1126" d="M680 1202l-107 107l-106 -107q-30 -31 -62.5 -46t-70.5 -15q-33 0 -55.5 12.5t-22.5 30.5q0 10 8 18l209 217q18 19 42 28t58 9t58.5 -9.5t42.5 -27.5l209 -217q8 -8 8 -18q0 -18 -22.5 -30.5t-55.5 -12.5q-75 0 -133 61z" />
<glyph unicode="&#x2c7;" horiz-adv-x="1210" d="M467 1395l106 -107l107 107q30 30 62.5 45.5t70.5 15.5q33 0 55.5 -12.5t22.5 -30.5q0 -10 -8 -18l-209 -217q-18 -19 -42 -28t-59 -9q-65 -1 -100 37l-209 217q-8 8 -8 18q0 18 22.5 30.5t55.5 12.5q75 0 133 -61z" />
<glyph unicode="&#x2d8;" horiz-adv-x="1112" d="M856 1399q0 -55 -21.5 -102.5t-61 -82.5t-95 -55t-123.5 -20t-123 20t-94 55t-60.5 82.5t-21.5 102.5q0 23 13.5 40t41.5 17q25 0 45 -15t29 -40q15 -40 33 -65t39.5 -38.5t46 -18.5t51.5 -5q28 0 52.5 5t46.5 18.5t40 38.5t33 65q9 25 29 40t45 15q28 0 41.5 -17 t13.5 -40z" />
<glyph unicode="&#x2d9;" horiz-adv-x="1114" d="M467 1198q-37 38 -37 90t37 89.5t90 37.5t90 -37.5t37 -89.5t-37.5 -89.5t-89.5 -37.5t-90 37z" />
<glyph unicode="&#x2da;" horiz-adv-x="1098" d="M549 1249q21 0 40 8.5t33.5 23.5t23.5 34.5t9 40.5t-9 40.5t-24 34.5t-34 24t-39 9q-21 0 -40.5 -9t-35 -24t-24.5 -34.5t-9 -40.5t9 -40.5t24 -34.5t35 -23.5t41 -8.5zM328 1356q0 47 17 87.5t47 70t70.5 46.5t86.5 17t86.5 -17t70.5 -47t47 -70.5t17 -86.5t-17.5 -86 t-47.5 -70t-70.5 -47.5t-85.5 -17.5q-46 0 -86.5 17t-70.5 47t-47 70.5t-17 86.5z" />
<glyph unicode="&#x2db;" horiz-adv-x="1124" d="M655 41h109q-158 -130 -158 -240q0 -38 24 -63t62 -25q44 0 68 13.5t28 15.5q27 16 41 16q17 0 28 -11t11 -28q0 -47 -72 -76.5t-147 -29.5q-102 0 -150 49t-48 119q0 61 54 133t150 127z" />
<glyph unicode="&#x2dc;" horiz-adv-x="1141" d="M432 1241q-32 0 -45.5 -13.5t-21.5 -29.5t-18.5 -29.5t-37.5 -13.5q-57 0 -57 41q0 31 15 65t42 62.5t64.5 47t83.5 18.5q46 -3 109 -26l93 -34q11 -2 26.5 -5t27.5 -3q43 0 61 35q1 3 5 11t11 16.5t17.5 15t25.5 6.5q25 0 38.5 -10.5t13.5 -28.5q0 -28 -15 -55 q-60 -137 -174 -137q-24 0 -63 10.5t-78.5 23t-73.5 23t-49 10.5z" />
<glyph unicode="&#x2dd;" horiz-adv-x="1341" d="M655 1464l-188 -264q-23 -33 -68 -33q-22 0 -36.5 10.5t-14.5 28.5q0 11 4 19l103 254q10 26 39.5 39.5t66.5 13.5q46 0 73.5 -14t27.5 -35q0 -12 -7 -19zM987 1464l-188 -264q-25 -33 -68 -33q-22 0 -36.5 10.5t-14.5 28.5q0 11 4 19l102 254q11 26 40.5 39.5t66.5 13.5 q45 0 72.5 -14t27.5 -35q0 -13 -6 -19z" />
<glyph unicode="&#x401;" horiz-adv-x="1231" d="M1030 1096q-61 0 -90 30.5t-29 102.5v114h-485v-536h430q27 0 42 -17t15 -40q0 -10 -5 -20t-13 -18t-18 -13t-21 -5h-430v-585h516v114q0 72 29 102.5t90 30.5q45 0 66.5 -24t21.5 -78v-178q0 -45 -29.5 -60.5t-93.5 -15.5h-727q-94 0 -94 102v1248q0 102 94 102h696 q64 0 93.5 -15.5t29.5 -60.5v-178q0 -54 -21.5 -78t-66.5 -24zM723 1743q0 58 41.5 99.5t97.5 41.5t99 -41.5t43 -99.5q0 -54 -43.5 -96.5t-98.5 -42.5t-97 42.5t-42 96.5zM299 1745q0 56 42 98.5t95 42.5q58 0 101 -42t43 -99q0 -55 -43 -97t-101 -42q-52 0 -94.5 42.5 t-42.5 96.5z" />
<glyph unicode="&#x402;" horiz-adv-x="1708" d="M1067 782q-65 0 -144.5 -20.5t-146.5 -59.5v-579q0 -70 -30 -96.5t-97 -26.5q-94 0 -94 102v1241h-307v-145q0 -71 -29.5 -102t-89.5 -31q-88 0 -88 102v209q0 44 29.5 60t93.5 16h1003q64 0 93.5 -16t29.5 -60v-198q0 -54 -21.5 -78.5t-66.5 -24.5q-60 0 -89.5 31 t-29.5 102v135h-307v-526q174 80 348 80q461 0 461 -434q0 -101 -38.5 -189.5t-100.5 -147.5t-139 -92.5t-156 -33.5q-68 0 -68 49q0 30 24.5 50.5t63.5 25.5q29 4 53.5 14t49.5 34.5t41.5 60.5t27.5 95t11 136q0 152 -71.5 234.5t-215.5 82.5z" />
<glyph unicode="&#x403;" horiz-adv-x="1128" d="M426 1343v-1210q0 -72 -31 -102.5t-96 -30.5q-94 0 -94 102v1248q0 102 94 102h676q64 0 93.5 -16t29.5 -60v-219q0 -53 -21.5 -77.5t-66.5 -24.5q-60 0 -89.5 31t-29.5 102v155h-465zM888 1903l-217 -301q-27 -33 -76 -33q-26 0 -42 10.5t-16 28.5q0 12 4 20l117 291 q12 26 46 39.5t75 13.5q54 0 84.5 -13.5t30.5 -35.5q0 -11 -6 -20z" />
<glyph unicode="&#x404;" horiz-adv-x="1190" d="M913 682h-573q2 -165 33 -279.5t90 -178.5t134.5 -91t178.5 -27q125 0 268 60l39 16q14 4 17 4q20 0 34.5 -19t14.5 -42q0 -30 -27 -41l-35 -14q-171 -70 -368 -70q-311 0 -460.5 185t-149.5 528q0 187 47.5 330.5t133 231.5t198 132.5t247.5 44.5q166 0 299 -43 q50 -16 67 -35t17 -65v-123q0 -54 -21.5 -78.5t-66.5 -24.5q-60 0 -89.5 31t-29.5 103v114q-80 17 -149 17q-181 0 -292 -141t-128 -412h571q15 0 23 -16.5t8 -39.5t-8 -40t-23 -17z" />
<glyph unicode="&#x405;" horiz-adv-x="1292" d="M987 1079q-61 0 -90 29t-29 98v105q-4 1 -12.5 3.5t-21.5 6.5q-49 14 -101 20.5t-106 6.5q-71 0 -122 -23t-85 -59.5t-50 -81.5t-16 -90q0 -53 12.5 -90t44 -66.5t85 -55.5t135.5 -55q52 -19 84.5 -30.5t58.5 -21.5t52.5 -21t65.5 -27q38 -16 61.5 -27.5t41.5 -22.5 t34 -23t39 -29q48 -37 74.5 -92.5t26.5 -135.5q0 -87 -38.5 -160t-112 -125.5t-180 -82t-242.5 -29.5q-59 0 -130.5 9.5t-136.5 24.5t-115 33.5t-67 37.5q-16 17 -16 61v123q0 98 88 98q60 0 89.5 -30t29.5 -99v-111q130 -43 250 -43q83 0 148.5 22.5t110.5 60.5t69 86.5 t24 101.5q0 54 -23.5 94.5t-76 76t-135.5 70t-201 75.5l-81 33q-25 10 -42.5 18t-32.5 16.5l-30 17t-34 20.5q-41 25 -70 54t-48 64t-28.5 76.5t-12.5 90.5q0 84 33.5 152.5t96.5 117t153 75t204 26.5q172 0 379 -59q25 -8 41 -16t25.5 -18.5t13.5 -25.5t4 -37v-118 q0 -99 -88 -99z" />
<glyph unicode="&#x406;" horiz-adv-x="836" d="M733 0h-631q-61 0 -61 49q0 28 17 44t65 16h184v1234h-184q-48 0 -65 16t-17 44q0 49 61 49h631q62 0 62 -49q0 -60 -82 -60h-185v-1234h185q82 0 82 -60q0 -49 -62 -49z" />
<glyph unicode="&#x407;" horiz-adv-x="836" d="M733 0h-631q-61 0 -61 49q0 28 17 44t65 16h184v1234h-184q-48 0 -65 16t-17 44q0 49 61 49h631q62 0 62 -49q0 -60 -82 -60h-185v-1234h185q82 0 82 -60q0 -49 -62 -49zM492 1743q0 58 41.5 99.5t97.5 41.5t99 -41.5t43 -99.5q0 -54 -43.5 -96.5t-98.5 -42.5t-97 42.5 t-42 96.5zM68 1745q0 56 42 98.5t95 42.5q58 0 101 -42t43 -99q0 -55 -43 -97t-101 -42q-52 0 -94.5 42.5t-42.5 96.5z" />
<glyph unicode="&#x408;" horiz-adv-x="991" d="M741 1452q48 0 71.5 -24t23.5 -78v-815q0 -41 -5 -97t-21 -115t-47.5 -117t-84.5 -104t-131 -74t-187 -28q-27 0 -63.5 4t-72 10t-66 13.5t-45.5 15.5q-41 20 -41 63v138q0 54 21.5 78t66.5 24q60 0 89.5 -30.5t29.5 -102.5v-100q21 -4 42.5 -5.5t43.5 -1.5q73 0 121 29 t76.5 75t40 103t11.5 113v893q0 72 30.5 102.5t96.5 30.5z" />
<glyph unicode="&#x409;" horiz-adv-x="2114" d="M1133 0q-48 0 -71.5 24.5t-23.5 77.5v1241h-471v-206q0 -272 -18 -458.5t-64 -326.5q-18 -55 -50.5 -112.5t-77 -113t-105 -91t-123.5 -35.5q-37 0 -62.5 34t-25.5 77q0 37 20 54t91 40q135 47 194 219q28 82 42 202t16 214.5t2 289.5v220q0 56 21 79t69 23h669 q48 0 71.5 -24.5t23.5 -77.5v-537h256q120 0 208.5 -19.5t157.5 -65t104 -125t35 -193.5q0 -73 -19 -133.5t-50.5 -102t-75.5 -73.5t-89 -51t-97 -30.5t-94 -15.5t-85 -4h-378zM1475 705h-218v-596h228q44 0 84 7.5t81.5 28t71.5 53t49 87t19 125.5q0 162 -81 228.5 t-234 66.5z" />
<glyph unicode="&#x40a;" horiz-adv-x="2152" d="M1298 1294v-491h256q96 0 170.5 -11.5t139 -39t107 -72t66 -113.5t23.5 -161q0 -73 -19 -133.5t-50.5 -101.5t-75.5 -72.5t-89 -50t-97 -29.5t-94 -15t-85 -4h-379q-94 0 -94 102v592h-651v-561q0 -72 -31 -102.5t-96 -30.5q-94 0 -94 102v1248q0 56 21 79t69 23 q64 0 97.5 -40t33.5 -118v-487h651v543q0 56 21 79t69 23q64 0 97.5 -40t33.5 -118zM1513 694h-217v-585h228q44 0 83.5 7t81.5 27t72 52t49 86t19 125q0 84 -22 141.5t-65.5 89t-98.5 44.5t-130 13z" />
<glyph unicode="&#x40b;" horiz-adv-x="1731" d="M1075 782q-71 0 -151 -20.5t-148 -59.5v-579q0 -70 -30 -96.5t-97 -26.5q-94 0 -94 102v1241h-307v-145q0 -71 -29.5 -102t-89.5 -31q-88 0 -88 102v209q0 44 29.5 60t93.5 16h1003q64 0 93.5 -16t29.5 -60v-198q0 -54 -21.5 -78.5t-66.5 -24.5q-60 0 -89.5 31t-29.5 102 v135h-307v-526q103 42 181.5 61t177.5 19q100 0 175 -20t131.5 -64t85.5 -119t29 -180v-412q0 -56 -20 -79t-68 -23q-125 0 -125 158v350q0 136 -64.5 205t-203.5 69z" />
<glyph unicode="&#x40c;" horiz-adv-x="1241" d="M984 1903l-217 -301q-27 -33 -76 -33q-26 0 -42 10.5t-16 28.5q0 12 4 20l117 291q12 26 46 39.5t75 13.5q54 0 84.5 -13.5t30.5 -35.5q0 -11 -6 -20zM426 1294v-497h43l602 614q38 41 82 41q31 0 52.5 -20.5t21.5 -45.5q0 -14 -10 -24l-584 -578l590 -649q28 -31 28 -59 q0 -31 -23 -53.5t-61 -22.5q-46 0 -88.5 20.5t-95.5 79.5l-514 584h-43v-551q0 -72 -31 -102.5t-96 -30.5q-94 0 -94 102v1248q0 56 21 79t69 23q64 0 97.5 -40t33.5 -118z" />
<glyph unicode="&#x40e;" horiz-adv-x="1260" d="M725 625l281 718q40 109 118 109q29 0 46.5 -20t17.5 -48q0 -23 -10 -45l-381 -895q-35 -82 -78 -154t-101 -140.5t-131.5 -109t-152.5 -40.5q-47 0 -75 27.5t-28 85.5q0 42 28.5 58t109.5 26q92 9 149 57t96 145l-505 930q-13 22 -13 51q0 31 20.5 51.5t53.5 20.5 q54 0 90 -22t68 -84l385 -721h12zM807 1792q17 96 127 96q41 0 71.5 -17t30.5 -52q0 -122 -105 -188t-288 -66q-182 0 -284 63.5t-109 183.5q0 39 29 57.5t73 18.5q110 0 127 -96q12 -66 49.5 -104.5t114.5 -38.5q137 0 164 143z" />
<glyph unicode="&#x40f;" horiz-adv-x="1513" d="M758 -373q-105 0 -105 101v272h-354q-94 0 -94 102v1248q0 56 21 79t69 23q64 0 97.5 -40t33.5 -118v-1185h661v1210q0 72 31 102.5t96 30.5q48 0 71.5 -24.5t23.5 -77.5v-1248q0 -56 -21 -79t-69 -23h-359v-270q0 -54 -24 -78.5t-78 -24.5z" />
<glyph unicode="&#x410;" horiz-adv-x="1382" d="M371 389l-105 -280q-25 -65 -56.5 -87t-68.5 -22q-29 0 -42 16t-13 41q0 21 10 49l482 1297q9 24 39.5 36.5t72.5 12.5q45 0 80 -14.5t45 -40.5l469 -1299q4 -17 4 -30q0 -29 -19 -48.5t-61 -19.5q-114 0 -153 109l-109 280h-575zM915 496l-247 714h-13l-252 -714h512z " />
<glyph unicode="&#x411;" horiz-adv-x="1323" d="M1047 1096q-61 0 -90 30.5t-29 102.5v114h-502v-491h297q118 0 208.5 -22.5t158.5 -70.5t103.5 -130.5t35.5 -196.5q0 -73 -19 -134.5t-50.5 -105t-75 -78t-89.5 -55.5t-97 -34.5t-94.5 -19t-84.5 -5.5h-420q-94 0 -94 102v1248q0 102 94 102h713q64 0 93.5 -16t29.5 -60 v-178q0 -53 -21.5 -77.5t-66.5 -24.5zM682 743h-256v-634h266q54 0 105 16.5t97.5 52t74.5 101t28 153.5q0 311 -315 311z" />
<glyph unicode="&#x412;" horiz-adv-x="1372" d="M205 1350q0 102 94 102h420q455 0 455 -365q0 -50 -16.5 -99.5t-46.5 -91t-73 -72.5t-96 -44v-10q81 -15 139 -47t95.5 -76t55 -98.5t17.5 -114.5q0 -94 -25.5 -162.5t-68 -116.5t-97 -78.5t-112 -47.5t-114 -23t-103.5 -6h-430q-94 0 -94 102v1248zM680 707h-254v-598 h274q47 0 102.5 13t103.5 47t80 93.5t32 151.5q0 80 -31.5 135.5t-81 90.5t-109 51t-116.5 16zM645 1343h-219v-528h236q46 0 96 15t90.5 48.5t67 86.5t26.5 129q0 72 -29 119.5t-73.5 76.5t-96.5 41t-98 12z" />
<glyph unicode="&#x413;" horiz-adv-x="1128" d="M426 1343v-1210q0 -72 -31 -102.5t-96 -30.5q-94 0 -94 102v1248q0 102 94 102h676q64 0 93.5 -16t29.5 -60v-219q0 -53 -21.5 -77.5t-66.5 -24.5q-60 0 -89.5 31t-29.5 102v155h-465z" />
<glyph unicode="&#x414;" horiz-adv-x="1448" d="M1188 0h-981v-209q0 -71 -29.5 -102t-89.5 -31q-88 0 -88 102v273q0 42 28 58t89 18h20q122 121 165.5 357.5t43.5 663.5v220q0 56 21 79t69 23h680q48 0 71 -24.5t23 -77.5v-1241h62q64 0 93.5 -16t29.5 -60v-273q0 -102 -88 -102q-60 0 -89.5 31t-29.5 102v209z M508 1137q0 -368 -37 -613t-143 -415h661v1234h-481v-206z" />
<glyph unicode="&#x415;" horiz-adv-x="1231" d="M1030 1096q-61 0 -90 30.5t-29 102.5v114h-485v-536h430q27 0 42 -17t15 -40q0 -10 -5 -20t-13 -18t-18 -13t-21 -5h-430v-585h516v114q0 72 29 102.5t90 30.5q45 0 66.5 -24t21.5 -78v-178q0 -45 -29.5 -60.5t-93.5 -15.5h-727q-94 0 -94 102v1248q0 102 94 102h696 q64 0 93.5 -15.5t29.5 -60.5v-178q0 -54 -21.5 -78t-66.5 -24z" />
<glyph unicode="&#x416;" horiz-adv-x="1815" d="M842 797v553q0 56 22.5 79t77.5 23q59 0 88 -24t29 -97v-534h35l524 614q34 41 80 41q31 0 51 -20.5t20 -45.5q0 -14 -10 -24l-508 -578l525 -649q28 -31 28 -59q0 -30 -24 -53t-60 -23q-50 0 -92 19.5t-88 80.5l-446 586h-35v-563q0 -70 -28 -96.5t-85 -26.5 q-55 0 -79.5 24t-24.5 78v584h-35l-447 -586q-46 -61 -87.5 -80.5t-92.5 -19.5q-36 0 -60 23t-24 53q0 26 29 59l524 649l-508 578q-10 10 -10 24q0 25 20.5 45.5t51.5 20.5q46 0 80 -41l524 -614h35z" />
<glyph unicode="&#x417;" horiz-adv-x="1231" d="M289 145q67 -23 117 -32t124 -9q70 0 127.5 19t95.5 50.5t64 74t37.5 86.5t11.5 90q0 57 -14 101.5t-48 84.5t-100.5 62t-162.5 22h-191q-14 0 -22.5 16.5t-8.5 39.5t8.5 40t22.5 17h193q282 0 282 285q0 114 -78 185t-212 71q-113 0 -218 -23v-115q0 -71 -29 -102 t-89 -31q-45 0 -66.5 24.5t-21.5 78.5v116q0 46 17 65.5t67 35.5q178 55 380 55q102 0 184 -19.5t135.5 -52.5t89.5 -79.5t51.5 -98t15.5 -110.5q0 -247 -254 -328v-12q301 -48 301 -328q0 -61 -18.5 -119.5t-61 -114.5t-105 -97.5t-158.5 -67t-214 -25.5q-213 0 -379 66 q-48 19 -64 37t-16 61v123q0 98 88 98q60 0 89.5 -30t29.5 -99v-111z" />
<glyph unicode="&#x418;" horiz-adv-x="1516" d="M1217 1452q94 0 94 -102v-1248q0 -56 -21 -79t-69 -23q-64 0 -97.5 40t-33.5 118v1009l-664 -1095q-12 -21 -22.5 -34t-38 -25.5t-66.5 -12.5q-94 0 -94 102v1248q0 56 21 79t69 23q64 0 97.5 -40t33.5 -118v-1009l664 1095q11 18 18 27.5t21.5 21.5t36 17.5t51.5 5.5z " />
<glyph unicode="&#x419;" horiz-adv-x="1516" d="M1217 1452q94 0 94 -102v-1248q0 -56 -21 -79t-69 -23q-64 0 -97.5 40t-33.5 118v1009l-664 -1095q-14 -23 -23.5 -35t-37 -24.5t-66.5 -12.5q-94 0 -94 102v1248q0 56 21 79t69 23q64 0 97.5 -40t33.5 -118v-1009l664 1095q11 18 18 27.5t21.5 21.5t36 17.5t51.5 5.5z M922 1792q17 96 127 96q41 0 71.5 -17t30.5 -52q0 -122 -105 -188t-288 -66q-182 0 -284 63.5t-109 183.5q0 39 29 57.5t73 18.5q110 0 127 -96q12 -66 49.5 -104.5t114.5 -38.5q76 0 113.5 38.5t50.5 104.5z" />
<glyph unicode="&#x41a;" horiz-adv-x="1241" d="M426 1294v-497h43l602 614q38 41 82 41q31 0 52.5 -20.5t21.5 -45.5q0 -14 -10 -24l-584 -578l590 -649q28 -31 28 -59q0 -31 -23 -53.5t-61 -22.5q-46 0 -88.5 20.5t-95.5 79.5l-514 584h-43v-551q0 -72 -31 -102.5t-96 -30.5q-94 0 -94 102v1248q0 56 21 79t69 23 q64 0 97.5 -40t33.5 -118z" />
<glyph unicode="&#x41b;" horiz-adv-x="1475" d="M1176 1452q94 0 94 -102v-1248q0 -56 -21 -79t-69 -23q-64 0 -97.5 40t-33.5 118v1185h-482v-206q0 -272 -18 -458.5t-64 -326.5q-18 -55 -50.5 -112.5t-77 -113t-105 -91t-123.5 -35.5q-37 0 -62.5 34t-25.5 77q0 37 20 54t91 40q135 47 194 219q28 82 42 202t16 214.5 t2 289.5v220q0 56 21 79t69 23h680z" />
<glyph unicode="&#x41c;" horiz-adv-x="1796" d="M1489 0q-61 0 -84 37.5t-23 120.5v821l2 223h-14q-25 -153 -53 -223l-354 -903q-33 -76 -97 -76q-63 0 -94 76l-352 903q-34 84 -45 223h-15q7 -72 7 -223v-864q0 -60 -25.5 -87.5t-58.5 -27.5t-55.5 22.5t-22.5 69.5v1251q0 52 32.5 80.5t84.5 28.5q94 0 133 -98 l419 -1104h11l424 1093q40 109 157 109q48 0 81.5 -28t33.5 -81v-1241q0 -102 -92 -102z" />
<glyph unicode="&#x41d;" horiz-adv-x="1520" d="M1221 1452q94 0 94 -102v-1248q0 -57 -21 -79.5t-69 -22.5q-64 0 -97.5 40t-33.5 118v536h-668v-561q0 -72 -30.5 -102.5t-96.5 -30.5q-94 0 -94 102v1248q0 57 21 79.5t69 22.5q64 0 97.5 -40t33.5 -118v-487h668v512q0 72 30.5 102.5t96.5 30.5z" />
<glyph unicode="&#x41e;" horiz-adv-x="1466" d="M1358 725q0 -52 -7 -125.5t-29 -154.5t-63.5 -160.5t-111 -142.5t-171.5 -102.5t-245 -39.5q-144 0 -246 40t-171 104.5t-110 145t-62 161t-27 153t-6 121.5q0 53 7 127.5t29 155.5t63.5 160.5t110.5 142.5t170 102t242 39t242.5 -39.5t171.5 -103.5t112 -144 t64.5 -160.5t29.5 -154.5t7 -125zM731 1348q-87 0 -149.5 -31t-106 -81.5t-70 -116t-41 -134.5t-19.5 -137t-5 -123q0 -47 4 -111.5t17 -133.5t38.5 -136.5t69 -120.5t107.5 -86t155 -33q88 2 151.5 32t107 79t70.5 112.5t41.5 132t19.5 137t5 128.5q0 48 -3.5 113 t-16.5 134.5t-38.5 136.5t-69.5 120.5t-109.5 86t-157.5 32.5z" />
<glyph unicode="&#x41f;" horiz-adv-x="1513" d="M426 1452h788q48 0 71.5 -24.5t23.5 -77.5v-1248q0 -56 -21 -79t-69 -23q-64 0 -98 40t-34 118v1185h-661v-1210q0 -72 -31 -102.5t-96 -30.5q-94 0 -94 102v1248q0 56 21 79t69 23h131z" />
<glyph unicode="&#x420;" horiz-adv-x="1264" d="M639 563h-213v-430q0 -72 -30.5 -102.5t-96.5 -30.5q-94 0 -94 102v1248q0 57 21 79.5t69 22.5h342q35 0 79.5 -1t94.5 -8.5t104 -24.5t108 -50q35 -21 66 -52t54 -72.5t36 -95t13 -120.5q0 -98 -34 -182.5t-103 -147.5t-173 -99t-243 -36zM637 1343h-211v-671h211 q154 0 239 86.5t85 269.5q0 76 -18 135t-57 99t-100.5 60.5t-148.5 20.5z" />
<glyph unicode="&#x421;" horiz-adv-x="1190" d="M1030 1083q-60 0 -89.5 31t-29.5 103v114q-82 17 -149 17q-97 0 -175 -41t-133 -121.5t-84.5 -200t-29.5 -276.5q0 -173 29.5 -289t85.5 -186t137 -99t184 -29q63 -1 129.5 15t138.5 45l39 16q12 4 17 4q20 0 34.5 -19t14.5 -42q0 -31 -27 -41l-35 -14 q-87 -35 -177.5 -52.5t-190.5 -17.5q-156 0 -271 47t-190 138t-112 224t-37 304q0 190 47.5 329.5t131.5 230.5t198.5 135t248.5 44q51 0 108.5 -5t109.5 -15t92 -24.5t56 -33.5q17 -20 17 -65v-123q0 -54 -21.5 -78.5t-66.5 -24.5z" />
<glyph unicode="&#x422;" horiz-adv-x="1331" d="M1083 1343h-307v-1220q0 -70 -30 -96.5t-97 -26.5q-94 0 -94 102v1241h-307v-145q0 -72 -29.5 -102.5t-89.5 -30.5q-88 0 -88 102v209q0 45 29.5 60.5t93.5 15.5h1003q64 0 93.5 -15.5t29.5 -60.5v-209q0 -54 -21.5 -78t-66.5 -24q-60 0 -89.5 30.5t-29.5 102.5v145z" />
<glyph unicode="&#x423;" horiz-adv-x="1260" d="M725 625l281 718q40 109 118 109q29 0 46.5 -20t17.5 -48q0 -23 -10 -45l-381 -895q-35 -82 -78 -154t-101 -140.5t-131.5 -109t-152.5 -40.5q-47 0 -75 27.5t-28 85.5q0 42 28.5 58t109.5 26q92 9 149 57t96 145l-505 930q-13 22 -13 51q0 31 20.5 51.5t53.5 20.5 q54 0 90 -22t68 -84l385 -721h12z" />
<glyph unicode="&#x424;" horiz-adv-x="1718" d="M969 1350v-140q58 0 114 -5t123 -18.5t125 -35.5t113.5 -59.5t94.5 -86.5t63 -120t24 -156q0 -231 -166 -362t-491 -131v-111q0 -69 -28 -97t-85 -28q-56 0 -81 25.5t-25 78.5v132q-326 0 -492 131t-166 362q0 85 24 156t63 120t94.5 86.5t113 59.5t124.5 35.5t123 18.5 t114 5v119q0 70 29 96.5t89 26.5q54 0 78.5 -24.5t24.5 -77.5zM967 1106v-766q92 0 167.5 21.5t135.5 66.5t93.5 121.5t33.5 179.5q0 168 -108 272.5t-322 104.5zM752 340v766q-214 0 -322 -104.5t-108 -272.5q0 -103 33 -179.5t93 -121.5t136 -66.5t168 -21.5z" />
<glyph unicode="&#x425;" horiz-adv-x="1206" d="M637 889l262 454q33 58 64 83.5t67 25.5q25 0 43.5 -13.5t18.5 -35.5q0 -28 -23 -62l-344 -559l403 -659q8 -14 12.5 -27.5t4.5 -29.5q0 -27 -22 -46.5t-58 -19.5q-30 0 -53.5 6t-43 18.5t-36 32.5t-33.5 49l-307 523h-8l-322 -518q-20 -34 -38 -55.5t-34.5 -34 t-32.5 -17t-34 -4.5q-31 0 -46.5 13t-15.5 32q0 26 23 66l410 639l-351 583q-14 21 -14 49t23.5 49t56.5 21q51 0 90 -27.5t70 -81.5l256 -454h12z" />
<glyph unicode="&#x426;" horiz-adv-x="1503" d="M1243 0h-944q-94 0 -94 102v1248q0 56 21 79t69 23q64 0 97.5 -40t33.5 -118v-1185h618v1210q0 72 31 102.5t96 30.5q48 0 71.5 -24.5t23.5 -77.5v-1241h61q64 0 93.5 -16t29.5 -60v-273q0 -102 -88 -102q-60 0 -89.5 31t-29.5 102v209z" />
<glyph unicode="&#x427;" horiz-adv-x="1360" d="M1065 0q-64 0 -97.5 40t-33.5 118v456q-100 -40 -182.5 -59.5t-182.5 -19.5q-205 0 -315.5 89.5t-110.5 293.5v432q0 56 20 79t68 23q125 0 125 -158v-370q0 -275 273 -275q71 0 154 21t151 59v590q0 72 31 102.5t96 30.5q94 0 94 -102v-1248q0 -56 -21 -79t-69 -23z" />
<glyph unicode="&#x428;" horiz-adv-x="2060" d="M1761 0h-1462q-94 0 -94 102v1248q0 56 21 79t69 23q64 0 97.5 -40t33.5 -118v-1185h494v1220q0 70 30 96.5t97 26.5q94 0 94 -102v-1241h493v1210q0 72 31 102.5t96 30.5q48 0 71 -24.5t23 -77.5v-1248q0 -53 -23 -77.5t-71 -24.5z" />
<glyph unicode="&#x429;" horiz-adv-x="2093" d="M1141 1350v-1241h493v1210q0 72 31 102.5t96 30.5q48 0 71 -24.5t23 -77.5v-1241h62q64 0 93.5 -16t29.5 -60v-273q0 -102 -88 -102q-60 0 -89.5 31t-29.5 102v209h-1534q-94 0 -94 102v1248q0 56 21 79t69 23q64 0 97.5 -40t33.5 -118v-1185h494v1220q0 70 30 96.5 t97 26.5q94 0 94 -102z" />
<glyph unicode="&#x42a;" horiz-adv-x="1552" d="M487 1343h-264v-145q0 -71 -29.5 -102t-89.5 -31q-88 0 -88 102v209q0 44 29.5 60t93.5 16h475q48 0 71.5 -24.5t23.5 -77.5v-537h266q120 0 209 -19.5t157.5 -64.5t104 -125t35.5 -194q0 -73 -19 -133.5t-50.5 -102t-75.5 -73.5t-89.5 -51t-97 -30.5t-94 -15.5t-84.5 -4 h-389q-48 0 -71.5 24.5t-23.5 77.5v1241zM934 705h-227v-596h237q44 0 84 7.5t81.5 28t71.5 53t49 87t19 125.5q0 162 -81 228.5t-234 66.5z" />
<glyph unicode="&#x42b;" horiz-adv-x="1821" d="M426 1294v-481h246q120 0 209 -19.5t157.5 -64.5t104 -125t35.5 -194q0 -73 -19 -133.5t-50.5 -102t-75.5 -73.5t-89.5 -51t-97 -30.5t-94 -15.5t-84.5 -4h-369q-94 0 -94 102v1248q0 56 21 79t69 23q64 0 97.5 -40t33.5 -118zM631 705h-207v-596h217q44 0 84 7.5 t81.5 28t71.5 53t49 87t19 125.5q0 162 -81 228.5t-234 66.5zM1522 1452q94 0 94 -102v-1248q0 -56 -21 -79t-69 -23q-64 0 -97.5 40t-33.5 118v1161q0 72 31 102.5t96 30.5z" />
<glyph unicode="&#x42c;" horiz-adv-x="1290" d="M426 1294v-481h266q120 0 209 -19.5t157.5 -64.5t104 -125t35.5 -194q0 -73 -19 -133.5t-50.5 -102t-75.5 -73.5t-89.5 -51t-97 -30.5t-94 -15.5t-84.5 -4h-389q-94 0 -94 102v1248q0 56 21 79t69 23q64 0 97.5 -40t33.5 -118zM651 705h-227v-596h238q44 0 84 7.5 t81.5 28t71.5 53t49 87t19 125.5q0 162 -81.5 228.5t-234.5 66.5z" />
<glyph unicode="&#x42d;" horiz-adv-x="1260" d="M289 145q94 -41 217 -41q187 0 295.5 150.5t118.5 439.5h-574q-14 0 -22.5 16.5t-8.5 39.5t8.5 40t22.5 17h569q-7 120 -32.5 214t-62.5 154.5t-88.5 99.5t-106.5 55.5t-119 17.5q-93 0 -201 -23v-115q0 -71 -29.5 -102t-89.5 -31q-88 0 -88 103v116q0 46 17 65t67 36 q189 55 338 55q631 0 631 -694q0 -130 -23 -242t-73 -208t-124.5 -163.5t-182 -106t-240.5 -38.5q-201 0 -346 66q-48 19 -64 37t-16 61v123q0 98 88 98q60 0 89.5 -30t29.5 -99v-111z" />
<glyph unicode="&#x42e;" horiz-adv-x="2019" d="M1911 725q0 -56 -4.5 -111t-20.5 -129.5t-41.5 -139t-73 -130t-110.5 -111.5t-157.5 -75t-209.5 -29q-111 0 -202.5 26.5t-153 69.5t-109 104t-74 122t-43.5 132.5t-23 126.5t-7 113h-256v-561q0 -72 -31 -102.5t-96 -30.5q-94 0 -94 102v1248q0 56 21 79t69 23 q64 0 97.5 -40t33.5 -118v-487h258q3 58 11.5 112.5t28.5 120.5t49 122.5t77 111.5t108 93t146.5 61.5t189.5 23.5q115 0 209.5 -29.5t157.5 -76t110.5 -112.5t73 -130.5t41.5 -139.5t20.5 -129.5t4.5 -109.5zM1679 725q0 623 -385 623q-73 0 -132.5 -24.5t-98 -62.5 t-67.5 -94t-44.5 -109.5t-24.5 -119.5t-11.5 -113t-2.5 -100q0 -621 381 -621q385 0 385 621z" />
<glyph unicode="&#x42f;" horiz-adv-x="1317" d="M1112 1350v-1248q0 -102 -94 -102q-65 0 -96 30.5t-31 102.5v510h-186l-345 -565q-46 -78 -139 -78q-51 0 -77.5 18.5t-26.5 49.5q0 24 18 53l340 536q-90 11 -170 57t-134 128.5t-54 183.5q0 93 28 167t75 121.5t114 79t141 45t160 13.5h387q48 0 69 -23t21 -79z M891 1343h-236q-39 0 -77 -7t-81 -27.5t-75 -53t-53 -88.5t-21 -129q0 -83 28 -141.5t76.5 -88.5t102 -43t117.5 -13h219v591z" />
<glyph unicode="&#x430;" horiz-adv-x="1118" d="M764 193l-6 2q-67 -102 -154 -148.5t-207 -46.5q-76 0 -134 19.5t-97 55.5t-58.5 87t-19.5 114q0 66 22.5 130.5t80.5 115.5t158 82t255 31h150v57q0 70 -12 118.5t-36.5 78.5t-63.5 43.5t-93 13.5q-102 0 -180 -86q-66 -72 -125 -72q-35 0 -53.5 20t-18.5 50 q0 39 37 70.5t96.5 53.5t134 34t150.5 12q111 0 184 -23t116.5 -69t61 -115.5t17.5 -163.5v-561q0 -49 -17 -72.5t-63 -23.5q-67 0 -96 45.5t-29 147.5zM756 549h-119q-336 0 -336 -244q0 -168 178 -168q39 0 87 15t90.5 45t71 75t28.5 105v172z" />
<glyph unicode="&#x431;" horiz-adv-x="1153" d="M1051 514q0 -253 -129.5 -383.5t-339.5 -130.5q-108 0 -189.5 29t-146.5 95t-99 184.5t-34 285.5q0 275 44 450t139 274t253 138q25 7 81 21l100 25t52 14q14 4 45.5 15.5t56.5 18t50 6.5q20 0 35.5 -11t15.5 -36q0 -39 -17.5 -70t-47 -52.5t-79 -39t-101.5 -29.5 t-126 -24q-132 -22 -211 -80.5t-118 -170t-39 -291.5h14q100 276 361 276q94 0 169.5 -28t135.5 -87t92.5 -160.5t32.5 -238.5zM332 514q0 -216 57 -324t193 -108q53 0 95.5 21t68 58t43.5 79t26 95t11 93.5t3 85.5q0 34 -2.5 66.5t-9.5 83.5t-23.5 93t-41.5 81t-67.5 61.5 t-96.5 22.5q-76 0 -135.5 -60t-90 -152.5t-30.5 -195.5z" />
<glyph unicode="&#x432;" horiz-adv-x="1063" d="M164 932q0 49 17.5 72.5t64.5 23.5h348q54 0 103 -8t95.5 -26.5t80.5 -46t54.5 -70t20.5 -95.5q0 -89 -56 -154t-157 -81v-12q116 -5 185 -71.5t69 -160.5q0 -70 -27.5 -125t-70 -87.5t-100 -53.5t-111.5 -29t-111 -8h-323q-47 0 -64.5 23.5t-17.5 72.5v836zM373 487 v-395h172q60 0 105 18t70 48t36.5 63.5t11.5 71.5q0 93 -57 143.5t-170 50.5h-168zM373 573h176q79 0 131.5 46.5t52.5 142.5q0 81 -52 127.5t-142 46.5h-166v-363z" />
<glyph unicode="&#x433;" horiz-adv-x="909" d="M164 932q0 49 17.5 72.5t64.5 23.5h571q66 0 66 -63v-174q0 -44 -17 -65t-59 -21q-66 0 -89.5 25t-23.5 106v96h-317v-787q0 -87 -29.5 -116t-101.5 -29q-47 0 -64.5 23.5t-17.5 72.5v836z" />
<glyph unicode="&#x434;" horiz-adv-x="1124" d="M66 96h59q69 92 103 235.5t34 397.5v203q0 50 18.5 73t65.5 23h510q47 0 64.5 -23.5t17.5 -72.5v-836h90q66 0 66 -63v-191q0 -44 -17 -65t-59 -21q-65 0 -89 25.5t-24 105.5v113h-717v-113q0 -80 -23.5 -105.5t-88.5 -25.5q-43 0 -59.5 21t-16.5 65v191q0 63 66 63z M276 96h449v836h-328v-203q0 -227 -28.5 -373t-92.5 -260z" />
<glyph unicode="&#x435;" horiz-adv-x="1075" d="M891 258q9 11 22.5 17t28.5 6q18 0 32.5 -12t14.5 -31q0 -38 -26 -70q-137 -168 -377 -168q-120 0 -211 33.5t-151.5 97t-91 154t-30.5 204.5q0 265 122.5 402t357.5 137q93 0 168.5 -27t129.5 -79.5t83.5 -129.5t29.5 -176q0 -100 -116 -100h-551q-1 -8 -1.5 -19.5 t-0.5 -25.5q0 -88 17 -158.5t52 -120t88.5 -76t126.5 -26.5q60 0 103 15.5t73.5 38t51.5 47.5t36 43zM569 946q-99 0 -161.5 -83.5t-75.5 -260.5h383q36 0 52.5 13t16.5 47q0 69 -17.5 122t-47 89t-68.5 54.5t-82 18.5z" />
<glyph unicode="&#x436;" horiz-adv-x="1518" d="M655 584v348q0 44 21.5 70t79.5 26q56 0 81 -24t25 -101v-319h60l323 360q76 84 150 84q57 0 57 -51q0 -32 -34.5 -64t-102.5 -83.5t-115 -100.5q-28 -29 -72 -77t-73 -77l387 -471q35 -38 35 -65q0 -19 -18.5 -29t-78.5 -10q-65 0 -96 15t-55 48l-324 429h-43v-367 q0 -72 -26 -98.5t-80 -26.5q-59 0 -80 23t-21 73v396h-43l-323 -429q-25 -33 -56 -48t-96 -15q-60 0 -78 10t-18 29q0 28 35 65l387 471q-27 27 -71 75t-75 79q-46 49 -114 100.5t-102.5 83.5t-34.5 64q0 51 57 51q74 0 149 -84l324 -360h59z" />
<glyph unicode="&#x437;" horiz-adv-x="973" d="M233 203q25 -55 71.5 -88t139.5 -33q228 0 228 215q0 186 -240 186h-123q-19 0 -29 16t-10 36q0 43 39 43h127q102 0 158.5 51t56.5 147q0 79 -50.5 124.5t-139.5 45.5q-129 0 -195 -110q-22 -39 -47.5 -58.5t-66.5 -19.5q-32 0 -53 20t-21 53q0 76 110 138q45 25 127 42 t148 17q403 0 403 -246q0 -86 -57.5 -151.5t-175.5 -89.5v-9q121 -7 190.5 -69.5t69.5 -161.5q0 -139 -117 -220t-350 -81q-171 0 -285 70q-100 63 -100 139q0 32 25 54t55 22q76 0 112 -82z" />
<glyph unicode="&#x438;" horiz-adv-x="1202" d="M1038 932v-836q0 -49 -17.5 -72.5t-64.5 -23.5q-69 0 -100 38.5t-31 129.5v586l-463 -701q-18 -29 -44.5 -41t-71.5 -12q-47 0 -64.5 23.5t-17.5 72.5v836q0 49 17.5 72.5t64.5 23.5q69 0 100 -38.5t31 -129.5v-594l461 701q21 34 46.5 47.5t71.5 13.5q47 0 64.5 -23.5 t17.5 -72.5z" />
<glyph unicode="&#x439;" horiz-adv-x="1202" d="M1038 932v-836q0 -49 -17.5 -72.5t-64.5 -23.5q-69 0 -100 38.5t-31 129.5v586l-463 -701q-19 -29 -45.5 -41t-70.5 -12q-47 0 -64.5 23.5t-17.5 72.5v836q0 49 17.5 72.5t64.5 23.5q69 0 100 -38.5t31 -129.5v-594l461 701q21 34 46.5 47.5t71.5 13.5q47 0 64.5 -23.5 t17.5 -72.5zM719 1333q8 48 41.5 70t79.5 22q34 0 61 -24t27 -66q0 -87 -87.5 -141.5t-242.5 -54.5q-153 0 -239.5 55t-86.5 143q0 41 27.5 64.5t62.5 23.5q45 0 78 -22t41 -70q9 -56 34.5 -86t82.5 -30q58 0 85.5 30.5t35.5 85.5z" />
<glyph unicode="&#x43a;" horiz-adv-x="1061" d="M377 860v-272h67l359 356q46 46 80.5 65t70.5 19q58 0 58 -51q0 -38 -31 -68.5t-106 -80.5t-123 -91q-46 -39 -172 -157l403 -476q37 -42 37 -65q0 -13 -5 -20t-28 -13t-65 -6q-68 0 -98.5 14.5t-57.5 48.5l-340 429h-49v-347q0 -87 -29.5 -116t-101.5 -29 q-47 0 -64.5 23.5t-17.5 72.5v836q0 49 17.5 72.5t64.5 23.5q69 0 100 -38.5t31 -129.5z" />
<glyph unicode="&#x43b;" horiz-adv-x="1147" d="M983 932v-836q0 -49 -17.5 -72.5t-64.5 -23.5q-69 0 -100 38.5t-31 129.5v764h-328v-215q0 -193 -24.5 -335.5t-87.5 -240.5q-46 -69 -97.5 -105t-123.5 -36q-40 0 -64.5 19.5t-24.5 60.5q0 27 26 54t63 34q40 9 71 30t51.5 47.5t35 70t22.5 82.5t12 100.5t5 108.5t1 122 v203q0 48 17.5 72t68.5 24h508q47 0 64.5 -23.5t17.5 -72.5z" />
<glyph unicode="&#x43c;" horiz-adv-x="1417" d="M164 88v844q0 96 90 96q63 0 92 -13t51 -48l318 -746h4l317 746q27 61 135 61q47 0 64.5 -23.5t17.5 -72.5v-836q0 -49 -17.5 -72.5t-64.5 -23.5q-69 0 -100 38.5t-31 129.5v487h-8l-260 -589q-27 -66 -86 -66q-57 0 -82 55l-285 645h-8v-532q0 -99 -14 -133.5t-64 -34.5 q-69 0 -69 88z" />
<glyph unicode="&#x43d;" horiz-adv-x="1202" d="M1038 932v-836q0 -49 -17.5 -72.5t-64.5 -23.5q-69 0 -100 38.5t-31 129.5v309h-448v-332q0 -87 -29.5 -116t-101.5 -29q-47 0 -64.5 23.5t-17.5 72.5v836q0 49 17.5 72.5t64.5 23.5q69 0 100 -38.5t31 -129.5v-282h448v303q0 88 29.5 117.5t101.5 29.5q47 0 64.5 -23.5 t17.5 -72.5z" />
<glyph unicode="&#x43e;" horiz-adv-x="1143" d="M571 0q-111 0 -198.5 32t-147.5 96.5t-91.5 160.5t-31.5 225q0 130 33 227t94 160.5t147.5 95t194.5 31.5q109 0 196 -31.5t148 -95.5t93 -160.5t32 -226.5q0 -129 -31 -225t-91 -160.5t-147.5 -96.5t-199.5 -32zM571 82q55 0 100.5 18.5t78.5 66.5t51 132t18 215 q0 127 -18.5 210.5t-51.5 133t-78.5 69t-99.5 19.5q-52 0 -97 -19.5t-78.5 -69t-52.5 -133t-19 -210.5q0 -126 17 -209.5t49.5 -133t78 -69.5t102.5 -20z" />
<glyph unicode="&#x43f;" horiz-adv-x="1196" d="M1032 932v-836q0 -49 -17.5 -72.5t-64.5 -23.5q-69 0 -100 38.5t-31 129.5v764h-442v-787q0 -87 -29.5 -116t-101.5 -29q-47 0 -64.5 23.5t-17.5 72.5v836q0 49 17.5 72.5t64.5 23.5h704q47 0 64.5 -23.5t17.5 -72.5z" />
<glyph unicode="&#x440;" horiz-adv-x="1159" d="M164 -354v1294q0 88 80 88q66 0 97 -41.5t32 -134.5v-16h2q27 45 59.5 81t71.5 60.5t87 37.5t107 13q351 0 351 -463q0 -141 -33.5 -246.5t-96.5 -176.5t-153.5 -106.5t-204.5 -35.5q-104 0 -186 39v-344q0 -44 -7 -72.5t-22.5 -45t-40.5 -22.5t-61 -6q-48 0 -65 23 t-17 74zM829 549q0 102 -15.5 168t-43.5 104.5t-67 54t-85 15.5q-42 0 -85 -21t-78 -54.5t-57.5 -76.5t-22.5 -88v-444q0 -23 13 -45.5t37.5 -40t59.5 -28.5t78 -11q60 0 109.5 23t84 77.5t53.5 144t19 222.5z" />
<glyph unicode="&#x441;" horiz-adv-x="1004" d="M864 258q23 23 51 23q18 0 33 -12t15 -31q0 -37 -27 -70q-137 -168 -371 -168q-127 0 -215.5 38t-143.5 106.5t-79.5 162.5t-24.5 205q0 142 37.5 240.5t103.5 159.5t154.5 88.5t190.5 27.5q70 0 134 -18t112.5 -48.5t77 -70t28.5 -82.5q0 -18 -7.5 -33t-19.5 -25.5 t-27.5 -16t-31.5 -5.5q-45 0 -71 21.5t-40 64.5q-11 30 -24 54t-32 41.5t-44 26.5t-59 9q-63 0 -111.5 -20.5t-81.5 -70.5t-50 -133.5t-17 -209.5q0 -105 14 -184.5t45.5 -132t82 -79t122.5 -26.5q48 0 85 10.5t66 29.5t52.5 43.5t46.5 52.5z" />
<glyph unicode="&#x442;" horiz-adv-x="1016" d="M801 932h-189v-799q0 -82 -27 -107.5t-89 -25.5q-57 0 -77 23t-20 73v836h-184v-76q0 -81 -23.5 -106t-89.5 -25q-42 0 -58.5 21t-16.5 65v154q0 63 65 63h832q65 0 65 -63v-154q0 -44 -16.5 -65t-59.5 -21q-65 0 -88.5 25t-23.5 106v76z" />
<glyph unicode="&#x443;" horiz-adv-x="1049" d="M977 926l-354 -910q-27 -70 -54 -128t-68 -124t-83 -110.5t-98.5 -74.5t-116.5 -30q-42 0 -70.5 21.5t-28.5 52.5q0 92 111 92q120 0 176 76q47 65 86 191l-405 944q-11 22 -11 47q0 55 76 55q51 0 95.5 -33.5t72.5 -103.5l268 -670h11l123 359q31 91 96 319 q16 60 42.5 94.5t76.5 34.5q65 0 65 -47q0 -25 -10 -55z" />
<glyph unicode="&#x444;" horiz-adv-x="1571" d="M891 1415v-510h2q43 62 107 92.5t130 30.5q332 0 332 -491q0 -257 -105 -397t-280 -140q-115 0 -186 70v-392q0 -76 -26.5 -102.5t-86.5 -26.5q-58 0 -78 23t-20 74v444q-79 -90 -234 -90q-161 0 -249 126t-88 380q0 114 21 205t55 149t80 97t93 55t97 16q77 0 132 -22.5 t91 -85.5h2v540q0 50 19.5 73t76.5 23q62 0 88.5 -27t26.5 -114zM682 250v487q0 152 -158 152q-104 0 -153 -95t-49 -288q0 -213 42 -311.5t152 -98.5q59 0 112.5 49.5t53.5 104.5zM889 717v-471q0 -71 45 -110.5t110 -39.5q107 0 156 103t49 321q0 190 -43.5 279.5 t-144.5 89.5q-75 0 -123.5 -41.5t-48.5 -130.5z" />
<glyph unicode="&#x445;" horiz-adv-x="989" d="M98 102l299 398l-260 399q-15 22 -21.5 42.5t-6.5 37.5q0 25 19.5 37t45.5 12q62 0 99.5 -24.5t68.5 -77.5l178 -297h8l205 332q24 39 49.5 53t67.5 14q51 0 51 -39q0 -26 -22 -63l-273 -379l287 -434q25 -41 25 -60q0 -53 -76 -53q-34 0 -57.5 6t-41.5 18t-32.5 30.5 t-30.5 43.5l-199 310h-4l-231 -349q-22 -33 -47.5 -46t-71.5 -13q-55 0 -55 41q0 27 26 61z" />
<glyph unicode="&#x446;" horiz-adv-x="1184" d="M965 0h-719q-47 0 -64.5 23.5t-17.5 72.5v836q0 49 17.5 72.5t64.5 23.5q69 0 100 -38.5t31 -129.5v-764h407v787q0 88 29.5 116.5t101.5 28.5q47 0 64.5 -23.5t17.5 -72.5v-836h90q66 0 66 -63v-191q0 -44 -16.5 -65t-59.5 -21q-65 0 -88.5 25.5t-23.5 105.5v113z" />
<glyph unicode="&#x447;" horiz-adv-x="1087" d="M307 860v-229q0 -96 41 -142.5t135 -46.5q131 0 228 50v389q0 88 29.5 117.5t101.5 29.5q46 0 64 -23.5t18 -72.5v-836q0 -49 -18 -72.5t-64 -23.5q-69 0 -100 38.5t-31 129.5v235q-54 -26 -139.5 -44.5t-161.5 -18.5q-164 0 -236 66.5t-72 207.5v318q0 49 18 72.5 t64 23.5q68 0 95.5 -38t27.5 -130z" />
<glyph unicode="&#x448;" horiz-adv-x="1599" d="M1354 0h-1108q-47 0 -64.5 23.5t-17.5 72.5v836q0 49 17.5 72.5t64.5 23.5q69 0 100 -38.5t31 -129.5v-764h317v803q0 76 25.5 102.5t79.5 26.5q58 0 82 -26t24 -103v-803h318v787q0 88 29.5 116.5t101.5 28.5q46 0 64 -23.5t18 -72.5v-836q0 -49 -18 -72.5t-64 -23.5z " />
<glyph unicode="&#x449;" horiz-adv-x="1622" d="M1403 0h-1157q-47 0 -64.5 23.5t-17.5 72.5v836q0 49 17.5 72.5t64.5 23.5q69 0 100 -38.5t31 -129.5v-764h317v803q0 76 25.5 102.5t79.5 26.5q58 0 82 -26t24 -103v-803h318v787q0 88 29.5 116.5t101.5 28.5q46 0 64 -23.5t18 -72.5v-836h90q65 0 65 -63v-191 q0 -44 -16.5 -65t-58.5 -21q-65 0 -89 25.5t-24 105.5v113z" />
<glyph unicode="&#x44a;" horiz-adv-x="1229" d="M92 1028h424q49 0 65.5 -18t16.5 -68v-350h190q204 0 293.5 -71t89.5 -210q0 -151 -114 -231t-326 -80h-264q-47 0 -64.5 23.5t-17.5 72.5v840h-170v-76q0 -80 -24 -105.5t-89 -25.5q-42 0 -58.5 21t-16.5 65v150q0 63 65 63zM596 92h127q114 0 170.5 49t56.5 162 q0 112 -58 154.5t-169 42.5h-127v-408z" />
<glyph unicode="&#x44b;" horiz-adv-x="1442" d="M377 860v-268h172q203 0 291 -71t88 -210q0 -151 -112.5 -231t-323.5 -80h-246q-47 0 -64.5 23.5t-17.5 72.5v836q0 49 17.5 72.5t64.5 23.5q69 0 100 -38.5t31 -129.5zM375 92h108q115 0 171.5 49t56.5 162q0 112 -58.5 154.5t-169.5 42.5h-108v-408zM1278 932v-836 q0 -49 -17.5 -72.5t-64.5 -23.5q-69 0 -100 38.5t-31 129.5v713q0 88 29.5 117.5t101.5 29.5q47 0 64.5 -23.5t17.5 -72.5z" />
<glyph unicode="&#x44c;" horiz-adv-x="1008" d="M377 860v-268h190q204 0 293.5 -71t89.5 -210q0 -151 -114 -231t-326 -80h-264q-47 0 -64.5 23.5t-17.5 72.5v836q0 49 17.5 72.5t64.5 23.5q69 0 100 -38.5t31 -129.5zM375 92h127q114 0 170.5 49t56.5 162q0 112 -58 154.5t-169 42.5h-127v-408z" />
<glyph unicode="&#x44d;" horiz-adv-x="1038" d="M715 483h-408q-17 0 -27 14.5t-10 32.5q0 19 10 33.5t27 14.5h408q0 368 -264 368q-73 0 -113.5 -29t-71.5 -81q-22 -39 -47.5 -58.5t-66.5 -19.5q-32 0 -53 20t-21 53q0 76 110 138q45 25 127 42t148 17q473 0 473 -493q0 -140 -39.5 -245t-110 -167.5t-161 -92.5 t-199.5 -30q-171 0 -285 70q-100 63 -100 139q0 32 25 54t55 22q76 0 112 -82q25 -55 71.5 -88t139.5 -33q60 3 107 24t85 65.5t58.5 123t20.5 188.5z" />
<glyph unicode="&#x44e;" horiz-adv-x="1593" d="M1270 514q0 453 -246 453t-246 -453q0 -130 18 -217t50.5 -139.5t78 -74.5t99.5 -22t99.5 21.5t78 73.5t50.5 139.5t18 218.5zM1024 -20q-213 0 -335.5 128t-131.5 369h-180v-332q0 -87 -29.5 -116t-101.5 -29q-47 0 -64.5 23.5t-17.5 72.5v836q0 49 17.5 72.5t64.5 23.5 q69 0 100 -38.5t31 -129.5v-282h182q15 231 139 351t326 120q217 0 342 -136.5t125 -398.5q0 -259 -123 -396.5t-344 -137.5z" />
<glyph unicode="&#x44f;" horiz-adv-x="1067" d="M61 39q0 21 37 65l299 342q-131 12 -208.5 89t-77.5 180q0 148 99 230.5t294 82.5h317q47 0 64.5 -23.5t17.5 -72.5v-836q0 -49 -17.5 -72.5t-64.5 -23.5q-69 0 -100 38.5t-31 129.5v268h-84l-291 -373q-26 -33 -57 -48t-98 -15q-42 0 -65 6t-28.5 13.5t-5.5 19.5z M326 713q0 -83 59 -134t162 -51h143v408h-145q-104 0 -161.5 -60.5t-57.5 -162.5z" />
<glyph unicode="&#x451;" horiz-adv-x="1075" d="M891 258q9 11 22.5 17t28.5 6q18 0 32.5 -12t14.5 -31q0 -38 -26 -70q-137 -168 -377 -168q-120 0 -211 33.5t-151.5 97t-91 154t-30.5 204.5q0 265 122.5 402t357.5 137q93 0 168.5 -27t129.5 -79.5t83.5 -129.5t29.5 -176q0 -100 -116 -100h-551q-1 -8 -1.5 -19.5 t-0.5 -25.5q0 -88 17 -158.5t52 -120t88.5 -76t126.5 -26.5q60 0 103 15.5t73.5 38t51.5 47.5t36 43zM569 946q-99 0 -161.5 -83.5t-75.5 -260.5h383q36 0 52.5 13t16.5 47q0 69 -17.5 122t-47 89t-68.5 54.5t-82 18.5zM233 1286q0 25 10 48t27.5 40t40 27t47.5 10t47.5 -10 t40 -27.5t27.5 -40t10 -47.5t-10 -47.5t-27 -40t-40 -27.5t-48 -10t-47.5 10t-40 27.5t-27.5 40t-10 47.5zM635 1286q0 25 10 47.5t27.5 40t40 27.5t47.5 10t47.5 -10.5t39.5 -27.5t27.5 -39.5t10.5 -47.5t-10.5 -47.5t-27.5 -40t-39.5 -27.5t-47.5 -10q-26 0 -48.5 10 t-39.5 27.5t-27 40t-10 47.5z" />
<glyph unicode="&#x452;" horiz-adv-x="1186" d="M852 477q0 74 -4.5 127.5t-17 102.5t-34.5 78.5t-58 47t-85 17.5q-89 0 -173.5 -79.5t-84.5 -176.5v-449q0 -87 -29.5 -116t-101.5 -29q-46 0 -64 23.5t-18 72.5v1057h-168q-11 0 -17.5 14.5t-6.5 34.5q0 51 24 51h168v207q0 49 17.5 72.5t64.5 23.5q69 0 100 -38.5 t31 -128.5v-136h416q12 0 18.5 -15t6.5 -36q0 -19 -7 -34t-18 -15h-416v-375h4q57 91 142 150t188 59q65 0 114.5 -13.5t92 -47.5t69.5 -91t42.5 -146.5t15.5 -211.5q0 -336 -120 -540t-327 -232q-21 0 -38.5 12.5t-18.5 34.5q0 39 41 55q131 55 191.5 216.5t60.5 453.5z " />
<glyph unicode="&#x453;" horiz-adv-x="909" d="M164 932q0 49 17.5 72.5t64.5 23.5h571q66 0 66 -63v-174q0 -44 -17 -65t-59 -21q-66 0 -89.5 25t-23.5 106v96h-317v-787q0 -87 -29.5 -116t-101.5 -29q-47 0 -64.5 23.5t-17.5 72.5v836zM765 1466l-201 -266q-26 -33 -76 -33q-23 0 -39 10.5t-16 28.5q0 12 4 19 l107 256q11 26 43.5 39.5t72.5 13.5q51 0 81 -14t30 -35q0 -13 -6 -19z" />
<glyph unicode="&#x454;" horiz-adv-x="1004" d="M758 516q0 -18 -10 -32.5t-27 -14.5h-397q5 -189 66 -284t198 -95q34 0 64 5t55 17.5t43 22t37.5 29.5t28.5 29.5t26.5 31.5t21.5 27q21 22 51 22q19 0 33.5 -12t14.5 -31q0 -36 -27 -69q-131 -162 -371 -162q-125 0 -216 38t-144 108.5t-78 161t-25 204.5 q0 111 24.5 199t68 146.5t105.5 97.5t133 56t155 17q144 0 243 -59q109 -66 109 -154q0 -36 -27 -58t-59 -22q-45 0 -70.5 21.5t-40.5 64.5q-19 58 -54.5 91.5t-104.5 33.5q-127 0 -190 -86t-70 -297h397q17 0 27 -14t10 -33z" />
<glyph unicode="&#x455;" horiz-adv-x="1012" d="M715 250q-5 62 -40.5 100.5t-111.5 69.5l-117 43l-79 27q-51 19 -96.5 40.5t-80 51.5t-55 72t-20.5 102q0 58 20 101t53 73.5t74 49.5t83.5 29.5t81.5 14.5t67 4q90 0 159.5 -15.5t117.5 -41.5t72.5 -60t24.5 -71q0 -33 -24 -53.5t-56 -20.5q-39 0 -66 18.5t-44 55.5 q-51 106 -182 106q-81 0 -129.5 -40t-48.5 -121q0 -27 11.5 -48.5t29 -39t39.5 -31t44 -22.5l57 -24l68 -24q28 -10 55 -18.5t53.5 -18.5t52 -22.5t51.5 -28.5q29 -17 55 -37t46 -44t32 -54t12 -68q0 -68 -31 -124.5t-87 -96.5t-134 -62t-172 -22q-75 0 -146.5 13.5 t-128 39.5t-91 63t-34.5 85q0 16 7 30t18 24t25.5 15.5t29.5 5.5q79 0 113 -73q10 -21 24.5 -42.5t38.5 -39t59.5 -28.5t88.5 -11q45 0 83.5 10t67 31t44.5 52.5t16 74.5z" />
<glyph unicode="&#x456;" horiz-adv-x="561" d="M387 889v-750q0 -44 -7 -71t-22.5 -42t-40.5 -20.5t-61 -5.5q-48 0 -65 23.5t-17 72.5v836q0 49 17 72.5t65 23.5q67 0 99 -33.5t32 -105.5zM187 1198q-37 37 -37 90q0 25 10 48.5t27 40.5t40 27.5t49 10.5q25 0 48.5 -10.5t40.5 -27.5t27.5 -40.5t10.5 -48.5 q0 -26 -10 -49t-27.5 -40.5t-40.5 -27.5t-49 -10q-52 0 -89 37z" />
<glyph unicode="&#x457;" horiz-adv-x="561" d="M-19 1286q0 51 37.5 88t87.5 37q51 0 88 -37t37 -88q0 -50 -37 -87.5t-88 -37.5q-50 0 -87.5 37.5t-37.5 87.5zM332 1286q0 51 37 88t88 37q50 0 87.5 -37t37.5 -88q0 -50 -37.5 -87.5t-87.5 -37.5q-51 0 -88 37.5t-37 87.5zM387 891v-752q0 -87 -29 -113t-102 -26 q-47 0 -64.5 23.5t-17.5 72.5v836q0 49 17.5 72.5t64.5 23.5q131 0 131 -137z" />
<glyph unicode="&#x458;" horiz-adv-x="561" d="M174 932q0 49 17 72.5t65 23.5q67 0 99 -33.5t32 -105.5v-641q0 -110 -20.5 -212t-57 -189t-86.5 -155t-108 -108q-50 -35 -88 -35q-26 0 -44 11t-18 32q0 19 6 32t18 24t31.5 23t46.5 30q28 17 48.5 43t33.5 70.5t19 111t6 164.5v842zM187 1198q-37 37 -37 90 q0 25 10 48.5t27 40.5t40 27.5t49 10.5q25 0 48.5 -10.5t40.5 -27.5t27.5 -40.5t10.5 -48.5q0 -26 -10 -49t-27.5 -40.5t-40.5 -27.5t-49 -10q-52 0 -89 37z" />
<glyph unicode="&#x459;" horiz-adv-x="1593" d="M842 0q-47 0 -64.5 23.5t-17.5 72.5v836h-318v-215q0 -193 -24.5 -335.5t-87.5 -240.5q-46 -69 -97.5 -105t-123.5 -36q-40 0 -64.5 19.5t-24.5 60.5q0 27 26 54t63 34q40 9 71 30t51.5 47.5t35 70t22.5 82.5t12 100.5t5 108.5t1 122v203q0 48 17.5 72t68.5 24h498 q46 0 64 -23.5t18 -72.5v-340h180q204 0 293.5 -71t89.5 -210q0 -151 -114.5 -231t-325.5 -80h-254zM971 92h116q115 0 171.5 49t56.5 162q0 112 -58.5 154.5t-169.5 42.5h-116v-408z" />
<glyph unicode="&#x45a;" horiz-adv-x="1647" d="M1026 860v-280h180q205 0 294 -68.5t89 -206.5q0 -151 -113.5 -228t-326.5 -77h-254q-47 0 -64.5 23.5t-17.5 72.5v381h-436v-332q0 -87 -29.5 -116t-101.5 -29q-47 0 -64.5 23.5t-17.5 72.5v836q0 49 17.5 72.5t64.5 23.5q69 0 100 -38.5t31 -129.5v-282h436v354 q0 49 17.5 72.5t64.5 23.5q69 0 100 -38.5t31 -129.5zM1024 92h117q115 0 171 46t56 159q0 58 -16 97t-48.5 58.5t-70.5 27t-92 7.5h-117v-395z" />
<glyph unicode="&#x45b;" horiz-adv-x="1206" d="M14 1253h168v207q0 49 17.5 72.5t64.5 23.5q69 0 100 -38.5t31 -128.5v-136h416q12 0 18.5 -15t6.5 -36q0 -19 -7 -34t-18 -15h-416v-375h4q57 92 146.5 150.5t208.5 58.5q288 0 288 -309v-582q0 -49 -17.5 -72.5t-63.5 -23.5q-69 0 -100.5 38.5t-31.5 129.5v471 q0 211 -174 211q-89 0 -174.5 -80t-85.5 -176v-449q0 -87 -29.5 -116t-101.5 -29q-46 0 -64 23.5t-18 72.5v1057h-168q-11 0 -17.5 14.5t-6.5 34.5q0 51 24 51z" />
<glyph unicode="&#x45c;" horiz-adv-x="1061" d="M377 860v-272h67l359 356q46 46 80.5 65t70.5 19q58 0 58 -51q0 -38 -31 -68.5t-106 -80.5t-123 -91q-46 -39 -172 -157l403 -476q37 -42 37 -65q0 -13 -5 -20t-28 -13t-65 -6q-68 0 -98.5 14.5t-57.5 48.5l-340 429h-49v-347q0 -87 -29.5 -116t-101.5 -29 q-47 0 -64.5 23.5t-17.5 72.5v836q0 49 17.5 72.5t64.5 23.5q69 0 100 -38.5t31 -129.5zM821 1466l-201 -266q-26 -33 -76 -33q-23 0 -39 10.5t-16 28.5q0 12 4 19l107 256q11 26 43.5 39.5t72.5 13.5q51 0 81 -14t30 -35q0 -13 -6 -19z" />
<glyph unicode="&#x45e;" horiz-adv-x="1049" d="M977 926l-354 -910q-27 -70 -54 -128t-68 -124t-83 -110.5t-98.5 -74.5t-116.5 -30q-42 0 -70.5 21.5t-28.5 52.5q0 92 111 92q120 0 176 76q47 65 86 191l-405 944q-11 22 -11 47q0 55 76 55q51 0 95.5 -33.5t72.5 -103.5l268 -670h11l123 359q31 91 96 319 q16 60 42.5 94.5t76.5 34.5q65 0 65 -47q0 -25 -10 -55zM643 1333q8 48 41.5 70t79.5 22q34 0 61 -24t27 -66q0 -87 -87.5 -141.5t-242.5 -54.5q-153 0 -239.5 55t-86.5 143q0 41 27.5 64.5t62.5 23.5q45 0 78 -22t41 -70q9 -56 34.5 -86t82.5 -30q58 0 85.5 30.5t35.5 85.5 z" />
<glyph unicode="&#x45f;" horiz-adv-x="1196" d="M608 -313q-43 0 -68.5 24.5t-25.5 73.5v215h-268q-47 0 -64.5 23.5t-17.5 72.5v836q0 49 17.5 72.5t64.5 23.5q69 0 100 -38.5t31 -129.5v-764h442v787q0 88 29.5 116.5t101.5 28.5q47 0 64.5 -23.5t17.5 -72.5v-836q0 -49 -17.5 -72.5t-64.5 -23.5h-248v-213 q0 -53 -21.5 -76.5t-72.5 -23.5z" />
<glyph unicode="&#x490;" horiz-adv-x="1059" d="M426 1343v-1210q0 -72 -31 -102.5t-96 -30.5q-94 0 -94 102v1248q0 102 94 102h553v156q0 71 29.5 102t89.5 31q88 0 88 -103v-219q0 -44 -29.5 -60t-93.5 -16h-510z" />
<glyph unicode="&#x491;" horiz-adv-x="858" d="M164 932q0 49 17.5 72.5t64.5 23.5h424v107q0 80 23.5 105.5t88.5 25.5q43 0 59.5 -21t16.5 -65v-185q0 -63 -65 -63h-416v-787q0 -87 -29.5 -116t-101.5 -29q-47 0 -64.5 23.5t-17.5 72.5v836z" />
<glyph unicode="&#x2013;" horiz-adv-x="1618" d="M1415 512h-1212q-19 0 -29 22.5t-10 53.5q0 32 10 55t29 23h1212q18 0 28.5 -23.5t10.5 -54.5q0 -30 -10.5 -53t-28.5 -23z" />
<glyph unicode="&#x2014;" horiz-adv-x="2091" d="M1888 512h-1685q-19 0 -29 22.5t-10 53.5q0 32 10 55t29 23h1685q18 0 28.5 -23.5t10.5 -54.5q0 -30 -10.5 -53t-28.5 -23z" />
<glyph unicode="&#x2018;" horiz-adv-x="557" d="M385 1456l-78 -164q40 -6 65 -23.5t39 -39t18.5 -44t4.5 -40.5q0 -36 -14 -64t-37 -46.5t-52 -28t-59 -9.5q-29 0 -55.5 9t-47.5 26.5t-33.5 43.5t-12.5 59t11 71.5t32 83.5l86 183q25 55 76 55q25 0 43 -16t18 -37q0 -8 -4 -19z" />
<glyph unicode="&#x2019;" horiz-adv-x="557" d="M172 1069l78 164q-41 6 -65.5 23.5t-38.5 39t-18.5 44t-4.5 40.5q0 36 14 64t37 46.5t52 28t59 9.5q28 0 55 -9.5t48 -27t33.5 -43t12.5 -57.5q0 -64 -43 -156l-86 -182q-27 -56 -76 -56q-25 0 -43 16t-18 38q0 7 4 18z" />
<glyph unicode="&#x201a;" horiz-adv-x="598" d="M193 -139l77 164q-40 6 -65 23t-38.5 39t-18.5 44.5t-5 40.5q0 36 14 63.5t37 46t52 28t59 9.5q28 0 55 -9.5t48 -27t34 -43t13 -57.5q0 -63 -43 -155l-86 -183q-25 -55 -76 -55q-26 0 -44 16t-18 37q0 7 5 19z" />
<glyph unicode="&#x201c;" horiz-adv-x="954" d="M782 1456l-77 -164q40 -6 65 -23.5t38.5 -39t18 -44t4.5 -40.5q0 -36 -14 -64t-36.5 -46.5t-51.5 -28t-59 -9.5q-29 0 -56 9t-48 27t-33.5 44t-12.5 59q0 62 43 154l86 183q25 55 76 55q26 0 43.5 -16t17.5 -37q0 -8 -4 -19zM385 1456l-78 -164q40 -6 65 -23.5t39 -39 t18.5 -44t4.5 -40.5q0 -36 -14 -64t-37 -46.5t-52 -28t-59 -9.5q-29 0 -55.5 9t-47.5 26.5t-33.5 43.5t-12.5 59t11 71.5t32 83.5l86 183q25 55 76 55q25 0 43 -16t18 -37q0 -8 -4 -19z" />
<glyph unicode="&#x201d;" horiz-adv-x="954" d="M172 1069l78 164q-41 6 -65.5 23.5t-38.5 39t-18.5 44t-4.5 40.5q0 36 14 64t37 46.5t52 28t59 9.5q28 0 55 -9.5t48 -27t33.5 -43t12.5 -57.5q0 -64 -43 -156l-86 -182q-27 -56 -76 -56q-25 0 -43 16t-18 38q0 7 4 18zM569 1069l78 164q-40 6 -65 23t-38.5 39 t-18.5 44.5t-5 40.5q0 36 14 64t37 46.5t52 28t59 9.5q28 0 55 -9.5t48 -27t33.5 -43t12.5 -57.5q0 -64 -43 -156l-86 -182q-27 -56 -75 -56q-26 0 -44 16t-18 38q0 7 4 18z" />
<glyph unicode="&#x201e;" horiz-adv-x="954" d="M172 -139l78 164q-41 6 -65.5 23.5t-38.5 39t-18.5 44t-4.5 40.5q0 36 14 63.5t37 46t52 28t59 9.5q28 0 55 -9.5t48 -27t33.5 -43t12.5 -57.5q0 -63 -43 -155l-86 -183q-24 -55 -76 -55q-25 0 -43 16t-18 37q0 8 4 19zM569 -139l78 164q-40 6 -65 23t-38.5 39 t-18.5 44.5t-5 40.5q0 36 14 63.5t37 46t52 28t59 9.5q28 0 55 -9.5t48 -27t33.5 -43t12.5 -57.5q0 -63 -43 -155l-86 -183q-24 -55 -75 -55q-26 0 -44 16t-18 37q0 8 4 19z" />
<glyph unicode="&#x2020;" horiz-adv-x="950" d="M385 805h-246q-27 0 -42 24t-15 58t15 58t42 24h246v426q0 28 27 43.5t63 15.5t63 -15.5t27 -43.5v-426h246q26 0 41.5 -24.5t15.5 -57.5t-15.5 -57.5t-41.5 -24.5h-246v-934q0 -29 -26.5 -44t-63.5 -15t-63.5 15t-26.5 44v934z" />
<glyph unicode="&#x2021;" horiz-adv-x="950" d="M385 805h-246q-27 0 -42 24t-15 58t15 58t42 24h246v426q0 28 27 43.5t63 15.5t63 -15.5t27 -43.5v-426h246q26 0 41.5 -24.5t15.5 -57.5t-15.5 -57.5t-41.5 -24.5h-246v-344h246q26 0 41.5 -24.5t15.5 -57.5t-15.5 -57.5t-41.5 -24.5h-246v-426q0 -29 -26.5 -44 t-63.5 -15t-63.5 15t-26.5 44v426h-246q-27 0 -42 24t-15 58t15 58t42 24h246v344z" />
<glyph unicode="&#x2022;" horiz-adv-x="848" d="M255 554q-71 71 -71 169q0 48 19 91.5t52 76.5t76.5 52.5t92.5 19.5q48 0 91.5 -19.5t76.5 -52.5t52.5 -76.5t19.5 -91.5q0 -49 -19.5 -92.5t-52.5 -76.5t-76.5 -52t-91.5 -19q-98 0 -169 71z" />
<glyph unicode="&#x2026;" horiz-adv-x="1630" d="M1196 158q0 35 12 64.5t33 51t49.5 33.5t61.5 12t61 -12t49 -34t33 -51.5t12 -63.5q0 -33 -11.5 -61.5t-32.5 -50t-49.5 -34t-61.5 -12.5q-32 0 -60.5 12t-49.5 33t-33.5 50t-12.5 63zM123 158q0 35 12 64.5t33 51t49.5 33.5t61.5 12t61 -12t49 -34t33 -51.5t12 -63.5 q0 -33 -11.5 -61.5t-32.5 -50t-49.5 -34t-61.5 -12.5q-32 0 -60.5 12t-49.5 33t-33.5 50t-12.5 63zM659 158q0 35 12 64.5t33 51t49.5 33.5t61.5 12t61.5 -12t49.5 -34t33 -51.5t12 -63.5q0 -33 -12 -62t-33 -50t-49.5 -33.5t-61.5 -12.5q-32 0 -60.5 12t-49.5 33t-33.5 50 t-12.5 63z" />
<glyph unicode="&#x2030;" horiz-adv-x="2640" d="M1438 1497l-936 -1655q-9 -12 -29 -12q-29 0 -60.5 17.5t-31.5 37.5q0 6 2 11l934 1665q6 12 24 12q30 0 64.5 -22t34.5 -44q0 -6 -2 -10zM453 1485q43 0 85.5 -11.5t87 -42t78 -76.5t55 -123t21.5 -175t-21.5 -175t-55 -123t-78 -76.5t-87 -42t-85.5 -11.5 q-44 0 -86.5 11.5t-87.5 42t-79 76.5t-55.5 123t-21.5 175t21.5 175t55.5 123t79 76.5t87.5 42t86.5 11.5zM299 1057q0 -83 10 -145.5t25 -98.5t36.5 -58.5t41 -30t41.5 -7.5q28 0 52 13.5t48.5 47.5t38.5 105.5t14 173.5q0 82 -10 144.5t-25 99t-36 59t-40.5 30t-41.5 7.5 t-41.5 -7.5t-41 -30t-36.5 -59t-25 -99t-10 -144.5zM1087 222q-22 77 -22 175t22 175t55.5 123t79 76.5t88 42t85.5 11.5t85.5 -11.5t87 -42t78 -76.5t55 -123t21.5 -175t-21.5 -175t-55 -123t-78 -76.5t-87 -42t-85.5 -11.5t-85.5 11.5t-88 42t-79 76.5t-55.5 123z M1241 397q0 -82 10 -144.5t25 -99t36.5 -59t41 -30t41.5 -7.5t41.5 7.5t40.5 30t36 59t25 99t10 144.5q0 102 -14 173.5t-38.5 105.5t-48.5 47.5t-52 13.5q-22 0 -41.5 -7.5t-41 -30t-36.5 -58.5t-25 -98.5t-10 -145.5zM1881 222q-21 77 -21 175t21.5 175t55.5 123t79 76.5 t87.5 42t85.5 11.5t85.5 -11.5t87.5 -42t78.5 -76.5t55 -123t21.5 -175t-21.5 -175t-55 -123t-78.5 -76.5t-87.5 -42t-85.5 -11.5t-85.5 11.5t-87.5 42t-79 76.5t-56 123zM2036 397q0 -82 10 -144.5t25 -99t36 -59t40.5 -30t41.5 -7.5t41.5 7.5t41 30t36.5 59t25 99 t10 144.5q0 83 -10 145.5t-25 98.5t-36.5 58.5t-41 30t-41.5 7.5q-28 0 -52 -13.5t-48.5 -47.5t-38.5 -105.5t-14 -173.5z" />
<glyph unicode="&#x2039;" horiz-adv-x="829" d="M676 879l-305 -398l305 -389q10 -13 10 -26q0 -12 -8 -23.5t-20 -21t-26.5 -15.5t-27.5 -6q-21 0 -31 12l-413 428q-17 17 -17 41t17 41l413 436q13 13 31 13q13 0 27.5 -5.5t26.5 -14.5t20 -21t8 -25t-10 -26z" />
<glyph unicode="&#x203a;" horiz-adv-x="829" d="M459 481l-305 398q-11 14 -11 26q0 13 8 25t20 21t26.5 14.5t27.5 5.5q19 0 31 -13l414 -436q16 -16 16 -41t-16 -41l-414 -428q-9 -12 -31 -12q-13 0 -27.5 5.5t-26.5 14.5t-20 21t-8 25q0 12 11 26z" />
<glyph unicode="&#x2044;" horiz-adv-x="178" d="M-397 29l864 1456q4 10 25 10q12 0 27 -5.5t28 -13.5t22 -18.5t9 -19.5q0 -7 -3 -8l-866 -1461q-4 -10 -22 -10q-13 0 -28 5.5t-28 14.5t-21.5 19.5t-8.5 19.5q0 5 2 11z" />
<glyph unicode="&#x2074;" horiz-adv-x="737" d="M318 713h59v121h-309q-57 0 -57 35q0 15 12 32l340 504q32 47 102 47q43 0 61.5 -15t18.5 -50v-475h51q42 0 55 -11.5t13 -31.5q0 -16 -11.5 -25.5t-47.5 -9.5h-60v-121h43q70 0 70 -43q0 -18 -11.5 -28.5t-47.5 -10.5h-293q-64 0 -64 39q0 18 18 30.5t58 12.5zM377 912 v346l-227 -346h227z" />
<glyph unicode="&#x20ac;" d="M713 535h-367q13 -124 46.5 -206.5t84.5 -132t117.5 -70t146.5 -20.5q51 -1 107.5 15t120.5 45l35 16q11 4 16 4q19 0 32 -19t13 -42q0 -31 -25 -41l-32 -14q-43 -19 -78 -32t-70.5 -21.5t-76.5 -12.5t-95 -4q-248 0 -384.5 138t-168.5 397h-110q-20 0 -31.5 16.5 t-11.5 38.5q0 23 11.5 40t31.5 17h100v127h-100q-20 0 -31.5 16.5t-11.5 38.5q0 24 11 41t32 17h110q18 141 65.5 247t120 176.5t167 106t206.5 35.5q72 0 137 -11t127 -32q23 -8 38 -16t24 -19t12.5 -26.5t3.5 -38.5v-107q0 -54 -20 -78t-62 -24q-55 0 -81.5 30.5 t-26.5 102.5v98q-37 8 -68.5 12.5t-58.5 4.5q-151 0 -247.5 -117t-123.5 -344h455q20 0 31.5 -17.5t11.5 -40.5q0 -21 -11.5 -38t-31.5 -17h-465v-127h375q20 0 31.5 -17t11.5 -40q0 -22 -11.5 -38.5t-31.5 -16.5z" />
<glyph unicode="&#x20b4;" d="M621 885q36 26 67 53.5t54 59t36 68t13 81.5q0 60 -19 98.5t-50.5 61t-71 31t-81.5 8.5q-85 0 -158.5 -22.5t-138.5 -55.5q-24 -12 -34.5 -17.5t-20.5 -5.5q-22 0 -35.5 20t-13.5 42q0 14 18.5 30t51 32t75 31t91 26.5t99.5 18.5t99 7q84 0 157.5 -17t128 -53t85.5 -93 t31 -136q0 -41 -10 -79t-27.5 -72t-41 -63.5t-51.5 -53.5h115q22 0 32.5 -15t10.5 -36q0 -20 -10.5 -35t-32.5 -15h-235q-42 -34 -81.5 -60t-86.5 -60h403q22 0 32.5 -15t10.5 -37q0 -20 -10.5 -34.5t-32.5 -14.5h-547q-63 -47 -100 -108.5t-37 -149.5q0 -42 15.5 -78.5 t45.5 -63t73.5 -42t99.5 -15.5q96 0 185.5 17t180.5 63q4 2 12.5 6.5t17.5 8.5t17 7t13 3q17 0 31 -19t16 -40q0 -17 -22 -35t-59.5 -35t-87 -32t-104 -26t-112 -17.5t-109.5 -6.5q-98 0 -176 20.5t-132 61t-83 102t-29 142.5q0 69 28 128.5t73 108.5h-103q-21 0 -32 14.5 t-11 34.5q0 22 11 37t32 15h219q28 20 66 49t98 71h-383q-21 0 -32 15t-11 35q0 21 11 36t32 15h525z" />
<glyph unicode="&#x20b6;" d="M817 389h-428v-256q0 -72 -28.5 -102.5t-88.5 -30.5q-88 0 -88 102v287h-112q-20 0 -31.5 15.5t-11.5 35.5q0 22 11.5 38t31.5 16h112v129h-112q-22 0 -32.5 15t-10.5 36t10.5 37t32.5 16h112v623q0 55 19.5 78.5t62.5 23.5h295q41 0 94.5 -3t109.5 -15.5t109.5 -37.5 t96 -68.5t68.5 -109t26 -159.5q0 -99 -32 -179.5t-95 -137.5t-157 -88t-218 -31h-174v-129h428q21 0 32 -16t11 -38q0 -20 -11.5 -35.5t-31.5 -15.5zM557 1348h-168v-621h168q72 0 127 18t92.5 58t56.5 103t19 153q0 74 -16 128.5t-51.5 90t-91.5 53t-136 17.5z" />
<glyph unicode="&#x2116;" horiz-adv-x="2034" d="M1368 1147q0 88 22 152t59.5 105t86 61t102.5 20q52 0 101.5 -20t87.5 -61t61 -105t23 -152q0 -87 -22.5 -150.5t-60.5 -104.5t-87.5 -61t-102.5 -20q-54 0 -102.5 20t-86 61t-59.5 104.5t-22 150.5zM1518 1145q0 -73 12.5 -118t31 -70t39.5 -33.5t37 -8.5q17 0 38.5 8.5 t40 33.5t31.5 70t13 118q0 81 -14.5 127t-34 69t-40.5 29t-34 6q-12 0 -32.5 -6t-40 -29t-33.5 -69t-14 -127zM1436 559q-16 0 -22.5 18t-6.5 41q0 22 6.5 41t22.5 19h405q14 0 21.5 -19t7.5 -41q0 -23 -7.5 -41t-21.5 -18h-405zM283 0q-15 0 -29 5t-25 16t-17.5 28.5 t-6.5 42.5v1249q0 27 10 47.5t27 35t39 21.5t47 7q41 0 77 -17t70 -69l586 -1057h10v1028q0 33 8 55t20 35.5t27 19t29 5.5q15 0 29 -5t25 -16t17.5 -28.5t6.5 -42.5v-1241q0 -30 -9.5 -52.5t-26 -37t-38 -22t-45.5 -7.5q-53 0 -89 22t-60 60l-586 1061h-12v-1028 q0 -33 -8 -55t-20.5 -35.5t-27.5 -19t-28 -5.5z" />
<glyph unicode="&#x2122;" horiz-adv-x="1325" d="M451 1403h-78v-399q0 -41 -18 -54.5t-52 -13.5q-59 0 -59 49v418h-78v-37q0 -39 -16 -52.5t-50 -13.5q-49 0 -49 43v76q0 33 33 33h448q33 0 33 -33v-76q0 -43 -49 -43q-34 0 -49.5 13.5t-15.5 52.5v37zM637 981v422q0 22 19.5 35.5t45.5 13.5q70 0 82 -31l146 -331 l137 331q6 15 32 23t54 8q26 0 42.5 -13t16.5 -36v-418q0 -49 -51 -49q-78 0 -78 84v244h-4l-123 -295q-15 -33 -43 -33q-29 0 -41 29l-137 317h-4v-262q0 -46 -11.5 -65t-37.5 -19q-20 0 -32.5 12.5t-12.5 32.5z" />
<glyph unicode="&#x2212;" horiz-adv-x="1475" d="M225 633h-3q-19 0 -28.5 25.5t-9.5 56.5t9.5 56.5t28.5 25.5h3h1024q20 0 30 -25t10 -57t-10 -57t-30 -25h-1024z" />
<glyph unicode="&#xe000;" horiz-adv-x="1030" d="M0 1030h1030v-1030h-1030v1030z" />
<glyph unicode="&#xf408;" horiz-adv-x="1460" d="M844 1620l-113 111l-115 -111q-67 -64 -143 -64q-36 0 -60 13.5t-24 32.5q0 10 8 18l226 223q37 39 100 39q76 0 115 -39l225 -223q8 -8 8 -18q0 -19 -24 -32.5t-60 -13.5q-76 0 -143 64z" />
<glyph unicode="&#xf40c;" horiz-adv-x="1473" d="M577 1604q-65 65 -65 159t65.5 160t159.5 66t159 -66t65 -160t-65 -158.5t-159 -64.5t-160 64zM633 1763q0 -40 31.5 -71t72.5 -31q40 0 71.5 31t31.5 71q0 42 -31 73.5t-72 31.5t-72.5 -31.5t-31.5 -73.5z" />
<glyph unicode="&#xf40d;" horiz-adv-x="1479" d="M598 1698q-26 0 -41.5 -9.5t-22 -22.5t-12.5 -26t-18.5 -22.5t-34.5 -9.5q-34 0 -46.5 11t-12.5 32q0 66 59 133t154 67q62 -6 135 -32q8 -3 26.5 -11t27.5 -11.5t23.5 -8t27 -6.5t26.5 -2q44 0 63 37q1 2 9.5 16t13 18.5t17.5 10.5t30 6q23 0 35 -11.5t12 -29.5 q0 -31 -16 -58q-33 -75 -80.5 -109t-100.5 -34q-50 0 -147 37q-88 35 -127 35z" />
<glyph unicode="&#xf6c9;" horiz-adv-x="1585" d="M965 1903l-217 -301q-27 -33 -76 -33q-26 0 -42 10.5t-16 28.5q0 12 4 20l117 291q12 26 46 39.5t75 13.5q54 0 84.5 -13.5t30.5 -35.5q0 -11 -6 -20z" />
<glyph unicode="&#xf6ca;" horiz-adv-x="1460" d="M616 1819l113 -111l115 111q66 63 143 63q36 0 60 -13t24 -32q0 -10 -8 -18l-225 -224q-41 -39 -101 -39q-75 0 -114 39l-226 224q-8 8 -8 18q0 19 24 32t60 13q77 0 143 -63z" />
<glyph unicode="&#xf6cb;" horiz-adv-x="1303" d="M723 1743q0 58 41.5 99.5t97.5 41.5t99 -41.5t43 -99.5q0 -54 -43.5 -96.5t-98.5 -42.5t-97 42.5t-42 96.5zM299 1745q0 56 42 98.5t95 42.5q58 0 101 -42t43 -99q0 -55 -43 -97t-101 -42q-52 0 -94.5 42.5t-42.5 96.5z" />
<glyph unicode="&#xf6ce;" horiz-adv-x="1585" d="M674 1602l-217 301q-6 9 -6 20q0 22 30 35.5t84 13.5q42 0 76 -13.5t45 -39.5l117 -291q4 -8 4 -20q0 -18 -16 -28.5t-41 -10.5q-51 0 -76 33z" />
<glyph unicode="&#xf6d1;" horiz-adv-x="1516" d="M922 1792q5 29 17 48t29 29.5t37.5 14.5t43.5 4q18 0 36 -3.5t32.5 -12t24 -21.5t9.5 -32q0 -62 -28 -109.5t-79 -79.5t-123.5 -48.5t-162.5 -16.5q-183 0 -284 63t-109 184q0 21 8.5 35.5t22.5 23.5t32.5 13t38.5 4q22 0 42.5 -4t37.5 -14.5t29.5 -29.5t17.5 -48t16 -55 t30 -45.5t47.5 -31t70.5 -11.5q41 0 70 11.5t48 31t29.5 45.5t16.5 55z" />
<glyph unicode="&#xf6d4;" horiz-adv-x="1112" d="M856 1399q0 -56 -22 -103.5t-62 -82t-95 -54.5t-122 -20t-122 20t-94.5 55t-61 82.5t-21.5 102.5q0 25 14 41t41 16q25 0 45 -15t29 -40q13 -37 30 -61.5t38 -39t46.5 -20.5t55.5 -6q31 0 57 6t47 20t37.5 38.5t30.5 62.5q9 25 29 40t45 15q27 0 41 -16t14 -41z" />
<glyph horiz-adv-x="1198" d="M561 1200q-12 -15 -33 -24t-43 -9q-23 0 -39 10.5t-16 28.5q0 5 0.5 9t3.5 10l107 256q12 28 45.5 40.5t70.5 12.5q51 0 81 -14t30 -35q0 -5 -1.5 -10.5t-4.5 -8.5z" />
<glyph horiz-adv-x="1473" d="M1067 1831q0 -108 -92.5 -183t-239.5 -75q-145 0 -237 75t-92 183q0 24 15.5 40.5t45.5 16.5q26 0 48.5 -15.5t33.5 -39.5q29 -71 74 -97t112 -26q69 0 114.5 26t74.5 97q11 24 33.5 39.5t48.5 15.5q30 0 45.5 -16.5t15.5 -40.5z" />
<glyph horiz-adv-x="608" d="M164 1743q0 58 41.5 99.5t97.5 41.5t98.5 -41.5t42.5 -99.5q0 -54 -43 -96.5t-98 -42.5t-97 42.5t-42 96.5z" />
<glyph horiz-adv-x="0" />
<glyph horiz-adv-x="1216" d="M563 1602q-12 -16 -33 -24.5t-43 -8.5q-25 0 -41 10t-16 29q0 5 0.5 9.5t3.5 10.5l117 291q12 28 47 40.5t73 12.5q56 0 85.5 -13.5t29.5 -35.5q0 -11 -6 -20z" />
<glyph horiz-adv-x="3031" d="M2797 -12q-45 0 -80 19t-56 57q-8 -28 -30 -52t-54 -24q-18 0 -33.5 7.5t-28.5 18.5t-23 25t-15 27q-4 -13 -13.5 -24.5t-21.5 -20t-25.5 -14t-25.5 -6.5q-50 -2 -77.5 20.5t-38.5 57.5q-16 -26 -43 -50t-69 -28q-50 0 -84 20t-54.5 53t-28.5 76t-6 89q1 35 5 71.5 t11 70.5t16.5 63t21.5 49q40 3 74.5 -4t59.5 -26.5t39 -51.5t14 -79q0 -33 -7 -65.5t-20.5 -61t-34 -49t-46.5 -29.5q7 -26 16.5 -50t27.5 -37q17 8 31.5 22.5t25.5 31t20 34.5t15 33q-1 18 -1 35.5v33.5q4 69 21.5 130t62.5 109q23 0 47 -5t45 -12q1 5 4 18.5t6.5 28.5 t7.5 28t7 16q11 2 27.5 -1.5t33 -9.5t31 -14t22.5 -16q-8 -50 -13 -111.5t-5.5 -124.5t5 -122.5t19.5 -107.5q9 -2 18.5 6.5t18 20.5t15 25l10.5 21l-4 15q-18 89 -21 189.5t7.5 199t34.5 188.5t61 158q57 -9 93.5 -27t58.5 -47t30.5 -71t8.5 -100q0 -54 -9.5 -112 t-28 -108.5t-46 -89t-62.5 -54.5q0 -134 55 -214q42 32 73.5 93t49.5 157l2 8t2.5 5t2.5 -1.5t3 -11.5q5 -35 3 -85.5t-17.5 -98t-49 -81t-91.5 -33.5zM1582 482q12 -101 13.5 -204t-8 -197.5t-31 -177t-56 -144t-82.5 -96.5t-111 -35q-34 0 -55.5 9t-34 27t-17.5 44t-5 60 q0 31 4.5 59.5t12.5 54.5q32 0 66.5 -10.5t59.5 -36.5q-5 -36 -9 -80.5t7 -81.5q39 26 60.5 60t34 77.5t19.5 96.5t15 116q-5 -8 -16 -16t-23 -8q-45 0 -77.5 25.5t-51.5 67.5q-8 -20 -19 -39.5t-28.5 -36t-41 -26.5t-54.5 -10q-74 0 -126 31.5t-85 83.5t-48.5 117.5 t-16.5 133.5q-1 77 8.5 154t31.5 147.5t58 131t89 105.5q29 -6 63 -15.5t63.5 -31t49 -59t19.5 -97.5q0 -45 -23.5 -83.5t-58.5 -69.5q-6 -6 -9 -7t-4 0.5t-1 5t1 5.5q4 26 1.5 57t-8 60t-13.5 52.5t-16 34.5q-16 -15 -30.5 -49t-25.5 -80t-18 -101t-9 -112t2 -113.5 t16 -106t32 -88t50 -59.5q25 7 45 23.5t36 36t27 40t17 36.5q-11 45 -16.5 94.5t-5.5 100.5q0 47 7 80.5t17 54.5q10 -2 25.5 -5t32.5 -8t34 -13.5t29 -20.5q-5 -103 -1.5 -199.5t31.5 -184.5q14 3 19 14.5t7 19.5q13 59 14 122.5t-4 123.5t-13 112.5t-14 88.5q16 1 36.5 -3 t41.5 -12.5t39.5 -20t31.5 -25.5zM486 142q-9 0 -18 0.5t-17 1.5q-2 -3 -6 -9.5t-11 -5.5q-3 -2 -5 -2.5t-4 -2.5l25.5 -17t26.5 -19q8 -1 21 -4t24 -16q0 -2 -1 -2.5t-2 -1.5q-8 7 -14 10.5t-18 5.5q5 -4 10.5 -11t8.5 -15q-1 -3 -6 -3q-6 10 -14 18.5t-19 10.5 q-18 5 -43 -3q-3 4 -2 7q8 3 17 3.5t19 2.5q-17 14 -32 22t-15 13q0 3 8 9q-5 5 -5 11.5v8.5q-31 10 -57 28t-47.5 38.5t-39 40t-31.5 34.5q-10 10 -31 15.5t-45 10t-47 11.5t-37 20q-5 5 -3.5 10t6.5 4q1 0 14.5 -1.5t34 -4t44.5 -4.5t46.5 -4.5t40 -4t23.5 -1.5 q52 10 103 19t92 18t69.5 18t37.5 17q10 32 34 51t50 19q12 0 22 -3.5t18 -8.5l27 11q2 0 2 -1v-2l-9 -27q8 0 15 -0.5t12 0.5l1 -2q0 -1 -1 -1l-21 -26q-19 -29 -34 -71.5t-35.5 -84.5t-51 -76.5t-78.5 -47.5q1 -2 -0.5 -9t-9.5 -10l-8 -6q14 -5 29.5 -10.5t29.5 -13.5 q10 1 23 -0.5t29 -11.5q-1 -2 -3 -3q-8 4 -15.5 6.5t-20.5 1.5q6 -3 12.5 -7t9.5 -12q-1 -3 -4 -3q-9 8 -19 14t-21 5t-16 -2.5t-16 -6.5q-2 2 -2.5 2t-2.5 2q7 7 12.5 8.5t14.5 4.5q-20 11 -36.5 15.5t-16.5 8.5t7 8q-5 0 -8.5 5.5t-3.5 7.5h-4h-12zM1601 505q52 -3 82 -9 q34 -7 56 -31q14 -26 25 -62.5t14 -88.5q23 41 37 71t22 55q0 18 6.5 42.5t14.5 39.5q39 -2 72.5 -14.5t48.5 -35.5q-4 -24 -7 -50.5t-4.5 -54t-0.5 -54t5 -49.5q-52 -14 -82 6t-38 72q-6 -13 -14.5 -26t-17.5 -27t-17 -29.5t-12 -33.5v-37t-1.5 -41t-4 -40t-7.5 -33 q-11 -39 -37 -64t-69 -19q-3 58 -6.5 126.5t-11 137.5t-20 133.5t-33.5 115.5zM2387 47q8 6 18 16t19 21.5t15.5 24.5t8.5 26q-10 36 -15 74t-6.5 73t-1 64.5t2.5 47.5q-15 -18 -27.5 -59.5t-20 -92t-6.5 -103t13 -92.5zM2763 310q22 31 36 81t21 105.5t7 109.5t-6 93 q-11 -40 -20.5 -87t-17 -98t-13 -103t-7.5 -101zM2154 399q-17 -53 -24.5 -109t-7.5 -118q13 2 23.5 16t17.5 34t10.5 44.5t3.5 47.5q0 28 -7.5 50.5t-15.5 34.5zM728 70q0 6 10 6t10 -6q0 -9 -10 -9t-10 9zM831 65l1 2q1 0 1 1l2 2q1 1 4 3h1q5 0 6.5 -4.5t1.5 -6.5v-2 q0 -1 -1 -2q-2 -4 -5 -4h-2h-2q-7 0 -7 7v1v3zM770 58q2 2 3 2q0 1 1 1h2q1 0 1 0.5t1 0.5h3h3q1 0 1 -0.5t1 -0.5t3 -2q0 -1 0.5 -1.5t0.5 -1.5q0 -2 -0.5 -3t-0.5 -3l-2 -2q-1 -1 -2 -1h-4h-3h-2l-4 2q0 1 -0.5 1t-0.5 1q-1 1 -1 2v3v2z" />
<glyph horiz-adv-x="1499" d="M750 16v-102q94 0 155.5 -36.5t61.5 -123.5q0 -84 -67.5 -134t-172.5 -50q-65 0 -130 24t-65 64q0 16 12.5 28.5t33.5 12.5q13 0 56.5 -12.5t67.5 -12.5q51 0 76 22t25 52q0 54 -38 70t-128 16v182h113z" />
</font>
</defs>
</svg>
